<svg width="65" height="86" viewBox="0 0 65 86" fill="none" xmlns="http://www.w3.org/2000/svg">
<path d="M16.7633 60.4012C16.2724 60.6917 15.8905 61.1356 15.6765 61.6644C15.4624 62.1932 15.4281 62.7777 15.5788 63.328C15.7993 64.056 16.2909 64.6715 16.9521 65.0477C17.2727 65.2282 17.6274 65.34 17.9936 65.3757C18.3598 65.4114 18.7295 65.3703 19.0789 65.2551C19.4283 65.1399 19.7499 64.953 20.023 64.7065C20.2961 64.4599 20.5148 64.1591 20.6651 63.8233C20.9198 63.3185 21.0224 62.7507 20.9607 62.1888C20.8989 61.6268 20.6753 61.0948 20.317 60.6575C19.8618 60.1819 19.2462 59.8923 18.5895 59.845C17.9329 59.7976 17.2821 59.9958 16.7633 60.4012ZM17.3418 63.6224C16.5174 63.0076 17.4855 61.2844 18.4345 61.3831C20.1196 61.5615 19.6382 65.3351 17.3418 63.6224ZM15.5632 33.435C15.0236 34.4212 14.832 35.5605 15.0193 36.669C15.2066 37.7775 15.7618 38.7906 16.5953 39.5448C18.154 40.6982 20.7915 40.797 21.6713 39.5881C22.4161 38.2486 22.7819 36.7315 22.7295 35.1997C22.6048 29.5799 17.3366 30.716 15.5632 33.435ZM19.697 38.2477C16.2836 39.0859 16.3217 34.9434 17.5063 33.7121C17.8802 33.3757 18.343 33.1537 18.8394 33.0727C19.3358 32.9916 19.8451 33.0549 20.3066 33.2549C21.5518 33.8368 21.1951 37.8788 19.697 38.2477ZM64.7556 12.8471L60.9802 12.8194C51.3941 12.9134 42.129 9.36915 35.0531 2.90122L32.4415 0.431641L29.8299 2.90122C22.7546 9.36883 13.4901 12.9131 3.90455 12.8194L0.129173 12.8471L0.127441 49.2067C0.127441 53.9034 1.64105 77.7038 31.5843 84.8147L32.464 85.026L33.3438 84.8147C63.2437 77.7142 64.7573 53.9069 64.7573 49.2032L64.7556 12.8471ZM26.8876 58.5412C26.5325 60.9831 22.6758 67.5553 19.6052 68.1719C17.3279 68.6308 14.3977 68.139 13.2166 65.8339C12.5937 64.6485 12.417 63.2789 12.7186 61.9743C13.0202 60.6696 13.7801 59.5165 14.8601 58.7248C15.5131 58.2615 16.2814 57.9877 17.0803 57.9333C20.7846 57.3826 21.3925 51.9153 23.5902 51.2069C28.4289 49.6535 27.343 55.4135 26.8876 58.5412ZM23.0568 44.1844C20.4521 45.343 18.0605 45.2235 16.8638 50.0068C16.0464 53.2851 15.6186 55.9729 11.7514 55.9729C8.9251 55.9729 6.5906 53.2886 5.66754 51.3974C3.7712 47.5078 5.94637 42.9531 7.28853 39.1223C8.64454 35.2534 8.6965 32.2106 10.7522 29.7531C11.5375 28.6302 12.5695 27.7019 13.769 27.0394C14.9686 26.3769 16.3038 25.9977 17.6725 25.931C22.3848 26.0193 24.2656 27.9555 26.5031 30.8113C27.9115 32.5108 28.674 34.6534 28.6558 36.8605C28.5969 39.2851 25.6008 43.0483 23.0568 44.1844ZM32.464 77.1877C32.4606 45.7188 32.445 24.9231 32.4415 10.7048C39.5438 16.274 48.1446 19.6004 57.146 20.2593L57.1494 49.2067C57.1494 69.0845 38.1877 75.6585 32.464 77.1877ZM46.8191 45.8504C43.8334 42.6483 43.2914 41.1399 43.8767 36.935C44.3011 34.21 45.4374 31.6453 47.1707 29.5003C48.3223 28.1477 48.3137 23.7628 45.4163 23.4666C44.458 23.3423 43.484 23.4855 42.6021 23.8805C37.5729 26.3241 35.9762 34.5347 36.3433 40.5251C36.5086 41.9298 36.7731 43.321 37.1348 44.6884C37.6734 47.0125 40.8842 51.4667 42.3787 53.5847C43.3975 55.0452 44.8398 56.158 46.5108 56.773C47.4433 57.084 48.4491 57.099 49.3904 56.8159C50.3317 56.5328 51.1624 55.9656 51.7687 55.1919C52.1123 54.6295 52.3207 53.995 52.3775 53.3384C52.4343 52.6817 52.3379 52.0209 52.096 51.4078C50.9824 48.9556 47.8998 47.0107 46.8191 45.8504ZM40.5655 29.1435C40.7253 28.157 41.2282 27.2585 41.9856 26.6064C43.2879 25.5431 45.3713 25.9968 45.4943 27.3978C45.7436 30.2467 42.5432 32.5968 41.1058 31.1767C40.8726 30.8979 40.7033 30.5714 40.61 30.2201C40.5166 29.8688 40.5014 29.5013 40.5655 29.1435ZM39.2649 33.3553C40.2919 32.169 42.2765 32.2556 42.6108 33.5216C43.2948 36.1003 40.7318 38.769 39.1852 37.6935C38.9264 37.4745 38.7187 37.2015 38.5765 36.8936C38.4344 36.5858 38.3614 36.2505 38.3626 35.9115C38.3537 34.9799 38.6732 34.0749 39.2649 33.3553ZM40.3594 39.0599C40.6887 39.1165 41.0015 39.2446 41.2759 39.4352C41.5503 39.6258 41.7795 39.8743 41.9475 40.1631C42.4214 40.9509 42.6029 41.8804 42.4601 42.7886C42.1744 44.3091 40.4443 45.2287 39.5264 44.3195C37.656 42.4664 38.5046 38.9162 40.3594 39.0599ZM42.5709 50.2337C40.1118 49.3037 39.5039 45.9613 41.2461 45.3205C41.5691 45.2353 41.9067 45.2218 42.2355 45.2807C42.5642 45.3396 42.8761 45.4696 43.1494 45.6616C43.9098 46.1796 44.4621 46.9502 44.708 47.8368C45.0873 49.3348 43.9616 50.7601 42.5709 50.2337ZM47.2313 54.7953C44.618 54.5078 43.6187 50.8744 45.2778 50.038C45.5891 49.9162 45.9233 49.864 46.2569 49.8853C46.5905 49.9065 46.9154 50.0006 47.2088 50.1609C48.0211 50.5896 48.6568 51.2903 49.0047 52.1404C49.1565 52.4297 49.2275 52.7547 49.2102 53.081C49.193 53.4073 49.0881 53.7229 48.9066 53.9946C48.7251 54.2663 48.4737 54.4841 48.1789 54.625C47.884 54.7659 47.5567 54.8247 47.2313 54.7953ZM43.7261 47.8403C43.8941 48.6837 43.3451 49.411 42.5883 49.082C41.2478 48.4966 41.0002 46.6245 41.9856 46.3145C42.1519 46.2835 42.3231 46.2923 42.4854 46.3402C42.6476 46.388 42.7962 46.4736 42.919 46.5899C43.327 46.8985 43.6128 47.3414 43.7261 47.8403Z" fill="#4FA600"/>
</svg>
