<svg width="67" height="67" viewBox="0 0 67 67" fill="none" xmlns="http://www.w3.org/2000/svg">
<path d="M32.062 14.2636L38.7666 7.46205L37.281 5.99414L30.627 12.7465C31.1463 13.2118 31.6262 13.7193 32.062 14.2636Z" fill="#4FA600"/>
<path d="M22.1269 9.45777C22.5433 9.45777 22.953 9.48235 23.3613 9.52195V0.125977H21.2734V9.50147C21.5561 9.48235 21.8388 9.45777 22.1269 9.45777Z" fill="#4FA600"/>
<path d="M13.83 12.5626L7.3548 5.99316L5.86914 7.45971L12.3634 14.0469C12.8106 13.5126 13.3011 13.0161 13.83 12.5626Z" fill="#4FA600"/>
<path d="M32.3091 21.6196C32.2596 20.6023 32.0566 19.5982 31.7069 18.6415V18.6388C31.1241 17.0502 30.155 15.6316 28.8872 14.5109C28.7028 14.3456 28.5117 14.19 28.3137 14.037L28.2823 14.0152C27.6916 13.5652 27.0527 13.1823 26.3774 12.8736C26.3657 12.8662 26.3534 12.8598 26.3405 12.8545C26.1371 12.763 25.935 12.6797 25.7247 12.6019C25.666 12.5787 25.6045 12.5555 25.5431 12.535C25.3396 12.4626 25.1348 12.3944 24.9272 12.3343C24.8849 12.322 24.8412 12.3152 24.7989 12.3015C24.3272 12.1722 23.8466 12.0777 23.361 12.0188C22.9516 11.9662 22.5394 11.9384 22.1266 11.9355C21.8385 11.9355 21.5558 11.956 21.2732 11.9792C21.0547 11.997 20.8389 12.027 20.6218 12.0598C20.5426 12.0721 20.4593 12.083 20.3801 12.0953C20.1767 12.1322 19.9773 12.1718 19.7766 12.2182C19.6919 12.2387 19.6086 12.2605 19.524 12.2851C19.326 12.3356 19.1293 12.3889 18.9341 12.4517C18.9095 12.4599 18.8863 12.4695 18.8617 12.4804C18.4777 12.6103 18.1019 12.7635 17.7365 12.9392C17.6355 12.9883 17.529 13.0361 17.4279 13.0867C17.2805 13.1631 17.1398 13.2464 16.9951 13.3297C16.8804 13.3966 16.7684 13.4635 16.6564 13.5359C16.5226 13.6206 16.3929 13.7066 16.2618 13.7967C16.1444 13.8786 16.0324 13.966 15.9177 14.0548C15.8003 14.1436 15.6801 14.2309 15.5681 14.3265C15.0343 14.7759 14.5483 15.2793 14.118 15.8286C13.6533 16.4148 13.2562 17.0515 12.9341 17.7266C12.915 17.7621 12.8986 17.799 12.8795 17.8359C12.7784 18.0516 12.6851 18.2714 12.5995 18.4954L12.5845 18.5364C12.2127 19.5249 11.9958 20.5649 11.9414 21.6196C11.9332 21.7958 11.9141 21.9692 11.9141 22.1467C11.9201 23.7602 12.3065 25.3496 13.042 26.7857C13.7775 28.2218 14.8413 29.4642 16.1471 30.4121C16.3287 30.5432 16.5158 30.6688 16.7042 30.7889C16.7121 30.7919 16.7194 30.7961 16.7261 30.8012C17.106 31.0395 17.5016 31.2521 17.91 31.4376C18.097 31.5222 18.2882 31.6028 18.4807 31.6752C18.5367 31.6984 18.5954 31.7188 18.6541 31.7393C19.2319 31.948 19.8275 32.1038 20.4334 32.205C20.5235 32.2213 20.6164 32.235 20.7079 32.2473C20.8977 32.2732 21.0834 32.2978 21.2732 32.3156C21.5558 32.3374 21.8385 32.3565 22.1266 32.3565C22.9538 32.3503 23.7774 32.2467 24.5804 32.0479C24.6596 32.0275 24.7402 32.007 24.8235 31.9865C25.4178 31.8233 25.996 31.6062 26.5508 31.3379C26.589 31.3201 26.6232 31.3037 26.66 31.286C27.8738 30.6797 28.9567 29.8409 29.8471 28.8172C29.9809 28.6601 30.112 28.499 30.2336 28.3351C30.2718 28.2874 30.3059 28.2409 30.3414 28.1918C30.7357 27.6578 31.0768 27.0866 31.3601 26.4863C31.3655 26.474 31.3724 26.4576 31.3806 26.4426C31.9954 25.0929 32.3215 23.6297 32.3378 22.1467C32.3378 21.9692 32.32 21.7958 32.3091 21.6196Z" fill="#4FA600"/>
<path d="M44.5302 23.708V21.6201H34.7901C34.7983 21.7963 34.8174 21.9697 34.8174 22.1458C34.8138 22.6682 34.7782 23.1899 34.7109 23.708H44.5302Z" fill="#4FA600"/>
<path d="M9.43727 22.1462C9.43727 21.9687 9.45638 21.7953 9.46458 21.6191H0.105469V23.7083H9.54377C9.47581 23.1904 9.44024 22.6686 9.43727 22.1462Z" fill="#4FA600"/>
<path d="M61.6267 27.0467L56.842 28.3207L60.2367 31.7139L46.467 45.6884L38.7629 37.8709L38.7656 37.8668L31.5858 30.5819C31.1226 31.1055 30.617 31.5901 30.0742 32.0307L46.467 48.6624L61.7114 33.19L63.8511 35.3284L65.1265 30.5464L66.4005 25.7617L61.6267 27.0467Z" fill="#4FA600"/>
<path d="M22.1269 34.8353C21.8388 34.8353 21.5561 34.8107 21.2734 34.7916V45.2008H23.3613V34.7725C22.953 34.8121 22.5433 34.8353 22.1269 34.8353Z" fill="#4FA600"/>
<path d="M12.8482 30.7832L5.86914 37.8674L7.3548 39.3326L14.3926 32.191C13.8408 31.764 13.3243 31.2932 12.8482 30.7832Z" fill="#4FA600"/>
<path d="M66.8958 57.8193H0.109375V66.9108H66.8958V57.8193Z" fill="#4FA600"/>
<path d="M66.8946 51.748H0.105469V55.2328H66.8946V51.748Z" fill="#4FA600"/>
</svg>
