<svg width="56" height="65" viewBox="0 0 56 65" fill="none" xmlns="http://www.w3.org/2000/svg">
<path d="M42.9024 42.5248V6.22955C42.9024 4.67554 42.2851 3.18516 41.1863 2.08631C40.0874 0.987449 38.597 0.370117 37.043 0.370117C35.489 0.370117 33.9986 0.987449 32.8998 2.08631C31.8009 3.18516 31.1836 4.67554 31.1836 6.22955V42.5248C28.9356 43.8158 27.1768 45.8131 26.1807 48.2064C25.1845 50.5997 25.0066 53.255 25.6747 55.7598C26.3428 58.2646 27.8194 60.4786 29.8751 62.0579C31.9309 63.6372 34.4507 64.4934 37.043 64.4934C39.6354 64.4934 42.1551 63.6372 44.2109 62.0579C46.2666 60.4786 47.7432 58.2646 48.4113 55.7598C49.0794 53.255 48.9015 50.5997 47.9053 48.2064C46.9092 45.8131 45.1505 43.8158 42.9024 42.5248ZM12.0896 22.1808H6.94554V15.572H0.338135V10.4307H6.94554V3.82328H12.0896V10.4307H18.6943V15.572H12.0896V22.1808ZM18.6943 41.9528H0.339493V36.81H18.6943V41.9528ZM55.7096 12.2323H45.094V9.94563H55.7096V12.2323ZM55.7096 17.3764H45.094V15.0897H55.7096V17.3764ZM55.7096 22.5205H45.094V20.2338H55.7096V22.5205ZM55.7096 27.6673H45.094V25.3779H55.7096V27.6673ZM55.7096 32.8114H45.094V30.5219H55.7096V32.8114ZM55.7096 37.9541H45.094V35.6687H55.7096V37.9541ZM37.0437 60.7695C35.096 60.7698 33.2142 60.0638 31.7474 58.7824C30.2805 57.5011 29.3279 55.7313 29.0663 53.8013C28.8047 51.8712 29.2518 49.9118 30.3247 48.2862C31.3976 46.6606 33.0235 45.4792 34.901 44.9609V25.6578H39.1877V44.9609C41.0651 45.4795 42.6907 46.6611 43.7633 48.2868C44.8359 49.9124 45.2828 51.8718 45.021 53.8018C44.7593 55.7317 43.8067 57.5013 42.3398 58.7826C40.873 60.0638 38.9913 60.7697 37.0437 60.7695Z" fill="#4FA600"/>
</svg>
