<svg width="64" height="69" viewBox="0 0 64 69" fill="none" xmlns="http://www.w3.org/2000/svg">
<path d="M60.9619 2.22128C59.3642 0.823683 57.2779 0.115987 55.1596 0.253103C53.0413 0.390219 51.0637 1.36098 49.6595 2.95289C49.2505 3.4123 48.0206 4.81791 39.8894 19.5652C39.5773 20.1307 39.1427 20.6192 38.6175 20.9951C38.0922 21.3709 37.4895 21.6245 36.8536 21.7373C36.2176 21.8501 35.5645 21.8192 34.942 21.647C34.3196 21.4748 33.7435 21.1655 33.256 20.7419L28.1217 16.2298C27.9038 16.0361 27.6496 15.8874 27.3738 15.7924C27.0981 15.6973 26.8063 15.6579 26.5152 15.6762C26.2241 15.6946 25.9395 15.7704 25.6779 15.8992C25.4163 16.0281 25.1828 16.2075 24.9908 16.4271L20.2282 21.8436L46.7302 45.1311L51.4871 39.719C51.8707 39.2754 52.0645 38.6989 52.0268 38.1137C51.9891 37.5285 51.7228 36.9816 51.2854 36.5909L46.1455 32.0789C45.6611 31.6516 45.2788 31.121 45.0268 30.5263C44.7748 29.9316 44.6595 29.2879 44.6895 28.6426C44.7126 27.9941 44.8839 27.3594 45.1902 26.7873C45.4965 26.2151 45.9297 25.7207 46.4565 25.3418C60.0561 15.3873 61.2932 13.9774 61.6921 13.5223C63.093 11.9265 63.8031 9.83974 63.6662 7.72065C63.5293 5.60157 62.5566 3.62354 60.9619 2.22128ZM57.9016 10.4461C57.4925 10.9122 56.9542 11.2464 56.3551 11.4064C55.7559 11.5664 55.1227 11.5449 54.5357 11.3448C53.9487 11.1447 53.4343 10.7748 53.0577 10.2822C52.681 9.78947 52.459 9.19609 52.4199 8.57716C52.3807 7.95822 52.5261 7.34159 52.8376 6.80534C53.1491 6.2691 53.6128 5.83736 54.1699 5.56482C54.7269 5.29228 55.3524 5.19118 55.9669 5.27434C56.5815 5.35751 57.1576 5.62118 57.6222 6.03197C57.931 6.30307 58.1832 6.63245 58.3644 7.00123C58.5457 7.37001 58.6523 7.77094 58.6783 8.18103C58.7042 8.59111 58.649 9.00229 58.5157 9.39098C58.3824 9.77967 58.1737 10.1382 57.9016 10.4461Z" fill="#4FA600"/>
<path d="M17.1676 25.3232L0.729459 44.0195C0.34191 44.4613 0.145478 45.0388 0.183279 45.6253C0.22108 46.2117 0.490025 46.7592 0.931082 47.1476L4.46814 50.2598C4.8561 50.5978 5.34907 50.791 5.86335 50.8068C6.37763 50.8225 6.88151 50.6598 7.28943 50.3462L13.9675 45.1429L9.70171 52.4863C9.44614 52.9296 9.35141 53.4476 9.43354 53.9527C9.51567 54.4578 9.76961 54.9191 10.1525 55.2586L17.8243 62.0015C18.1698 62.3063 18.6016 62.4963 19.0598 62.545C19.518 62.5938 19.98 62.499 20.382 62.2737L21.5874 61.5853L21.0805 62.9506C20.921 63.3716 20.8934 63.8312 21.0015 64.2683C21.1095 64.7054 21.3481 65.0992 21.6854 65.3974L24.0962 67.513C24.4691 67.8403 24.9415 68.0321 25.437 68.0574C25.866 68.0876 26.2941 67.9877 26.6655 67.7708C26.8761 67.65 27.0654 67.4953 27.2257 67.3128L43.6638 48.6137L17.1676 25.3232Z" fill="#4FA600"/>
</svg>
