<svg width="74" height="74" viewBox="0 0 74 74" fill="none" xmlns="http://www.w3.org/2000/svg">
<path d="M12.4629 25.9007L19.7782 38.4112L24.5474 35.6235L17.2235 23.0986C15.733 24.1875 14.1384 25.1261 12.4629 25.9007Z" fill="#4FA600"/>
<path d="M23.2969 17.0529L35.7846 24.4497L38.6009 19.6977L26.1175 12.3037C25.3359 13.9757 24.3911 15.5665 23.2969 17.0529Z" fill="#4FA600"/>
<path d="M25.6416 0.431641C25.6419 7.04869 23.0137 13.3949 18.335 18.0741C13.6563 22.7533 7.31041 25.3823 0.693359 25.3827V0.431641H25.6416Z" fill="#4FA600"/>
<path d="M0.693359 28.4924V42.8286H6.21596V27.9463C4.39749 28.3092 2.54769 28.4921 0.693359 28.4924Z" fill="#4FA600"/>
<path d="M28.7512 0.43307C28.7503 2.28784 28.5673 4.13805 28.2051 5.9571L43.1746 5.95567V0.431641L28.7512 0.43307Z" fill="#4FA600"/>
<path d="M0.699219 73.0389L73.3051 73.0432V0.431641L0.699219 73.0389ZM68.3686 53.2102H61.1634L66.8689 58.9143L64.7474 61.0359L56.9217 53.2102H53.4106V56.7199L61.2363 64.5456L59.1147 66.6657L53.4106 60.9615V68.1053H50.4112V60.9615L44.7085 66.6657L42.5884 64.5456L50.4112 56.7199V53.2102H46.9001L39.0772 61.0359L36.9543 58.9143L42.6598 53.2102H35.4546V50.2108H42.6613L36.9543 44.5067L39.0772 42.3866L46.9015 50.2108H50.4112V46.7026L42.5884 38.8754L44.7085 36.7553L50.4112 42.458V35.1942H53.4106V42.458L59.1147 36.7553L61.2363 38.8754L53.4106 46.7026V50.2108H56.9217L64.7474 42.3866L66.8689 44.5067L61.1634 50.2108H68.3686V53.2102Z" fill="#4FA600"/>
</svg>
