<svg width="78" height="72" viewBox="0 0 78 72" fill="none" xmlns="http://www.w3.org/2000/svg">
<path fill-rule="evenodd" clip-rule="evenodd" d="M0.433594 18.3108H9.5612L10.0379 26.3274H1.45219L0.433594 18.3108ZM27.7497 67.0923H6.35923L5.79034 62.7398H5.99851L3.39562 42.0313H10.9945L12.2817 62.7398H16.7692L15.4837 42.0313H23.7706L23.7389 51.7128H22.7521L22.9014 54.8451C22.9649 56.5135 23.2465 58.1666 23.7389 59.7626V62.7398H24.9068C25.6514 64.3126 26.6078 65.7769 27.7497 67.0923ZM60.5989 55.6206C60.1697 59.9839 58.0962 64.0231 54.7963 66.9245C51.4963 69.8259 47.215 71.374 42.8148 71.2568C38.4147 71.1396 34.2226 69.3659 31.083 66.2929C27.9434 63.22 26.0897 59.0762 25.8952 54.6963H57.2777L66.4943 28.9484L65.266 28.5036L72.0592 9.49023L77.5638 11.4576L70.7705 30.4662L69.7249 30.0832L60.5989 55.6206ZM51.0565 28.5036L49.6502 39.8265H2.07987L0.673543 28.5036H51.0565ZM14.0471 18.3108H23.8008V26.3274H14.527L14.0471 18.3108ZM28.2884 18.3108H37.9817L37.443 26.3274H28.2582L28.2884 18.3108ZM36.4546 42.0313L35.8285 51.7128H28.2296V42.0313H36.4546ZM42.4708 18.3108H51.2949L50.3081 26.3274H41.9305L42.4708 18.3108ZM48.3344 42.0313L47.1077 51.7128H40.316L40.9437 42.0313H48.3344Z" fill="#4FA600"/>
<path d="M18.7754 14.4676C18.8801 14.5713 18.9632 14.6945 19.02 14.8303C19.0767 14.9661 19.1061 15.1116 19.1062 15.2587C19.1064 15.4058 19.0774 15.5514 19.021 15.6873C18.9645 15.8232 18.8817 15.9466 18.7772 16.0505C18.6728 16.1545 18.5487 16.2369 18.4122 16.293C18.2758 16.349 18.1295 16.3778 17.9819 16.3774C17.8342 16.3771 17.6881 16.3478 17.5518 16.2911C17.4156 16.2344 17.2919 16.1515 17.1879 16.0472C14.7376 13.5718 15.8436 11.1011 16.9813 8.53708C17.8776 6.53967 18.7754 4.51535 17.1609 2.75693C17.06 2.64872 16.982 2.52132 16.9316 2.38237C16.8813 2.24342 16.8596 2.09578 16.8679 1.94829C16.8762 1.8008 16.9143 1.6565 16.98 1.52403C17.0456 1.39156 17.1374 1.27365 17.2499 1.17736C17.3554 1.07836 17.4796 1.00129 17.6154 0.950641C17.7511 0.899996 17.8956 0.876795 18.0404 0.882394C18.1852 0.887994 18.3275 0.922281 18.4589 0.983253C18.5903 1.04422 18.7081 1.13066 18.8056 1.23751C21.4371 4.06744 20.2103 6.80873 19.0424 9.43133C18.2065 11.2784 17.3993 13.0985 18.7754 14.4676ZM32.7767 14.4676C32.8808 14.5713 32.9634 14.6944 33.0198 14.8299C33.0761 14.9655 33.1051 15.1107 33.1051 15.2574C33.1051 15.404 33.0761 15.5493 33.0198 15.6848C32.9634 15.8203 32.8808 15.9434 32.7767 16.0472C32.6725 16.1509 32.5489 16.2331 32.4129 16.2893C32.2768 16.3454 32.131 16.3743 31.9837 16.3743C31.8365 16.3743 31.6906 16.3454 31.5546 16.2893C31.4185 16.2331 31.2949 16.1509 31.1908 16.0472C28.7071 13.5718 29.8147 11.1011 30.981 8.53708C31.8487 6.53967 32.7767 4.51535 31.159 2.75693C30.9567 2.53928 30.8495 2.25051 30.861 1.95413C30.8725 1.65776 31.0017 1.37806 31.2202 1.17657C31.4387 0.975085 31.7286 0.86831 32.0262 0.879738C32.3238 0.891165 32.6046 1.01986 32.8069 1.23751C35.4098 4.06744 34.183 6.80873 33.015 9.43133C32.1776 11.2784 31.4005 13.0985 32.7767 14.4676ZM26.225 14.4676C26.3291 14.5713 26.4117 14.6944 26.468 14.8299C26.5244 14.9655 26.5534 15.1107 26.5534 15.2574C26.5534 15.404 26.5244 15.5493 26.468 15.6848C26.4117 15.8203 26.3291 15.9434 26.225 16.0472C26.1208 16.1509 25.9972 16.2331 25.8611 16.2893C25.7251 16.3454 25.5793 16.3743 25.432 16.3743C25.2847 16.3743 25.1389 16.3454 25.0029 16.2893C24.8668 16.2331 24.7432 16.1509 24.6391 16.0472C22.1855 13.5718 23.2915 11.1011 24.4293 8.53708C25.3271 6.53967 26.225 4.51535 24.6089 2.75693C24.4066 2.53949 24.2993 2.25092 24.3106 1.95469C24.3219 1.65847 24.4509 1.37885 24.6693 1.17736C24.8876 0.975876 25.1773 0.869018 25.4747 0.880297C25.7721 0.891576 26.0528 1.02007 26.2551 1.23751C28.8564 4.06744 27.6583 6.80873 26.4649 9.43133C25.6577 11.2784 24.8488 13.0985 26.225 14.4676Z" fill="#4FA600"/>
</svg>
