<svg width="77" height="80" viewBox="0 0 77 80" fill="none" xmlns="http://www.w3.org/2000/svg">
<path d="M47.9516 73.0174C52.8852 69.9355 52.7139 65.108 50.947 60.4338C49.6842 57.0502 46.1504 50.2437 44.2889 46.7295C43.9314 47.098 43.5446 47.4368 43.1322 47.7426C45.072 51.4379 47.9467 57.0698 49.0724 60.0456C50.8181 64.7197 50.9894 69.5472 46.0558 72.6503C43.6634 73.889 40.9923 74.4908 38.2998 74.3976V74.7696C41.6176 75.1003 44.9617 74.4932 47.9516 73.0174Z" fill="#4FA600"/>
<path d="M70.6378 50.9958C71.1852 49.644 71.626 48.2513 71.9561 46.8307C72.7571 41.6622 72.6756 35.8705 70.6607 32.6614C67.5576 27.7245 62.7317 27.8779 58.0559 29.6432C55.0018 30.7868 49.1644 33.7789 45.4724 35.7204C46.2161 36.9116 46.6689 38.2612 46.7941 39.6599C46.9194 41.0587 46.7137 42.4672 46.1935 43.7717C52.1027 44.8713 55.78 52.0726 58.3578 55.1773C62.3647 60.0228 68.3342 56.5118 70.6378 50.9958Z" fill="#4FA600"/>
<path d="M38.2998 33.8818V35.5068C39.1989 35.5972 40.0561 35.9323 40.778 36.4759C39.992 36.1611 39.1338 36.0718 38.2998 36.2181V47.0201C39.9534 46.8908 41.4975 46.1427 42.6237 44.925C43.75 43.7073 44.3755 42.1096 44.3755 40.451C44.3755 38.7923 43.75 37.1946 42.6237 35.9769C41.4975 34.7592 39.9534 34.0111 38.2998 33.8818Z" fill="#4FA600"/>
<path d="M47.8651 59.8318C46.8112 57.0501 44.2351 51.955 42.3246 48.2744C41.0973 48.9907 39.7184 49.4077 38.2998 49.4915V74.1332C40.5889 74.0942 42.835 73.505 44.8485 72.4153C49.7821 69.3302 49.6092 64.5059 47.8651 59.8318Z" fill="#4FA600"/>
<path d="M71.2652 29.5573C68.1621 24.6253 63.3363 24.7967 58.6588 26.5391C54.9032 27.9666 46.8421 32.1986 43.8728 33.7795C44.2547 34.1304 44.6062 34.513 44.9235 34.9232C48.5127 33.0307 55.0109 29.678 58.2934 28.4381C62.9692 26.6696 67.7951 26.5211 70.8769 31.4531C73.0076 34.8302 73.006 41.0673 72.0532 46.4202C73.3616 40.7035 73.6341 33.3521 71.2652 29.5573Z" fill="#4FA600"/>
<path d="M72.9439 23.5267C69.5585 16.4096 64.1074 10.4776 57.3013 6.50391L56.5264 7.81724C57.1724 8.1419 57.7973 8.48614 58.4221 8.85322C64.4926 12.3515 69.5089 17.4201 72.9439 23.5267Z" fill="#4FA600"/>
<path d="M38.2998 1.28446C39.6605 1.296 41.0195 1.38424 42.3703 1.54876C41.0214 1.34795 39.6626 1.22051 38.2998 1.16699V1.28446Z" fill="#4FA600"/>
<path d="M38.2998 5.1025V31.4034C39.5521 31.4785 40.775 31.8135 41.8907 32.3872C42.2496 25.8385 50.1149 21.8593 53.4252 19.1299C58.2511 15.1246 54.7613 9.15508 49.2225 6.84818C47.9117 6.31899 46.5623 5.89084 45.1862 5.56747C42.9103 5.1978 40.6048 5.04213 38.2998 5.1025Z" fill="#4FA600"/>
<path d="M75.3146 40.3945C75.2853 50.3907 71.436 59.9976 64.5547 67.2483C57.6734 74.4989 48.2808 78.8449 38.2998 79.3965V79.6102C48.5756 79.385 58.3589 75.1629 65.5718 67.8406C72.7848 60.5183 76.8592 50.6726 76.9298 40.3945H75.3146Z" fill="#4FA600"/>
<path d="M38.2998 4.85395C40.5018 4.88071 42.6975 5.09466 44.8632 5.49348C42.7056 4.9935 40.5103 4.67265 38.2998 4.53418V4.85395Z" fill="#4FA600"/>
<path d="M30.5513 6.76512C30.5513 6.75207 30.5448 6.73576 30.5448 6.72434C30.4623 5.15975 29.7779 3.68768 28.6349 2.61612C27.4919 1.54455 25.9787 0.956515 24.4121 0.975034H0.527344V79.7571H24.4121C26.02 79.7774 27.5703 79.1591 28.7231 78.0379C29.8758 76.9166 30.5368 75.384 30.5611 73.7762V6.95437C30.5611 6.88912 30.5513 6.82875 30.5513 6.76512ZM19.7298 76.1173H3.99585V58.3751C5.39704 57.8768 6.87288 57.6208 8.36004 57.6181C11.736 57.5773 14.9902 58.8771 17.4092 61.2324C19.8281 63.5877 21.2141 66.8062 21.2633 70.182C21.2611 72.2581 20.7335 74.2999 19.7298 76.1173ZM26.8169 73.7762C26.8073 74.4052 26.5489 75.0047 26.0981 75.4435C25.6474 75.8824 25.0411 76.1246 24.4121 76.1173H23.8329C24.6047 74.2337 25.0015 72.2176 25.001 70.182C24.9376 65.828 23.1501 61.6768 20.0307 58.6387C16.9112 55.6005 12.7142 53.9234 8.36004 53.975C6.88597 53.9787 5.41874 54.1756 3.99585 54.5607V40.9705C4.94811 40.8614 5.90551 40.8031 6.86398 40.796C7.10731 40.803 7.34958 40.7612 7.57646 40.673C7.80334 40.5847 8.01021 40.4519 8.18482 40.2823C8.35943 40.1126 8.49824 39.9097 8.59303 39.6855C8.68782 39.4613 8.73666 39.2203 8.73666 38.9769C8.73666 38.7334 8.68782 38.4925 8.59303 38.2683C8.49824 38.044 8.35943 37.8411 8.18482 37.6715C8.01021 37.5019 7.80334 37.369 7.57646 37.2808C7.34958 37.1926 7.10731 37.1507 6.86398 37.1578C5.89815 37.1578 4.94374 37.2182 3.99585 37.3063V25.4814C4.89316 25.4145 5.79373 25.3704 6.70572 25.3704C13.7263 25.3705 20.637 27.1146 26.8169 30.4459V73.7762ZM26.8169 26.3167C20.5442 23.2923 13.6694 21.7241 6.70572 21.729C5.79536 21.729 4.89316 21.7698 3.99585 21.8285V5.51542C4.3613 5.21359 4.73817 4.92972 5.09709 4.61648H24.4121C24.8689 4.61434 25.3169 4.74201 25.7039 4.98464C26.091 5.22726 26.4011 5.57484 26.5982 5.98691C20.751 9.87098 13.8837 11.9347 6.86398 11.9173C6.62077 11.911 6.37876 11.9534 6.15221 12.0421C5.92566 12.1308 5.71916 12.2639 5.5449 12.4337C5.37064 12.6035 5.23214 12.8064 5.13758 13.0306C5.04301 13.2547 4.99429 13.4956 4.99429 13.7388C4.99429 13.9821 5.04301 14.223 5.13758 14.4471C5.23214 14.6713 5.37064 14.8742 5.5449 15.044C5.71916 15.2138 5.92566 15.3469 6.15221 15.4356C6.37876 15.5243 6.62077 15.5667 6.86398 15.5604C13.8753 15.578 20.7639 13.7215 26.8169 10.1831V26.3167Z" fill="#4FA600"/>
<path d="M12.422 41.3542C15.8688 42.043 19.15 43.3914 22.0852 45.3252C22.3958 45.5275 22.7587 45.6346 23.1294 45.6335C23.4339 45.6362 23.7345 45.5648 24.0053 45.4255C24.2762 45.2863 24.5091 45.0833 24.6842 44.8341C24.8212 44.6367 24.917 44.4138 24.9659 44.1785C25.0148 43.9433 25.0157 43.7006 24.9687 43.465C24.9216 43.2294 24.8275 43.0057 24.692 42.8073C24.5565 42.6089 24.3824 42.4398 24.1801 42.3102C20.8396 40.1089 17.1061 38.5723 13.1839 37.7845C12.7033 37.683 12.2021 37.7746 11.7884 38.0396C11.3748 38.3046 11.082 38.7216 10.9733 39.2006C10.9257 39.4373 10.9256 39.681 10.9728 39.9177C11.02 40.1544 11.1137 40.3794 11.2484 40.5796C11.3831 40.7799 11.5562 40.9515 11.7577 41.0844C11.9591 41.2174 12.1849 41.309 12.422 41.3542Z" fill="#4FA600"/>
</svg>
