<svg width="92" height="86" viewBox="0 0 92 86" fill="none" xmlns="http://www.w3.org/2000/svg">
<path d="M91.8796 63.9453H0.263916V85.474H91.8796V63.9453Z" fill="#4FA600"/>
<path fill-rule="evenodd" clip-rule="evenodd" d="M81.6361 40.2739L79.6674 37.6016L45.681 59.8491L26.2096 47.1004L29.5869 42.517L21.9688 41.92L14.3545 41.323L17.6138 47.8369L20.8674 54.3561L24.241 49.7745L45.6248 63.7737L45.681 63.696L45.7391 63.7737L81.6361 40.2739Z" fill="#4FA600"/>
<path d="M46.8804 0L32.7269 19.69C30.9534 22.122 29.9184 24.9647 29.7336 27.911C29.5488 30.8573 30.2213 33.7952 31.6784 36.4073C33.1355 39.0195 35.3218 41.2066 38.0012 42.7323C40.6806 44.2581 43.7512 45.0645 46.8813 45.0645C50.0114 45.0645 53.082 44.2581 55.7614 42.7323C58.4408 41.2066 60.6271 39.0195 62.0843 36.4073C63.5414 33.7952 64.2138 30.8573 64.0291 27.911C63.8443 24.9647 62.8092 22.122 61.0358 19.69L46.8804 0ZM46.8804 13.4605L54.4029 23.9272L54.4161 23.9467L54.431 23.9679C55.3795 25.2656 55.9336 26.7831 56.0337 28.3563C56.1338 29.9295 55.7759 31.4986 54.9987 32.8939C54.2216 34.2892 53.0548 35.4577 51.6244 36.2731C50.194 37.0884 48.5544 37.5196 46.883 37.52C45.2116 37.5203 43.5718 37.0899 42.141 36.2753C40.7102 35.4606 39.5427 34.2927 38.7649 32.8977C37.987 31.5028 37.6283 29.9339 37.7275 28.3606C37.8267 26.7873 38.3801 25.2696 39.3278 23.9714L39.3447 23.9502L39.3597 23.9272L46.8804 13.4605Z" fill="#4FA600"/>
</svg>
