<svg width="87" height="83" viewBox="0 0 87 83" fill="none" xmlns="http://www.w3.org/2000/svg">
<path d="M73.765 55.7292C71.0139 55.7564 68.3775 56.8357 66.397 58.7454C65.416 59.8129 64.5051 60.9427 63.6699 62.1278L60.5317 66.4455L60.5353 66.4527L58.4527 69.3198C58.2427 69.6107 57.9734 69.9626 57.8674 70.0882C57.3721 70.6214 56.7716 71.046 56.1038 71.3352C55.436 71.6245 54.7155 71.7721 53.9877 71.7687C53.1204 71.7688 52.2662 71.5567 51.4996 71.1509C50.733 70.7451 50.0774 70.1579 49.5899 69.4405C49.1024 68.7231 48.7979 67.8973 48.7029 67.0352C48.6078 66.1731 48.7252 65.3008 49.0447 64.4944C49.3642 63.6881 49.8762 62.9721 50.536 62.4091C51.1957 61.846 51.9832 61.453 52.8298 61.2642C53.6763 61.0754 54.5562 61.0966 55.3927 61.326C56.2292 61.5554 56.9968 61.986 57.6287 62.5802C58.4206 63.3457 59.0924 64.2264 59.6215 65.1924L62.9626 60.5856L62.7453 60.2876C62.3138 59.6969 61.8366 59.141 61.318 58.6251C59.776 57.1806 57.8415 56.224 55.7575 55.8754C53.6736 55.5268 51.533 55.8018 49.6048 56.6658C47.6766 57.5298 46.0467 58.9442 44.9198 60.7315C43.7928 62.5188 43.2192 64.5993 43.2708 66.7116C43.3224 68.8239 43.997 70.8738 45.2099 72.6039C46.4228 74.3341 48.1198 75.6672 50.0879 76.436C52.056 77.2048 54.2074 77.3748 56.2719 76.9249C58.3363 76.4749 60.2218 75.425 61.6915 73.9069C62.1059 73.4647 62.4869 72.9925 62.8315 72.494L69.3503 63.5138C69.5757 63.2056 69.8172 62.9095 70.0738 62.6269C70.5407 62.1211 71.1139 61.7251 71.7521 61.4674C72.3904 61.2098 73.0779 61.0968 73.765 61.1368C74.644 61.1363 75.5094 61.3538 76.2837 61.7698C77.058 62.1858 77.7171 62.7873 78.202 63.5204C78.6868 64.2536 78.9823 65.0956 79.062 65.9709C79.1416 66.8463 79.003 67.7278 78.6585 68.5364C78.3139 69.345 77.7742 70.0556 77.0877 70.6046C76.4012 71.1535 75.5893 71.5236 74.7247 71.6819C73.8601 71.8401 72.9697 71.7814 72.1333 71.5111C71.2969 71.2408 70.5406 70.7674 69.932 70.1331L69.8871 70.0882C69.2493 69.3357 68.6621 68.5416 68.1295 67.7112L64.7884 72.3109L64.9195 72.494C65.2652 72.9916 65.6462 73.4638 66.0595 73.9069C67.5448 75.4408 69.4541 76.4964 71.543 76.9384C73.6319 77.3805 75.8052 77.1889 77.7845 76.3882C79.7639 75.5876 81.4591 74.2142 82.6532 72.4442C83.8472 70.6741 84.4856 68.5879 84.4867 66.4527C84.4833 63.61 83.3526 60.8847 81.3427 58.8745C79.3328 56.8643 76.6077 55.7332 73.765 55.7292Z" fill="#4FA600"/>
<path d="M82.8334 38.2605C82.2289 30.2345 79.2957 22.5593 74.3934 16.1758C69.4911 9.79226 62.8326 4.97788 55.2344 2.32283C47.6362 -0.332208 39.4284 -0.712523 31.6172 1.22851C23.806 3.16955 16.7309 7.34759 11.2593 13.2504C5.78767 19.1532 2.15728 26.5244 0.813201 34.4601C-0.530879 42.3958 0.469759 50.5512 3.69244 57.9266C6.91513 65.302 12.2198 71.5769 18.9562 75.9818C25.6925 80.3868 33.5678 82.7305 41.6165 82.7256V75.0919C35.0752 75.0988 28.673 73.2038 23.1894 69.6375C17.7058 66.0712 13.3773 60.9876 10.731 55.0054C8.08476 49.0233 7.23481 42.4009 8.28468 35.9444C9.33456 29.4879 12.239 23.4759 16.6443 18.6405C21.0496 13.805 26.7657 10.3547 33.0968 8.70955C39.4278 7.06443 46.1006 7.29549 52.3027 9.37461C58.5047 11.4537 63.9685 15.2912 68.0288 20.4198C72.0891 25.5484 74.5706 31.7469 75.1714 38.2605H71.3026L79.0333 51.6231L86.7658 38.2605H82.8334Z" fill="#4FA600"/>
<path d="M30.9511 55.5994L27.3586 51.9944L39.0713 40.3212V15.3662H44.1611V42.4361L30.9511 55.5994Z" fill="#4FA600"/>
</svg>
