<svg width="87" height="86" viewBox="0 0 87 86" fill="none" xmlns="http://www.w3.org/2000/svg">
<path d="M38.8618 49.3772L38.8779 49.3843L38.8832 49.3878L38.8618 49.3772ZM48.7009 45.8862L48.6991 45.888L48.6974 45.8933L48.7009 45.8862ZM43.9104 36.396L43.9282 36.3978C43.9432 36.3989 43.958 36.4006 43.9728 36.4032L43.9104 36.396ZM49.0498 41.6529C49.2227 42.3589 49.2882 43.0869 49.2439 43.8123C49.1951 44.5324 49.0103 45.2367 48.6991 45.888C48.3358 46.8027 47.7914 47.6347 47.0988 48.334C46.9243 48.5138 46.7481 48.674 46.57 48.8378C46.3854 49.0059 46.1904 49.1623 45.9861 49.306C45.5771 49.593 45.1333 49.8269 44.6652 50.002C43.7205 50.3592 42.7074 50.4991 41.7012 50.4114C40.6865 50.3218 39.713 49.9676 38.8779 49.3843C38.1183 48.9207 37.4553 48.3151 36.925 47.6005C36.3855 46.8931 36.0716 46.0395 36.0242 45.151V45.1617C35.9726 44.8715 35.9406 44.5796 35.9156 44.2876C35.8922 43.9957 35.8856 43.7027 35.896 43.41C35.8978 42.9916 35.8604 42.568 35.8533 42.1425C35.83 41.7075 35.8967 41.2724 36.0491 40.8643C36.2666 40.0607 36.6462 39.3101 37.1645 38.6586C37.6828 38.0072 38.3289 37.4686 39.063 37.0761C39.8092 36.6807 40.6212 36.4244 41.4591 36.3195C42.2808 36.2074 43.1154 36.2339 43.9282 36.3978C44.2189 36.4077 44.5077 36.4483 44.7899 36.5189C44.9333 36.5537 45.0748 36.5965 45.2135 36.6471C45.3595 36.6969 45.4948 36.7539 45.6141 36.8055C45.8813 36.927 46.1379 37.0705 46.3813 37.2345C46.6209 37.3955 46.8482 37.574 47.0614 37.7686L47.0881 37.7917L47.1023 37.8095C47.5546 38.375 47.95 38.9838 48.2826 39.6271C48.6168 40.27 48.8743 40.9499 49.0498 41.6529ZM48.8718 43.7981C48.8666 43.1172 48.7543 42.4413 48.5389 41.7954C48.3307 41.1476 48.0538 40.5239 47.7129 39.9351C47.3764 39.3565 46.9923 38.8069 46.5647 38.292C46.3788 38.1336 46.1826 37.9879 45.9772 37.8558C45.7668 37.7252 45.5466 37.6109 45.3186 37.514C45.1904 37.4606 45.0747 37.4179 44.9643 37.3823C44.8468 37.3467 44.7276 37.3146 44.6065 37.2879C44.3684 37.2348 44.1258 37.2038 43.882 37.1954L43.8535 37.1936L43.8197 37.1882C43.0731 37.0449 42.3094 37.0131 41.5535 37.0939C40.7996 37.1794 40.0638 37.3824 39.3728 37.6956C38.672 38.0076 38.0333 38.4436 37.4875 38.9827C36.9373 39.5387 36.5098 40.204 36.2325 40.9355L36.2289 40.9444C36.0508 41.3185 35.9601 41.7282 35.9637 42.1425C35.953 42.5626 35.9868 42.9881 35.969 43.4135C35.9547 43.9927 36.0151 44.5713 36.1488 45.135V45.1421C36.2544 45.9785 36.6264 46.7587 37.2098 47.3673C37.7814 47.9699 38.4499 48.4723 39.1876 48.8538L39.209 48.8662C39.9892 49.3441 40.8638 49.6471 41.7724 49.7546C42.6915 49.8764 43.6258 49.8116 44.5193 49.5641C44.9679 49.4376 45.3986 49.2545 45.801 49.0193C46.0052 48.9029 46.1987 48.7689 46.3796 48.6188C46.5629 48.4657 46.7498 48.3126 46.9207 48.1542C47.6129 47.5 48.141 46.6919 48.4624 45.7954V45.7919L48.4659 45.7865C48.7383 45.1592 48.8765 44.4819 48.8718 43.7981ZM51.373 41.0406C51.5665 41.7954 51.6781 42.5689 51.7059 43.3477C51.7682 44.9211 51.4385 46.4853 50.7464 47.8996C50.3887 48.6098 49.9386 49.2694 49.4077 49.8614C48.879 50.4484 48.2901 50.9783 47.6506 51.4422C46.3652 52.4088 44.8234 52.9754 43.218 53.071L43.1841 53.0728L43.1663 53.0693C42.7142 52.9892 42.262 52.8984 41.8152 52.788C41.3683 52.6812 40.9197 52.5566 40.4871 52.4124C39.6198 52.1146 38.776 51.7523 37.9628 51.3282L37.9611 51.3247H37.9593C37.6135 51.1044 37.2796 50.8661 36.9588 50.6108C36.6395 50.3562 36.3347 50.084 36.0456 49.7955C35.5923 49.3597 35.1788 48.8843 34.8101 48.3749L34.8084 48.3696L34.8048 48.3642C34.6303 47.9655 34.4327 47.5756 34.2369 47.184C34.0322 46.7933 33.848 46.3922 33.6851 45.9823C33.5196 45.5631 33.402 45.1266 33.3344 44.681C33.272 44.2299 33.2847 43.7716 33.3717 43.3245C33.3659 42.5282 33.4978 41.7368 33.7616 40.9854C34.0019 40.2323 34.2992 39.5132 34.5396 38.7993L34.5502 38.7673L34.5716 38.7317C34.801 38.3271 35.063 37.9419 35.3549 37.5799C35.5009 37.3983 35.6557 37.2256 35.8231 37.0512C35.994 36.8803 36.1435 36.745 36.3162 36.5776C37.0058 35.9632 37.7782 35.4484 38.6108 35.0485C39.006 34.8491 39.4279 34.6426 39.8285 34.4681L39.905 34.4343L39.9673 34.4022L40.1276 34.3257C40.2361 34.2776 40.3465 34.2296 40.4569 34.1886C40.6801 34.1031 40.9092 34.0335 41.1423 33.9803C42.0404 33.8155 42.953 33.7427 43.8659 33.7632L43.9051 33.7614L43.9371 33.7667C45.3585 34.0479 46.6756 34.7135 47.745 35.6911C48.7651 36.6522 49.6952 37.7045 50.5238 38.8349L50.5363 38.8491L50.5399 38.8598C50.8954 39.5546 51.1747 40.2857 51.373 41.0406ZM51.4655 43.353C51.4297 41.8325 51.0227 40.3437 50.2799 39.0165C49.4195 37.9528 48.4592 36.974 47.4121 36.0934C46.8874 35.6748 46.3178 35.316 45.7138 35.0235C45.1213 34.7485 44.4943 34.555 43.8499 34.4485C43.0004 34.448 42.1529 34.5327 41.3203 34.7013C41.1209 34.7514 40.9252 34.815 40.7346 34.8918C40.6385 34.9292 40.5441 34.9737 40.4498 35.0164L40.3145 35.0858L40.2255 35.1303L40.1507 35.1677C39.743 35.3564 39.3728 35.5505 38.9776 35.757C38.2075 36.1286 37.4933 36.6062 36.8556 37.1758C36.706 37.3146 36.5227 37.4748 36.3785 37.619C36.2307 37.7643 36.0905 37.917 35.9584 38.0765C35.6905 38.399 35.4483 38.7418 35.2338 39.1019C34.9668 39.83 34.6553 40.5154 34.39 41.2061C34.1015 41.8926 33.9219 42.62 33.8577 43.3619V43.4046L33.8524 43.4207C33.7406 43.8182 33.6943 44.2312 33.7153 44.6437C33.7459 45.0676 33.8241 45.4869 33.9485 45.8933C34.077 46.3069 34.2274 46.7133 34.3989 47.111C34.5698 47.5097 34.7496 47.9049 34.9098 48.3126C35.259 48.8265 35.6573 49.3052 36.099 49.7421C36.3898 50.025 36.6959 50.2918 37.0158 50.5414C37.3348 50.7883 37.6716 51.0114 38.0234 51.209C38.8435 51.5878 39.6977 51.8882 40.5744 52.1062C41.4383 52.3147 42.3166 52.4587 43.2019 52.537C44.6706 52.336 46.0661 51.7725 47.2625 50.8974C47.5652 50.682 47.8607 50.4542 48.1455 50.2121C48.2879 50.0892 48.425 49.9664 48.5621 49.8364C48.7116 49.6976 48.8398 49.5819 48.9733 49.4484C49.5044 48.9226 49.9635 48.3288 50.3387 47.6824C51.1019 46.369 51.4915 44.8719 51.4655 43.353ZM56.5925 40.1772C56.6467 40.9699 56.6574 41.7651 56.6245 42.5591L56.6085 43.143L56.6121 43.7375C56.6156 44.131 56.6067 44.5297 56.5889 44.9303L56.5907 44.9142C56.6342 46.8777 56.1733 48.8194 55.252 50.5539C54.3295 52.2942 52.9566 53.7549 51.2769 54.7836C50.8852 55.0755 50.4793 55.3461 50.0592 55.6007C49.648 55.8446 49.1976 56.0849 48.7579 56.2896C48.5336 56.3929 48.3111 56.4926 48.0921 56.5851C47.8838 56.6759 47.6577 56.7899 47.4423 56.8895C47.0026 57.096 46.5594 57.299 46.1072 57.4841C45.2051 57.8824 44.2408 58.1215 43.2571 58.1909C42.2695 58.2354 41.2935 57.9635 40.4711 57.4147C39.8463 57.2278 39.193 57.1245 38.5521 56.9768C37.8983 56.8542 37.2781 56.5939 36.7327 56.2131C35.4918 55.6336 34.3402 54.8794 33.313 53.9736C32.7953 53.5224 32.3071 53.0383 31.8515 52.5245C31.4135 52.0118 30.981 51.4902 30.5733 50.9491C30.0616 50.5829 29.6232 50.124 29.2809 49.5961C28.9351 49.061 28.6728 48.4763 28.5029 47.8622C28.1705 46.6459 28.1194 45.3699 28.3534 44.131C28.3375 43.3942 28.3643 42.6572 28.4335 41.9235C28.5162 41.1751 28.6537 40.4338 28.8447 39.7054C29.2347 38.2501 29.8504 36.8649 30.6694 35.6003C31.5155 34.3517 32.5628 33.2521 33.7687 32.3461C34.9377 31.4439 36.2389 30.7276 37.6264 30.2224C37.817 29.9745 38.0317 29.7461 38.2673 29.5406C38.4035 29.4247 38.5474 29.3182 38.6981 29.2219C38.8334 29.1365 38.9829 29.0385 39.1342 28.9567C39.7422 28.6082 40.4154 28.3888 41.112 28.3122C41.8045 28.2486 42.5028 28.3169 43.1699 28.5134C43.814 28.7049 44.4368 28.962 45.0284 29.2807C45.4948 29.4622 45.9541 29.6634 46.4063 29.8735L46.3813 29.8646C47.2161 30.1495 48.0288 30.4952 48.8131 30.8988C49.5891 31.3028 50.3438 31.7466 51.0739 32.2286C51.8162 32.6968 52.5263 33.2142 53.1995 33.7774C53.8747 34.3477 54.4625 35.0141 54.944 35.7552L54.9369 35.7445C55.4328 36.375 55.8274 37.0789 56.1065 37.8309C56.3725 38.5878 56.536 39.3769 56.5925 40.1772ZM56.3112 40.1932C56.2796 39.4163 56.1351 38.6481 55.8822 37.9128C55.622 37.18 55.2411 36.4959 54.7553 35.8887L54.7518 35.8851L54.7482 35.8816C53.7401 34.4782 52.4273 33.3212 50.9084 32.4974C50.1724 32.0451 49.4136 31.631 48.6351 31.2567C47.858 30.8895 47.0547 30.5807 46.2318 30.3327L46.2247 30.331L46.2069 30.3238C45.7476 30.128 45.283 29.9464 44.8183 29.7862L44.8077 29.7827L44.7899 29.7738C44.2209 29.4901 43.6259 29.2618 43.0132 29.092C42.4189 28.9294 41.7989 28.8823 41.1868 28.9531C40.5818 29.0374 39.9996 29.2414 39.4742 29.553C39.3354 29.6313 39.2125 29.7115 39.0737 29.8022C38.9512 29.8843 38.834 29.974 38.723 30.0711C38.4968 30.2703 38.2916 30.4922 38.1106 30.7333L38.0483 30.817L37.9504 30.8561C35.274 31.8802 32.9695 33.689 31.3388 36.0454C30.5667 37.2433 29.9769 38.5494 29.5889 39.9208C29.2229 41.3027 29.0392 42.7264 29.0423 44.1559V44.1968L29.0352 44.2289C28.7744 45.3803 28.769 46.5749 29.0192 47.7287C29.2483 48.894 29.8758 49.9432 30.794 50.6963L30.8154 50.7159L30.8296 50.7337C31.2124 51.2944 31.6183 51.8374 32.033 52.3732C32.4529 52.9055 32.9142 53.4037 33.4127 53.8632C34.4046 54.7936 35.5356 55.5636 36.7648 56.1454L36.7701 56.1472L36.7719 56.149C37.3123 56.5219 37.9268 56.7739 38.5735 56.8878C39.2108 57.0355 39.8659 57.1103 40.5103 57.2847L40.5192 57.2865L40.5281 57.2936C41.3366 57.803 42.292 58.0279 43.2429 57.9327C44.1848 57.8204 45.0999 57.5445 45.947 57.1174C46.3813 56.9162 46.805 56.6937 47.2305 56.4659C47.4459 56.3537 47.6453 56.2398 47.8767 56.1258C48.0939 56.019 48.3075 55.9104 48.5176 55.7983C48.9377 55.5704 49.34 55.3497 49.7512 55.0862C50.1429 54.8316 50.5274 54.5539 50.8995 54.2638L50.9084 54.2566L50.9262 54.246C52.4914 53.2438 53.7832 51.8687 54.6859 50.2441C55.5999 48.6137 56.0976 46.783 56.135 44.9142V44.8982C56.167 44.5119 56.1902 44.1203 56.2044 43.7304L56.2222 43.1412L56.2631 42.5413C56.329 41.7604 56.345 40.9761 56.3112 40.1932ZM61.3563 53.0639C60.99 53.9918 60.4042 54.8171 59.6491 55.469L59.6597 55.4601C59.5138 55.6043 59.3625 55.7449 59.2094 55.882C59.058 56.0101 58.9032 56.1276 58.7447 56.2451C58.0168 57.0641 57.2391 57.8376 56.4162 58.5611C56.0335 58.9225 55.6027 59.3088 55.1755 59.6524C54.75 60.0031 54.3014 60.336 53.8421 60.6511C52.9201 61.2853 51.9485 61.8443 50.9368 62.3227C49.9258 62.7768 48.8905 63.175 47.8358 63.5154L47.8251 63.519L47.7752 63.5296C47.4245 63.6204 47.0667 63.7308 46.7071 63.8554L46.1713 64.0441C46.0235 64.1029 45.8597 64.1794 45.6871 64.2631C45.2962 64.4681 44.8859 64.6339 44.4623 64.758C43.9316 64.9051 43.3678 64.8789 42.853 64.6832L43.0951 64.7348C42.477 64.7136 41.8731 64.5439 41.3345 64.2399L41.5001 64.3094C41.0824 64.2028 40.6585 64.1225 40.2308 64.069C39.7786 64.0067 39.3033 63.9426 38.8262 63.8572C38.3598 63.77 37.8738 63.6649 37.4145 63.551C36.9499 63.4353 36.4871 63.2964 36.0296 63.1433L36.1115 63.1665C35.0568 62.9236 34.0417 62.5335 33.0958 62.0076C32.1952 61.51 31.3282 60.954 30.5003 60.3431C30.1917 60.205 29.8931 60.0455 29.6067 59.866C29.2915 59.6611 28.9884 59.4382 28.6988 59.1984C28.1466 58.7268 27.6378 58.2067 27.1785 57.6443C26.73 57.0953 26.3099 56.5237 25.9199 55.9318C25.7294 55.6434 25.5372 55.3443 25.3574 55.0524C25.2488 54.8797 25.1758 54.7533 25.0868 54.6002L24.8215 54.1534C24.102 52.942 23.4999 51.6645 23.0235 50.3385C22.5605 49.0235 22.233 47.6647 22.0462 46.2832C21.8026 45.6222 21.6272 44.938 21.5228 44.2413C21.4107 43.5178 21.3767 42.7843 21.4214 42.0535C21.5089 40.6052 21.9358 39.1978 22.6675 37.9448C22.7903 37.5211 22.9244 37.101 23.0698 36.6844C23.2229 36.2483 23.3885 35.8246 23.5701 35.3991C23.6573 35.1891 23.757 34.9772 23.8513 34.769C23.9475 34.5696 24.0507 34.3577 24.154 34.153L24.7824 32.9478L24.7948 32.9176L24.8091 32.9015C25.1313 32.4974 25.4357 32.0773 25.7276 31.6483C26.1563 30.6064 26.7792 29.6555 27.563 28.8463C28.3529 28.0314 29.2623 27.3417 30.26 26.8009L30.2351 26.8169C30.7335 26.4466 31.2533 26.0977 31.7785 25.7701C32.3036 25.4408 32.8537 25.1453 33.3878 24.8409C33.9307 24.5347 34.4915 24.2534 35.0576 24.0024L36.6971 23.301C36.9525 22.9902 37.2322 22.7003 37.5338 22.4341C37.9823 21.9374 38.5495 21.5625 39.1823 21.3446C39.8262 21.144 40.5072 21.0917 41.1743 21.1915C42.3716 21.4224 43.5489 21.7468 44.6955 22.1617C45.1637 22.1902 45.6265 22.2258 46.0983 22.281C46.5665 22.3397 47.0667 22.4145 47.5438 22.507C48.5052 22.6961 49.4531 22.9483 50.3814 23.2618C50.6128 23.342 50.846 23.4292 51.0793 23.5235L51.4104 23.6606L51.7504 23.8101C52.1883 24.0042 52.628 24.2018 53.0677 24.4154C53.2885 24.5222 53.5021 24.629 53.7282 24.7501C53.9631 24.8711 54.1412 24.9726 54.3726 25.1115C54.8008 25.3687 55.215 25.6486 55.6134 25.9499L55.5689 25.9214C56.1801 26.3136 56.7466 26.7714 57.2583 27.2868C57.7571 27.7976 58.2127 28.349 58.6201 28.9353C59.409 30.0906 60.0692 31.3286 60.589 32.6274L60.5659 32.5829C61.2814 33.9062 61.8537 35.302 62.2731 36.7467C62.4796 37.4659 62.6469 38.194 62.7804 38.9293C62.9157 39.6645 62.9887 40.3979 63.1525 41.1011L63.1418 41.069C63.4109 41.6355 63.5617 42.251 63.5851 42.8777C63.5961 43.4934 63.5273 44.1079 63.3803 44.706C63.2504 45.3041 63.0777 45.8844 62.8979 46.4683C62.7021 47.0362 62.5721 47.6272 62.4173 48.2147C62.252 48.8852 62.0517 49.5465 61.8173 50.196C61.8584 51.1733 61.7016 52.1488 61.3563 53.0639ZM61.1195 52.966C61.4965 52.0877 61.6752 51.1371 61.6429 50.1818L61.6411 50.1622L61.6464 50.148C61.8893 49.5021 62.0997 48.8443 62.2766 48.1773C62.4208 47.5916 62.5472 46.9953 62.7377 46.4149C62.9086 45.8417 63.0741 45.256 63.197 44.6686C63.3186 44.0853 63.3629 43.4886 63.3287 42.8937C63.2916 42.3071 63.1276 41.7356 62.8481 41.2186L62.8427 41.2079L62.8356 41.1865C62.6202 40.4638 62.5045 39.7303 62.3282 39.0236C62.1586 38.3158 61.9457 37.619 61.6909 36.9372C61.188 35.5782 60.5404 34.2771 59.7594 33.0564L59.7541 33.0475L59.7363 33.0119C59.1624 31.8194 58.4731 30.686 57.6784 29.6278C57.2854 29.1129 56.8508 28.6312 56.3789 28.1876C55.9216 27.7473 55.4192 27.3564 54.8799 27.0216L54.8604 27.0127L54.8337 26.9913C54.093 26.4629 53.3079 25.9995 52.4874 25.6063C51.6543 25.2076 50.7748 24.7946 49.9399 24.4884C49.0736 24.1675 48.1869 23.9046 47.2857 23.7016C46.8317 23.5983 46.3956 23.5075 45.9238 23.4274C45.4752 23.3544 45.0124 23.2939 44.5513 23.2494L44.4748 23.2405L44.4285 23.2245C43.8268 23.018 43.266 22.7812 42.707 22.5711C42.1672 22.3554 41.6089 22.1892 41.039 22.0745C40.502 21.9616 39.9464 21.9713 39.4137 22.1029C38.887 22.2564 38.4079 22.5412 38.0216 22.9307L38.002 22.9503L37.9949 22.9574C37.6787 23.2026 37.3844 23.4748 37.1155 23.771L37.0585 23.8351L36.9962 23.8582C36.4159 24.0736 35.8391 24.2819 35.2765 24.5115C34.7104 24.743 34.1622 24.9957 33.6245 25.277C32.5379 25.8306 31.4947 26.4656 30.5039 27.1765L30.4896 27.1872L30.4754 27.1943C29.5206 27.7141 28.6528 28.3795 27.903 29.1667C27.16 29.9512 26.5819 30.8768 26.2029 31.8886L26.194 31.9135L26.1762 31.942C25.895 32.3764 25.6084 32.8072 25.3004 33.2309L24.7379 34.4343C24.6453 34.6372 24.5616 34.8366 24.4708 35.0485C24.3872 35.255 24.3035 35.4561 24.2252 35.6644C24.0703 36.0774 23.9243 36.5011 23.7961 36.923C23.668 37.3467 23.5505 37.7739 23.449 38.2083L23.4383 38.2492L23.4098 38.3026C22.7942 39.4721 22.4653 40.7711 22.4503 42.0926C22.4437 42.75 22.5051 43.4062 22.6337 44.0508C22.7531 44.6906 22.9399 45.316 23.1909 45.9165L23.2158 45.9734L23.23 46.0571C23.4489 47.3635 23.7965 48.6449 24.2679 49.8827C24.7392 51.1215 25.3288 52.3121 26.0285 53.4378L26.5536 54.2887C26.7406 54.5735 26.9257 54.8477 27.1144 55.1236C27.4845 55.6676 27.8838 56.1912 28.3107 56.6919C28.7234 57.1822 29.1811 57.6328 29.6779 58.0378C29.9169 58.2309 30.1685 58.4082 30.4309 58.5683C30.6854 58.7252 30.9521 58.8615 31.2284 58.9759L31.2978 59.0026L31.3726 59.0578C32.1675 59.6223 32.9924 60.1435 33.8435 60.619C34.6601 61.0734 35.5369 61.4096 36.4479 61.6177L36.4906 61.6266L36.528 61.6426C36.9535 61.7815 37.3807 61.9025 37.8115 62.0218C38.253 62.1393 38.6731 62.2372 39.1146 62.3227C39.5508 62.4099 39.9923 62.4758 40.4587 62.5487C40.9507 62.6179 41.4377 62.719 41.9166 62.8514L42.0074 62.8781L42.0804 62.9208C42.4084 63.1142 42.7788 63.2243 43.1592 63.2412L43.2909 63.2484L43.4013 63.2929C43.6296 63.3794 43.8794 63.3919 44.1152 63.3285C44.4512 63.24 44.7775 63.1177 45.0889 62.9635C45.2723 62.8834 45.4681 62.7962 45.6906 62.7197L46.2781 62.5345C46.6745 62.4072 47.0774 62.3008 47.4851 62.2159C48.4985 61.9454 49.4974 61.6227 50.4775 61.2492C51.4688 60.868 52.4274 60.4066 53.3436 59.8696C53.8012 59.599 54.2498 59.3159 54.6912 59.0044C55.1327 58.6964 55.5404 58.3867 55.9783 58.0289C56.841 57.3813 57.6577 56.6747 58.4225 55.914L58.4439 55.8944L58.4617 55.882C58.6237 55.7769 58.7839 55.6666 58.9388 55.5508C59.0936 55.4316 59.245 55.307 59.3909 55.177L59.4034 55.1681C60.1541 54.5934 60.7449 53.8341 61.1195 52.966ZM37.5231 22.4447L37.5338 22.4341L37.5516 22.4163L37.5231 22.4447ZM40.375 7.90597L40.3928 7.90063L40.4248 7.89173L40.375 7.90597ZM34.1711 8.73554V8.73376C34.1889 8.71061 34.212 8.69281 34.228 8.67145C34.2102 8.69459 34.1817 8.70705 34.1639 8.7302L34.1675 8.72841C33.5515 8.89753 32.9356 9.06309 32.3214 9.24645C32.9374 9.06487 33.5551 8.90287 34.1711 8.73554ZM83.6246 51.3354C83.3261 52.3012 82.8336 53.1959 82.1773 53.9647C82.3091 54.2492 82.3899 54.5547 82.4158 54.8673L81.6183 56.2273C81.6112 56.2522 81.6112 56.2896 81.6059 56.3181C81.6478 56.6124 81.6442 56.9114 81.5952 57.2046C81.5916 57.2224 81.5809 57.2456 81.5756 57.2634C81.6881 58.0385 81.6677 58.8272 81.5151 59.5954C81.0237 60.1946 80.414 60.6861 79.7242 61.0392C79.5391 61.3952 79.3628 61.7441 79.2186 62.0663C78.2093 64.3076 79.8275 64.4874 78.4051 67.2271C77.466 67.9661 76.4488 68.6001 75.3717 69.1176C75.142 69.2618 74.875 70.5097 74.875 70.5097C73.5416 71.2414 73.0663 73.5325 72.8189 73.7942C71.9484 74.7056 69.3333 75.3465 68.2082 76.2419C67.2679 77.0226 66.2771 77.7403 65.2424 78.3906C64.0479 79.1258 62.9566 78.5277 61.7265 79.1241C61.3705 79.3501 60.767 80.5357 59.9357 81.2567C59.6079 81.4586 59.2357 81.5771 58.8515 81.6021C58.5436 81.684 58.2926 81.7534 58.1021 81.8193C57.9539 81.866 57.8108 81.9274 57.6748 82.0026L57.3526 82.1913L57.2423 82.2287C52.0156 82.6951 49.1317 85.1838 46.0662 85.433C42.9954 85.6805 42.2638 84.016 39.2588 83.5567C38.6945 83.4659 38.2548 84.2065 37.5481 84.2047C37.0139 84.0536 36.5229 83.7785 36.115 83.4018C34.9347 83.0939 33.4091 82.5776 32.2253 82.3177C29.8256 81.789 29.9805 83.4072 27.0058 82.5758C26.5216 82.4405 25.5194 81.0128 24.5367 79.9928C24.3498 79.7987 23.0716 79.7952 23.0716 79.7952C22.0818 78.6398 19.7427 78.6398 19.4365 78.4529C18.3648 77.7889 17.2041 75.3572 16.0968 74.4404C15.1395 73.6802 14.2337 72.8571 13.3856 71.9766C12.4225 70.9566 12.7839 69.7674 11.9508 68.6851C11.6571 68.386 10.3718 68.0353 9.49591 67.3677C9.14699 67.1042 9.0829 66.6628 8.93515 66.3779C8.79273 66.0931 8.67346 65.8635 8.57021 65.689C8.49337 65.5533 8.40397 65.4252 8.30318 65.3063L8.05218 65.0321L7.99343 64.9306C7.43475 63.1365 6.62441 61.4307 5.58662 59.8642C5.14715 59.5968 4.82481 59.1734 4.68407 58.6786C4.66804 58.5896 4.65558 58.5149 4.64134 58.4312C3.76204 57.2824 3.06328 56.0062 2.56921 54.6465C2.17085 53.0431 2.26515 51.3569 2.83979 49.808C2.78639 49.6353 2.73298 49.4786 2.68492 49.2828C2.58013 48.8932 2.51864 48.4932 2.50156 48.0901L2.51046 48.261C2.4624 47.9673 2.41255 47.6717 2.37161 47.3762L2.25589 46.5306C2.14581 46.3916 2.06799 46.2299 2.02803 46.0571C2.02269 46.0269 2.04405 45.977 2.04227 45.9414C1.79553 45.6188 1.62182 45.2465 1.53314 44.8502C1.43879 43.6467 1.92834 42.2724 1.9497 41.0619C1.99243 38.6391 0.917195 37.6724 0.760538 35.1659C0.710693 34.3613 3.08724 32.6185 3.46108 31.4543C3.83492 30.29 4.61464 26.4875 4.82648 26.0158C5.8127 23.8208 6.81851 25.2859 8.15365 23.2761C8.28182 23.0518 8.67524 20.0361 8.80876 19.819C9.09688 19.1199 9.48943 18.4687 9.973 17.8875C10.3965 17.3817 10.8488 16.9009 11.3277 16.4473L12.4848 15.3098L12.5115 15.2831L12.5916 15.1976L12.7501 15.0303L13.0492 14.7187C13.261 14.498 13.4675 14.2915 13.6811 14.0797C14.5338 13.2394 16.2375 13.2768 17.1614 12.5149C18.0871 11.7565 18.0906 9.7004 18.9736 8.89397C19.7888 8.42735 20.7052 8.16586 21.6439 8.13205C22.6831 7.73465 23.6248 7.11843 24.405 6.32516L25.4766 6.14359C25.6252 6.0104 25.7861 5.89177 25.9573 5.78933C26.1144 5.74616 26.268 5.69081 26.4166 5.62377C27.673 4.92438 28.9994 4.35874 30.3739 3.93616L31.2266 3.79552L31.782 3.46797C32.033 3.45907 32.5333 2.20582 33.8827 2.09722C34.5938 2.1366 35.2966 2.27009 35.9726 2.49421C36.3093 2.48118 36.6447 2.4455 36.9766 2.38739C37.3556 2.31439 37.7278 2.20958 38.0892 2.07408C38.4169 1.78963 38.8045 1.58274 39.2232 1.46882C39.2642 1.46704 39.3211 1.48128 39.3674 1.48306C40.341 0.851789 41.3971 0.358158 42.5059 0.0161884C43.2803 -0.197434 45.4752 1.77145 46.6911 1.9014C47.3978 1.97439 48.9964 1.99931 50.3191 2.02958C51.143 1.7617 51.998 1.60134 52.863 1.55249C54.8426 1.53469 55.2271 3.56232 56.5035 4.82269C57.4968 4.7853 59.0064 4.69273 59.1738 4.75504C59.9166 4.89328 60.634 5.14421 61.3011 5.49916C61.883 5.80921 62.4465 6.15277 62.9887 6.52811L64.3399 7.43066L64.3719 7.45024L64.4734 7.51077L64.6674 7.63004L65.0323 7.85968C65.2923 8.02346 65.5379 8.18368 65.7907 8.34924C65.9938 8.49939 66.1712 8.68157 66.3159 8.88863C66.5799 8.93593 66.8328 9.03191 67.0618 9.17168C67.604 9.88412 68.0046 10.6939 68.242 11.5571C69.2354 12.125 71.0405 11.8135 71.9466 12.4686C72.8901 13.1486 73.0058 15.1869 74.4068 17.1202C75.1165 17.582 75.788 18.0999 76.4148 18.669C76.4885 18.8138 76.5736 18.9525 76.6694 19.0838C77.6118 20.1715 78.4382 21.3546 79.135 22.6139L79.4465 23.4167L79.8791 23.8956C79.9378 24.1377 81.2658 24.3727 81.6504 25.6722C81.7552 26.7372 81.7361 27.8107 81.5934 28.8712C81.6931 29.1649 83.1956 30.1814 83.3576 30.7707C83.3124 32.3469 83.1169 33.9153 82.7737 35.4543V35.4721C82.7639 35.6423 82.7723 35.8129 82.7986 35.9813C82.9256 36.6646 83.1072 37.3367 83.3415 37.9911C83.5516 38.1246 83.7154 38.2688 83.7243 38.4628C83.735 38.6907 83.7599 38.9061 83.7795 39.1197C84.6697 40.7316 85.4339 42.41 86.0652 44.1399C86.5833 46.5093 83.5765 47.1448 83.1208 49.5142C83.1119 49.5605 83.0888 49.5908 83.0781 49.6335C83.3412 50.1716 83.5252 50.7447 83.6246 51.3354ZM35.6628 7.74931C35.7608 7.72439 35.8551 7.69235 35.9548 7.67632C36.6598 7.58994 37.3735 7.60253 38.075 7.71371C38.7738 7.82832 39.4824 7.87127 40.1899 7.84188C40.3519 7.83476 40.5156 7.83654 40.6758 7.8312C41.7962 7.49488 42.9916 7.5017 44.108 7.85078C46.3436 7.97286 48.5626 8.30544 50.7357 8.84413C52.8149 9.36412 54.8416 10.0751 56.7901 10.9679C58.2363 11.5808 59.6393 12.2909 60.9895 13.0934C61.2988 13.1725 61.5999 13.281 61.8885 13.4174L62.0185 13.4815L62.1253 13.5385C62.2143 13.5883 62.2855 13.6293 62.3621 13.6773C62.5187 13.7717 62.6647 13.8696 62.8071 13.9728C63.3385 14.3753 63.8478 14.8062 64.3327 15.2635L64.6852 15.5786C64.8027 15.6765 64.9077 15.7726 65.0359 15.8759L65.4115 16.1856L65.7907 16.5114C66.2838 16.9457 66.7573 17.3961 67.2202 17.8376C68.6262 19.1755 69.9106 20.6357 71.0583 22.2009C71.1117 22.1617 71.1633 22.1136 71.2185 22.0762L71.6012 21.8039C71.7089 21.7228 71.8118 21.6354 71.9092 21.5422C72.0338 21.4283 72.1584 21.2876 72.2813 21.1541C72.2652 21.1345 72.2546 21.1132 72.2385 21.0918C70.9529 19.4173 69.5323 17.8508 67.991 16.4081C67.222 15.6854 66.4233 14.9982 65.5949 14.3467C64.7707 13.6933 63.9197 13.0685 63.0421 12.4846L62.3834 12.0538L61.6001 11.5642L60.9255 11.1103C60.6477 10.9287 60.4181 10.7614 60.192 10.6065C59.9606 10.4427 59.7434 10.295 59.5405 10.1632C59.471 10.133 59.3998 10.0992 59.3304 10.0689C58.5721 9.73956 57.8012 9.45473 57.0322 9.1699C56.9895 9.15566 56.9467 9.13786 56.9058 9.1254L56.7812 9.08623L56.7029 9.05241C56.4892 8.96162 56.2667 8.89219 56.0513 8.80496C54.0336 8.12364 51.9643 7.6063 49.8634 7.25798C47.7042 6.89999 45.5187 6.72491 43.3301 6.73461C42.2371 6.74173 41.1476 6.79691 40.0617 6.90016C39.5223 6.95001 38.9722 7.0141 38.4435 7.08708C38.148 7.12803 37.8934 7.16719 37.6282 7.20992L37.0496 7.30783C36.7755 7.41464 36.4978 7.51077 36.2165 7.59978C36.0331 7.65674 35.8462 7.70125 35.6628 7.74931ZM18.055 67.1452L18.0177 67.1114C18.3539 67.4047 18.6626 67.7283 18.9398 68.078L18.9629 68.1065L18.9879 68.1439C19.4449 68.8431 20.058 69.4269 20.7787 69.8493C21.5157 70.3246 22.3435 70.7216 23.1624 71.2503L23.1784 71.2592L23.2051 71.2806C23.5615 71.5685 23.9336 71.8365 24.3195 72.0834L25.5532 72.7848C26.3899 73.2548 27.2248 73.7034 28.0739 74.1164C28.9179 74.5295 29.7831 74.898 30.6659 75.2201C31.1038 75.3768 31.5471 75.5227 31.9939 75.6456L32.7006 75.8325C32.9338 75.9001 33.1599 75.9678 33.3842 76.0283C33.4519 76.0461 33.5195 76.0568 33.5872 76.0746C33.6673 75.9856 33.7527 75.8948 33.8293 75.804C33.9546 75.6597 34.0706 75.5075 34.1764 75.3483C34.2274 75.2713 34.272 75.1904 34.3099 75.1062L34.4114 74.8338C34.6898 74.1769 34.8911 73.4899 35.0113 72.7866C34.5324 72.6655 34.0536 72.5552 33.5818 72.4092C32.8235 72.1813 32.0793 71.9143 31.337 71.6348C30.324 71.5413 29.3383 71.2542 28.4335 70.7892C27.533 70.3162 26.7196 69.6931 26.0285 68.9467L26.0338 68.9503C25.5906 68.6726 25.1651 68.3575 24.7485 68.0424C24.3231 67.7398 23.9048 67.4247 23.4935 67.0971C22.6709 66.4457 21.883 65.7517 21.133 65.0179C19.6326 63.5467 18.2836 61.9287 17.1062 60.1882C15.334 57.5697 13.9791 54.6919 13.0901 51.6576C12.7875 50.6589 12.5827 49.6335 12.3246 48.6437C11.7441 47.9084 11.3217 47.0612 11.0838 46.155C10.9708 45.6768 10.9581 45.1804 11.0464 44.6971C11.1376 44.2352 11.3217 43.7967 11.5876 43.4082C11.6197 43.2409 11.6517 43.0717 11.6784 42.9026C11.7051 42.7299 11.7407 42.5288 11.755 42.3686C11.7959 41.9983 11.8493 41.6262 11.917 41.2577C12.0194 39.4739 12.2774 37.7024 12.6878 35.9635C13.0992 34.2118 13.6658 32.5002 14.3807 30.849C14.735 30.023 15.132 29.213 15.5574 28.4226C15.7728 28.0274 15.9971 27.634 16.2268 27.2477C16.2855 27.1498 16.3318 27.0661 16.4048 26.954L16.5739 26.6798C16.6861 26.4929 16.7911 26.3024 16.8979 26.1119C17.3252 25.3447 17.7186 24.5311 18.2473 23.7639C18.7758 22.9624 19.4912 22.3013 20.3319 21.8377L20.2393 21.9036L21.4801 20.7055L21.4196 20.7767C21.9416 20.1015 22.583 19.5277 23.3119 19.0838C23.4757 18.9698 23.6359 18.8577 23.7908 18.7437C23.9546 18.6262 24.0685 18.5212 24.2661 18.3788C24.5901 18.1349 24.9212 17.9017 25.2559 17.6703C26.5956 16.7563 28.0044 15.948 29.4696 15.2528C32.4017 13.8694 35.5356 12.962 38.7533 12.5647C39.2019 12.4597 39.6558 12.3404 40.1169 12.2265L40.2201 12.2016L40.318 12.2176C40.9929 12.2505 41.6687 12.1772 42.3207 12.0004C42.7222 11.9267 43.1311 11.9028 43.5384 11.9292C43.968 11.9646 44.3865 12.0837 44.7703 12.2799L44.6813 12.2443C45.4789 12.4365 46.2882 12.5763 47.1041 12.6626C47.9497 12.7891 48.7906 12.9499 49.6266 13.1451C51.2951 13.5368 52.9278 14.0674 54.5079 14.7312C55.2965 15.0605 56.0762 15.4273 56.831 15.8225C57.5876 16.2177 58.3424 16.6556 59.0509 17.1077L59.5832 17.446L59.8556 17.6222L60.1155 17.786C60.4679 18.0067 60.8329 18.2239 61.1978 18.4607C61.9285 18.9239 62.582 19.4988 63.1347 20.1643C63.4337 20.41 63.7381 20.6663 64.0319 20.9262C64.3274 21.1915 64.6211 21.4639 64.9006 21.7522C65.46 22.317 65.955 22.9421 66.3764 23.6161C66.841 24.184 67.2433 24.7964 67.6652 25.3963C67.902 25.1738 68.1316 24.9512 68.3453 24.718C68.5464 24.5062 68.7476 24.2463 68.9701 24.0024C69.1873 23.7603 69.4205 23.52 69.6662 23.2939C69.7392 23.2262 69.821 23.1782 69.8976 23.1123C69.5291 22.6156 69.1891 22.0994 68.7974 21.6205C68.3987 21.1345 67.9928 20.6681 67.562 20.1981C67.3519 19.9685 67.133 19.7389 66.9158 19.5128L66.2393 18.8559C65.7765 18.4091 65.3261 17.9658 64.8614 17.5475C64.63 17.3374 64.4057 17.1469 64.1529 16.9333C64.0319 16.8336 63.9001 16.7143 63.7738 16.604L63.4124 16.2728C62.9695 15.8438 62.5042 15.4385 62.0185 15.0588C61.578 14.7165 61.073 14.4665 60.5338 14.3235L60.4323 14.2968L60.3487 14.2452C57.9861 12.7812 55.4584 11.6022 52.8185 10.7329C51.4963 10.3009 50.1492 9.94895 48.7846 9.67903C48.1028 9.54196 47.4168 9.42684 46.7267 9.33368C46.0342 9.23933 45.3346 9.1699 44.619 9.06665L44.5282 9.05419L44.4587 9.0168C43.8772 8.72081 43.2423 8.54408 42.5914 8.497C41.9406 8.44992 41.2868 8.53344 40.6687 8.74266L40.6402 8.75334L40.6207 8.7569C40.1454 8.85837 39.6754 8.9812 39.2072 9.12006L39.1609 9.13608L39.1217 9.13786C35.3081 9.45918 31.5717 10.3964 28.0579 11.9132C24.5358 13.4402 21.2892 15.5368 18.4485 18.1189L18.4413 18.1278L18.4342 18.1314C17.3101 18.9751 16.2906 19.9498 15.3972 21.0348C14.9504 21.576 14.5267 22.1403 14.1297 22.7224C13.9322 23.0144 13.7417 23.3111 13.5583 23.6125L12.9566 24.4937C11.6975 26.388 10.6267 28.4009 9.75937 30.5036C9.54679 31.0998 9.37374 31.7094 9.24134 32.3283V32.3354L9.23778 32.3443C8.96719 33.2451 8.73755 34.1601 8.53995 35.0823C8.34413 36.0026 8.18035 36.9319 8.06286 37.8647C7.81981 39.7311 7.72932 41.6143 7.79227 43.4954V43.5293L7.78337 43.5702C7.63118 44.1536 7.57289 44.7575 7.61069 45.3593C7.66847 45.9578 7.81985 46.5434 8.0593 47.095L8.06998 47.1217L8.0771 47.1573C8.25156 48.1043 8.40999 49.0443 8.61828 49.9682C8.82478 50.8939 9.07044 51.8125 9.34993 52.715C9.90909 54.5264 10.6134 56.2897 11.4559 57.9879C13.1418 61.3796 15.3709 64.4729 18.055 67.1452ZM12.7341 24.4475C12.7038 24.4973 12.6682 24.5454 12.6379 24.597C12.6237 24.6255 12.6059 24.6557 12.5899 24.6842C12.6397 24.6059 12.6842 24.5258 12.7341 24.4475ZM13.3642 23.4933C13.5262 23.2191 13.6971 22.9503 13.8716 22.6815C13.5084 23.2084 13.1631 23.7496 12.832 24.2961L13.3642 23.4933ZM44.7827 8.10179C45.4592 8.1819 46.1517 8.23886 46.8513 8.32075C47.5652 8.40086 48.2737 8.50589 48.9804 8.62872C49.7904 8.77292 50.5915 8.95272 51.389 9.15032C51.1629 9.08623 50.9386 9.00968 50.7108 8.94916C48.5999 8.39326 46.4398 8.04506 44.2611 7.90953C44.4382 7.96455 44.6123 8.02872 44.7827 8.10179ZM33.92 76.1511C35.569 76.5769 37.2469 76.8822 38.9402 77.0644C40.8166 77.2596 42.7061 77.2965 44.5887 77.1748L44.6902 77.1694L44.797 77.1943C45.131 77.2659 45.4704 77.3099 45.8117 77.3261C45.9933 77.3332 46.1499 77.3332 46.3262 77.3296C46.4971 77.3225 46.6715 77.31 46.8442 77.2922L46.9029 77.2851L46.9688 77.2887C47.4322 77.3016 47.893 77.2148 48.32 77.0341L49.1157 76.7279C49.4011 76.6237 49.6973 76.5521 49.9987 76.5143C50.296 76.4164 50.595 76.322 50.8995 76.2313L51.0882 76.1761L51.316 76.0924L51.7842 75.9322C52.4429 75.7097 53.0036 75.553 53.6071 75.3412L54.0486 75.1845L54.4972 75.0172C54.7856 74.9104 55.0775 74.7946 55.3677 74.6771C55.9498 74.4404 56.5242 74.187 57.0909 73.917C59.3608 72.8391 61.5022 71.5093 63.4747 69.9525C64.4598 69.173 65.4023 68.341 66.298 67.4603C66.7467 67.017 67.1775 66.5755 67.6083 66.1038C67.8166 65.8777 68.0284 65.6374 68.2349 65.4006L68.8295 64.6707C69.2354 64.1705 69.6359 63.6827 70.0133 63.1843C70.202 62.9351 70.3729 62.6929 70.5616 62.4224C70.6506 62.296 70.7592 62.1535 70.8571 62.0183L71.1562 61.6284C71.3057 61.4326 71.4499 61.2474 71.5923 61.0605C71.7561 60.7988 71.9377 60.5443 72.0961 60.279C72.3115 59.9176 72.486 59.542 72.6854 59.1753C72.7565 58.9857 72.8113 58.7903 72.8491 58.5914L72.8634 58.4882L72.9079 58.3974C74.1613 55.9171 75.1156 53.2967 75.7508 50.5912C75.8968 49.9628 76.0214 49.3291 76.1318 48.6918C76.1781 48.4123 76.2208 48.131 76.26 47.8498C76.3134 47.4937 76.3668 47.1395 76.4095 46.7817C76.5003 45.8898 76.5626 44.9943 76.5822 44.0971L76.5857 43.9921L76.6196 43.8889C76.6285 43.8639 76.6302 43.8372 76.6374 43.8105C76.6534 43.3032 76.6659 42.7976 76.6961 42.2778L76.7015 42.187L76.7317 42.1158C76.8041 41.9245 76.8624 41.7281 76.9062 41.5283C76.9261 41.1359 76.8798 40.7429 76.7691 40.3659L76.5341 39.547C76.4551 39.2552 76.4097 38.9554 76.3988 38.6533C76.3259 38.3471 76.2576 38.0386 76.1941 37.7276L76.1514 37.5336L76.0926 37.3004L75.9716 36.8197C75.8078 36.1415 75.701 35.57 75.5408 34.9505L75.4251 34.4984L75.3005 34.0373C75.2168 33.7382 75.1278 33.4386 75.0334 33.1383C74.8501 32.5384 74.6453 31.9456 74.4264 31.3563C73.5515 29.001 72.4133 26.752 71.0333 24.6522C70.8642 24.3923 70.6595 24.1591 70.485 23.9063C70.421 23.9508 70.3462 23.9846 70.2857 24.0309C70.0453 24.2125 69.8121 24.4083 69.5878 24.6148C69.3582 24.8195 69.1428 25.042 68.8864 25.2699C68.6159 25.5084 68.3364 25.7274 68.0569 25.9392C70.1609 29.0571 71.6753 32.5343 72.5251 36.1984L72.5323 36.2323L72.534 36.2608C72.5493 36.6562 72.6225 37.0472 72.7512 37.4214C72.8526 37.5834 72.947 37.749 73.0343 37.9181C73.1286 38.1032 73.2176 38.2991 73.2924 38.4878C73.4469 38.8732 73.5684 39.271 73.6556 39.6769L73.6573 39.6912L73.6609 39.7036C73.7519 40.5088 73.762 41.3211 73.6912 42.1283L73.6894 42.1407V42.1496C73.6289 42.5448 73.5808 42.9454 73.5292 43.3477C73.4793 43.7482 73.4206 44.1452 73.3636 44.5386C73.2981 47.4163 72.8086 50.2685 71.911 53.0034C71.4588 54.3686 70.8919 55.693 70.2162 56.9625C69.878 57.5963 69.5131 58.2176 69.1179 58.8157L67.918 60.5923L67.9251 60.5799C67.2268 61.9431 66.3628 63.2148 65.3528 64.3663C64.8418 64.9378 64.2793 65.461 63.6723 65.9293C63.0713 66.4033 62.4044 66.7871 61.6927 67.0686C59.234 69.0283 56.4882 70.5978 53.5519 71.722C52.0882 72.2878 50.5822 72.7378 49.0481 73.0679C48.2808 73.2334 47.5046 73.3705 46.7303 73.4755C45.9505 73.5788 45.1726 73.6535 44.3964 73.7799C43.7754 73.9491 43.1285 74.0046 42.4881 73.9402C41.8454 73.8957 41.2099 73.7977 40.5708 73.7443C41.2117 73.796 41.849 73.8921 42.4881 73.9348C43.1278 73.9979 43.7736 73.9417 44.3929 73.7693C45.1673 73.6393 45.9488 73.561 46.7267 73.4524C47.5011 73.3474 48.2731 73.2109 49.0427 73.0429C53.6554 72.0331 57.965 69.9496 61.6215 66.9618L61.6286 66.9547L61.6393 66.9511C62.3393 66.6677 62.9938 66.2826 63.5815 65.8083C64.1764 65.3424 64.7243 64.8195 65.2175 64.247C66.1977 63.093 67.0318 61.8225 67.7008 60.4642L67.7026 60.4606L67.7097 60.4499L68.8775 58.6626C69.2585 58.0609 69.6074 57.4432 69.9332 56.8148C70.5797 55.5526 71.1175 54.2376 71.5407 52.8841C72.3845 50.1747 72.8219 47.355 72.8385 44.5173L72.8402 44.503L72.842 44.4834C72.8972 44.0829 72.947 43.6841 72.9933 43.2836C73.0361 42.8866 73.0788 42.4861 73.1322 42.082C73.1847 41.3216 73.1638 40.5579 73.0699 39.8015C72.9834 39.4322 72.8661 39.0707 72.7192 38.721C72.6444 38.5412 72.5661 38.3756 72.4771 38.2065C72.3897 38.0395 72.2934 37.8773 72.1887 37.7205L72.1691 37.6885L72.1566 37.6493C72.0054 37.2304 71.9137 36.7924 71.8843 36.348C71.029 32.7888 69.5041 29.4249 67.3911 26.4359C66.8725 26.8027 66.3881 27.2156 65.9438 27.6696C65.5219 28.1235 65.1605 28.6469 64.76 29.1454C64.6104 29.3323 64.4431 29.5067 64.2758 29.6812C64.7351 30.4401 65.1552 31.222 65.5344 32.0239C66.5097 34.1076 67.1983 36.3137 67.5816 38.5821C67.7792 39.7054 67.8522 40.8483 68.0035 41.968C68.3187 42.4012 68.5101 42.9119 68.5571 43.4456C68.5925 43.9823 68.5329 44.5211 68.3809 45.0371C68.242 45.5515 68.0533 46.05 67.8771 46.5467C67.6837 47.0378 67.5377 47.5463 67.4409 48.0652C67.169 49.4515 66.7838 50.8132 66.2892 52.1364L66.2909 52.1222C66.2331 52.7804 66.1169 53.4321 65.9438 54.0697C65.7662 54.7097 65.5147 55.3268 65.1943 55.9087C64.8692 56.4893 64.4837 57.0341 64.0443 57.534C63.6061 58.0301 63.1293 58.4908 62.6184 58.9118C62.2873 59.2358 61.974 59.5705 61.6624 59.9176C61.3545 60.2594 61.0518 60.6137 60.7688 60.9751L60.7635 60.9822L60.7546 60.9911C58.9456 62.8764 56.8603 64.4756 54.5702 65.7335C53.4227 66.3648 52.2261 66.9023 50.992 67.341C50.3707 67.5653 49.7512 67.7576 49.1139 67.9302C48.9519 67.973 48.7935 68.0139 48.6386 68.0495L48.384 68.1136L48.1597 68.1617C47.8785 68.2258 47.6043 68.3094 47.3284 68.3984C46.6577 68.9577 45.8825 69.3783 45.048 69.6357C44.5952 69.7614 44.1252 69.8137 43.6559 69.7905C43.1881 69.7639 42.7274 69.6642 42.2905 69.495L42.3314 69.5111C42.1125 69.447 41.8971 69.3847 41.6781 69.317C41.4538 69.2476 41.2491 69.1799 41.0319 69.1034C40.6224 68.961 40.2219 68.799 39.8303 68.6299C38.3393 68.4696 36.8659 68.1753 35.4279 67.7505C35.0647 67.6472 34.6926 67.5244 34.3455 67.4051C33.977 67.2787 33.6281 67.1505 33.2685 67.0063L32.7451 66.7945L32.22 66.5684C31.88 66.4189 31.5435 66.2604 31.2088 66.1038C30.5475 65.9249 29.9168 65.6476 29.3378 65.2813C28.7628 64.9096 28.2176 64.4935 27.7072 64.037C26.7859 63.1354 25.7721 62.3334 24.6827 61.6444L24.6417 61.6213L24.6097 61.5928C24.4388 61.4504 24.2732 61.3044 24.1059 61.1549C23.9368 61 23.7748 60.8487 23.6217 60.6956C23.4597 60.5336 23.3084 60.3769 23.1535 60.2096L22.9256 59.9497L22.7156 59.6987C22.4271 59.3445 22.1659 58.969 21.9341 58.5754C21.7145 58.1974 21.5264 57.8021 21.3715 57.3933C20.809 56.4125 20.2091 55.4191 19.7106 54.3706C18.702 52.2798 17.9873 50.0597 17.5868 47.7732C17.3821 46.6588 17.2878 45.5284 17.1899 44.4229C17.0092 44.2449 16.8562 44.0409 16.7359 43.8176C16.5971 43.538 16.5183 43.2324 16.5045 42.9204C16.5029 42.3409 16.6179 41.767 16.8427 41.2328C17.0314 40.7148 17.2486 40.2252 17.4231 39.7303C17.6086 39.2528 17.7156 38.7485 17.7399 38.2368V38.2065L17.7471 38.1816C17.9126 37.4909 18.0906 36.7913 18.2936 36.1059C18.4965 35.4169 18.7333 34.7387 18.9968 34.0711C19.2585 33.4018 19.5498 32.7461 19.8708 32.104C20.1859 31.4649 20.5348 30.833 20.8998 30.217L20.8873 30.2402C21.0279 29.8973 21.197 29.5668 21.3929 29.2522C21.5905 28.9317 21.8041 28.6487 22.0088 28.3496C22.429 27.7586 22.8544 27.1729 23.3119 26.6068C24.2079 25.4491 25.3091 24.4661 26.5608 23.7069C27.3191 23.0981 28.1042 22.5266 28.8999 21.973L29.5016 21.5564C29.6067 21.487 29.6903 21.4176 29.8114 21.3464L30.1283 21.1612C30.5519 20.9138 30.9792 20.6788 31.4171 20.4581C32.2918 20.0164 33.1897 19.6224 34.107 19.2778C34.3384 19.1923 34.5698 19.1051 34.7977 19.0303L34.9704 18.9698L35.0469 18.9431L35.1341 18.9093L35.4759 18.7776C35.9192 18.6102 36.366 18.4553 36.8111 18.3058C37.2601 17.7724 37.8123 17.3352 38.4346 17.0205C39.0847 16.697 39.797 16.5179 40.5228 16.4954C41.2386 16.4816 41.9528 16.5679 42.6447 16.7517C43.3022 16.928 43.9499 17.139 44.5851 17.3837C45.5215 17.4923 46.4846 17.5813 47.4352 17.7593C48.3962 17.9338 49.3456 18.1669 50.2782 18.4571C50.5131 18.5283 50.7446 18.6031 50.9778 18.6832C51.2039 18.7598 51.4335 18.8452 51.6632 18.9307C51.891 19.0179 52.1224 19.1087 52.345 19.2012L52.6725 19.3348L53.009 19.4665C53.8866 19.8136 54.7696 20.1661 55.6436 20.5577C56.2332 20.6141 56.81 20.7637 57.3526 21.001C57.9115 21.2545 58.4312 21.5866 58.896 21.9872C59.769 22.7833 60.5414 23.683 61.196 24.6664C61.5156 24.9659 61.7903 25.3101 62.0114 25.6882C62.2271 26.0678 62.4209 26.4595 62.5917 26.8614C62.8866 27.6257 63.3085 28.3347 63.8396 28.9584L63.8645 28.9798L63.877 29.0029C63.9909 29.1881 64.0977 29.3803 64.2099 29.569C64.3452 29.3928 64.4823 29.2201 64.6033 29.0332C64.9451 28.5045 65.2531 27.9437 65.6465 27.4221C66.0678 26.8964 66.5348 26.4091 67.0422 25.9659C66.606 25.3607 66.1823 24.7447 65.7035 24.1715L65.6857 24.1502L65.6643 24.1217C65.2657 23.4895 64.7956 22.9053 64.2633 22.3807C63.9981 22.1136 63.7186 21.8573 63.432 21.6063C63.1382 21.3517 62.8481 21.1132 62.5454 20.8693L62.508 20.839L62.4742 20.7981C61.9665 20.188 61.3621 19.6653 60.6851 19.2511C60.3416 19.0321 59.9802 18.8221 59.6152 18.5978L59.3411 18.4286L59.0794 18.2595L58.5418 17.9284C57.8244 17.478 57.1159 17.0846 56.3789 16.6983C55.6401 16.3156 54.8924 15.9649 54.1251 15.6462C52.5939 15.0099 51.0124 14.5019 49.397 14.1277C48.5906 13.9426 47.7752 13.7895 46.9563 13.6684C46.0953 13.5808 45.2412 13.4344 44.4 13.2305L44.3555 13.218L44.3092 13.1949C44.0414 13.0598 43.7501 12.9777 43.4512 12.9528C43.1296 12.9301 42.8065 12.9493 42.4899 13.0098C42.1516 13.0649 41.7902 13.1451 41.4039 13.2038C41.0374 13.2587 40.6653 13.2671 40.2967 13.2287C39.8534 13.3355 39.4137 13.4495 38.9597 13.5527L38.9348 13.5563L38.9099 13.5616C37.3491 13.7483 35.8056 14.0584 34.2939 14.4891C32.7834 14.9225 31.3086 15.4719 29.8826 16.1322C28.4534 16.7921 27.0784 17.5635 25.7704 18.4393C25.4481 18.6583 25.1242 18.8808 24.8055 19.114C24.6755 19.2012 24.4922 19.3615 24.3284 19.4754C24.1611 19.5947 23.9937 19.7104 23.8282 19.8261C23.1831 20.2037 22.6119 20.6953 22.1423 21.2769L22.1156 21.3143L22.0818 21.3446C21.6653 21.7309 21.2558 22.1368 20.8268 22.5302L20.7823 22.5711L20.7324 22.5961C20.0032 22.9872 19.3796 23.5491 18.9149 24.2338C18.4218 24.9228 18.023 25.7096 17.5726 26.4911C17.4605 26.6869 17.3465 26.8827 17.2255 27.0768L17.0403 27.3652C16.9905 27.4382 16.9264 27.5485 16.8694 27.6393C16.638 28.0149 16.4137 28.3906 16.1983 28.7751C15.7693 29.5406 15.3729 30.325 15.0091 31.1285C13.5605 34.3493 12.6886 37.7995 12.4332 41.3218L12.4314 41.3396L12.4297 41.3521C12.3567 41.7081 12.3015 42.0659 12.257 42.4255C12.2321 42.632 12.1964 42.7958 12.1662 42.9863C12.1306 43.1714 12.0968 43.3548 12.0558 43.5399L12.0434 43.5898L12.0166 43.6289C11.7653 43.9741 11.5894 44.3684 11.5004 44.7861C11.4167 45.2074 11.4222 45.6416 11.5164 46.0607C11.7301 46.9259 12.1217 47.7371 12.6664 48.4426L12.6913 48.4746L12.7002 48.5084C12.9548 49.5392 13.1399 50.561 13.4248 51.5614C14.257 54.5831 15.5543 57.4568 17.27 60.0796C18.4138 61.8301 19.7377 63.456 21.2202 64.9306C21.9611 65.668 22.7388 66.3673 23.5505 67.0259C23.9581 67.3552 24.3711 67.6739 24.7948 67.9819C25.2149 68.3023 25.6244 68.6174 26.0659 68.8987L26.0694 68.9022L26.073 68.904C26.7537 69.6537 27.559 70.2801 28.4531 70.7554C29.3536 71.2193 30.3341 71.5081 31.3423 71.6063H31.3477C32.0882 71.8858 32.8324 72.1564 33.5872 72.3896C34.0589 72.5338 34.5378 72.6477 35.0149 72.7706C35.0238 72.7047 35.0487 72.6442 35.054 72.5765C35.0558 72.6442 35.0433 72.7101 35.0416 72.7777C35.3228 72.8489 35.5988 72.9379 35.8818 73.002C36.6544 73.1747 37.4324 73.3177 38.2156 73.431C39.0007 73.5467 39.7893 73.6179 40.5708 73.7443C39.7875 73.6215 38.9989 73.5503 38.2156 73.4399C37.4306 73.3277 36.6515 73.1859 35.8783 73.0145C35.597 72.9522 35.3211 72.8649 35.0398 72.7937C34.9704 73.5074 34.8181 74.2106 34.5858 74.889L34.5057 75.1774C34.4712 75.277 34.4283 75.3734 34.3776 75.4658C34.2798 75.6428 34.171 75.8134 34.0518 75.9767C34.0091 76.0372 33.9646 76.0924 33.92 76.1511ZM60.4697 60.7063L60.4537 60.7241C60.7563 60.3591 61.0732 60.012 61.4025 59.6702C61.723 59.3355 62.0594 58.9991 62.4066 58.684L62.4137 58.6768L62.4155 58.6733C63.4595 57.8952 64.3453 56.9248 65.0252 55.8143C65.6657 54.6746 66.0571 53.4119 66.1734 52.1097V52.1008L66.177 52.0937C66.6813 50.7802 67.0743 49.4267 67.3519 48.0474C67.4492 47.5244 67.594 47.0113 67.7845 46.5146C67.9607 46.0144 68.1441 45.5177 68.2758 45.0086C68.4245 44.5054 68.4806 43.9795 68.4414 43.4563C68.388 42.938 68.1913 42.4449 67.8735 42.0321L67.8628 42.0197L67.8593 42.0001C67.683 40.8697 67.5976 39.7303 67.3626 38.6213C66.9153 36.3961 66.1679 34.242 65.1409 32.218C64.7618 31.4667 64.3292 30.7475 63.877 30.0372C63.7137 30.1846 63.5373 30.3169 63.3501 30.4324C63.5268 30.2964 63.6912 30.1451 63.8414 29.9803C63.6954 29.7542 63.5584 29.5245 63.4088 29.3002C62.8288 28.6585 62.3579 27.9261 62.0149 27.132C61.7136 26.386 61.2615 25.7102 60.6869 25.1471L60.6584 25.1257L60.6317 25.0883C59.9882 24.1673 59.2403 23.3238 58.4029 22.5747C57.9919 22.2248 57.5326 21.9358 57.0393 21.7166C56.5481 21.5061 56.0253 21.3786 55.4923 21.3392L55.4265 21.3339L55.3606 21.3036C54.4936 20.9138 53.6107 20.5577 52.7152 20.2017L52.3841 20.0718L52.0405 19.9311C51.8216 19.8385 51.6044 19.7513 51.3819 19.6677L50.7179 19.4202C50.4953 19.3419 50.271 19.2653 50.0467 19.1923C49.1461 18.9003 48.2288 18.6619 47.2999 18.4785C46.3724 18.2844 45.4307 18.1741 44.4694 18.0388L44.4285 18.0317L44.3964 18.0192C43.7723 17.7601 43.1347 17.5349 42.4863 17.3445C41.8539 17.1575 41.1983 17.0604 40.5388 17.0561C39.8873 17.0613 39.2446 17.2058 38.6536 17.4798C38.0604 17.7597 37.5322 18.1605 37.103 18.6565L37.0567 18.7064L37.0015 18.7242C36.5351 18.8648 36.0759 19.0125 35.6201 19.1692L35.2783 19.292L35.1929 19.3223L35.0967 19.3543L34.9223 19.4095C34.6891 19.4807 34.463 19.5591 34.2334 19.6356C33.3212 19.9526 32.4289 20.3242 31.5613 20.7482C31.1287 20.9601 30.6979 21.1861 30.2778 21.4229L29.9627 21.6027C29.8737 21.6508 29.7633 21.7344 29.6654 21.7968L29.0637 22.208C28.2644 22.7598 27.474 23.3259 26.7174 23.9276L26.7103 23.933L26.6996 23.9383C25.4749 24.6799 24.4031 25.6485 23.5416 26.792C23.093 27.3509 22.6746 27.9366 22.2634 28.5276C22.0605 28.8231 21.8415 29.1204 21.6635 29.4177C21.4786 29.7179 21.3201 30.0336 21.1899 30.3612L21.1846 30.3719L21.1775 30.3826C20.4651 31.6042 19.8617 32.8861 19.3742 34.2135C19.1267 34.8758 18.9095 35.5475 18.7226 36.2287C18.5339 36.9087 18.3773 37.5888 18.2242 38.2831C18.2079 38.8336 18.1064 39.3782 17.9233 39.8977C17.7524 40.4246 17.5441 40.9231 17.3768 41.4215C17.1935 41.8867 17.1028 42.3831 17.1098 42.883C17.128 43.1129 17.1917 43.3368 17.2971 43.5418C17.4026 43.7469 17.5476 43.929 17.7239 44.0775L17.8129 44.1541L17.8218 44.2787C17.9536 45.4198 18.0568 46.5413 18.2776 47.645C18.4911 48.7499 18.7796 49.8389 19.141 50.9046C19.504 51.9681 19.9357 53.007 20.4334 54.0145C20.9283 55.0239 21.5175 55.9817 22.0961 56.9786L22.1121 57.0035L22.1245 57.0391C22.2728 57.4213 22.4538 57.79 22.6657 58.141C22.8769 58.4936 23.1143 58.8299 23.376 59.1468L23.5861 59.396L23.7908 59.6221C23.9314 59.7752 24.0845 59.9283 24.2269 60.069C24.3854 60.2238 24.5403 60.3662 24.6933 60.5015C24.8482 60.6386 25.0067 60.7739 25.1651 60.9074C25.746 61.2316 26.2944 61.6107 26.8029 62.0396C27.3209 62.4704 27.8122 62.9172 28.3053 63.3409C29.2143 64.2036 30.3103 64.8446 31.5079 65.2137L31.5524 65.2208L31.5951 65.2404C32.2734 65.559 32.9267 65.8581 33.621 66.1287C33.9539 66.2622 34.3099 66.3886 34.6464 66.5061C35.0042 66.6272 35.3424 66.7375 35.6967 66.8408C37.1041 67.2516 38.5433 67.5446 39.9994 67.7166L40.0688 67.7237L40.1347 67.7505C40.5299 67.9249 40.934 68.0922 41.3381 68.2347C41.5375 68.3076 41.7546 68.3806 41.9522 68.4429C42.1587 68.5088 42.3688 68.5711 42.5789 68.6299L42.6002 68.637L42.618 68.6441C43.3164 68.9264 44.088 68.9721 44.8148 68.7741C45.5655 68.5448 46.2635 68.1697 46.8691 67.6703L46.935 67.6205L47.0044 67.5974C47.3248 67.4995 47.6471 67.4104 47.9782 67.3392L48.2274 67.2894L48.4446 67.2395C48.603 67.2057 48.7579 67.1665 48.9092 67.1292C49.518 66.9743 50.1375 66.798 50.7357 66.6005C51.9438 66.2013 53.1207 65.7133 54.2569 65.1407C56.542 63.9882 58.6372 62.4928 60.4697 60.7063ZM31.6289 78.5918C31.8693 78.2642 32.1256 77.9669 32.357 77.659C32.4478 77.5343 32.5333 77.4097 32.6187 77.2833C32.5101 77.2513 32.3998 77.2193 32.2947 77.1872L31.6076 76.995C31.1269 76.8543 30.6534 76.6941 30.1888 76.5196C29.2648 76.1699 28.3598 75.7718 27.4776 75.3269C26.6017 74.8872 25.7437 74.4119 24.9052 73.9295L23.6377 73.1818C23.2238 72.9055 22.8251 72.6072 22.4432 72.2881C21.7329 71.8075 20.9158 71.3909 20.1183 70.8569C19.703 70.5855 19.3133 70.2769 18.954 69.9347C18.5819 69.5796 18.2608 69.1746 17.9999 68.7313L18.0444 68.799C17.9091 68.6263 17.7649 68.4892 17.6242 68.3344C12.626 63.4785 9.21613 57.2223 7.84389 50.3901C8.41717 53.1764 9.33197 55.8813 10.5676 58.4436C11.7971 60.9924 13.3407 63.3774 15.1622 65.543C14.605 64.8523 14.0656 64.1474 13.5636 63.4193C11.3556 60.2178 9.68518 56.6773 8.61828 52.9375C8.34947 52.0012 8.1216 51.0648 7.92934 50.1159C7.7353 49.1707 7.59467 48.2236 7.44335 47.289C6.93449 46.079 6.85718 44.7308 7.22439 43.4705C7.20986 41.7179 7.32589 39.9667 7.57153 38.2314C7.46116 38.9221 7.37393 39.6182 7.30806 40.3142C7.24219 41.0192 7.20125 41.7259 7.16564 42.4344C7.13141 43.1428 7.02342 43.8456 6.84343 44.5315C6.66877 45.2181 6.59147 45.9258 6.61379 46.6339C6.63572 46.9875 6.72136 47.3343 6.86657 47.6575C7.01932 47.9784 7.23341 48.2663 7.49676 48.5049V48.5067C7.60713 49.1351 7.71928 49.7635 7.84389 50.3901C7.71572 49.7635 7.60357 49.1351 7.48964 48.5084C7.22485 48.2703 7.00951 47.9841 6.85589 47.6628C6.70782 47.3384 6.61976 46.9898 6.59598 46.6339C6.57304 45.9244 6.64791 45.2152 6.81851 44.5262C6.99438 43.8409 7.09937 43.1394 7.13182 42.4327C7.16208 41.7241 7.20125 41.0156 7.26712 40.3089C7.41858 38.6774 7.68568 37.0587 8.06642 35.465C8.10202 35.3101 8.11982 35.1517 8.15721 34.995C8.22307 34.7156 8.31564 34.4432 8.38863 34.1655C8.40821 34.0854 8.43136 34.0053 8.4545 33.9269C8.60581 33.3644 8.74289 32.8001 8.92091 32.2447L8.91735 32.2607C9.25227 30.8651 9.75685 29.5157 10.4198 28.2428C11.0838 26.9807 11.7283 25.7167 12.4759 24.4991C16.9639 17.1236 24.0395 11.6855 32.3214 9.24645C29.5966 10.0612 26.9826 11.2085 24.5385 12.6626C22.0938 14.1151 19.8419 15.87 17.8361 17.8857C17.108 18.6191 16.4262 19.3953 15.7693 20.1892C16.5024 19.3255 17.3194 18.5366 18.2081 17.8341L18.1939 17.8465C21.0199 15.1673 24.2684 12.9726 27.8087 11.3506C29.5806 10.5407 31.4155 9.87627 33.2952 9.36394C35.163 8.85485 37.0685 8.49589 38.9936 8.29049C39.4564 8.14451 39.9228 8.01278 40.3928 7.90063C40.4337 7.88639 40.4747 7.88283 40.5139 7.87215C40.4053 7.87571 40.2967 7.87393 40.1899 7.87749C39.4808 7.90336 38.771 7.85683 38.0714 7.73863C37.3726 7.62542 36.6615 7.60984 35.9584 7.69235C35.6074 7.74554 35.2691 7.86195 34.9597 8.03592C34.9241 8.05729 34.8938 8.08755 34.8582 8.11069C34.8938 8.08755 34.9169 8.0466 34.9543 8.02524C35.1008 7.94158 35.2545 7.87127 35.4136 7.81518C35.321 7.8401 35.2356 7.86859 35.1359 7.89173L34.8938 7.94691L34.6054 8.0021C34.4238 8.0377 34.2405 8.06797 34.0589 8.09645C33.7937 8.13561 33.5248 8.1641 33.256 8.1908C31.2711 8.7556 29.337 9.48565 27.474 10.3733C25.5726 11.2902 23.7485 12.3594 22.0195 13.5705C21.1579 14.1758 20.3194 14.8184 19.513 15.4949C18.7048 16.1696 17.918 16.8745 17.1667 17.6133L16.6113 18.1705L15.9704 18.8363L15.3883 19.4042C15.1551 19.6374 14.9433 19.8296 14.7457 20.0183C14.4005 20.3316 14.073 20.6638 13.7648 21.0135C13.5829 21.2123 13.4339 21.4389 13.3233 21.6846L13.2076 22.0015L13.067 22.2151C12.9121 22.4536 12.7643 22.6922 12.6255 22.9343L12.5578 23.0464L12.5098 23.1177C11.266 24.8971 10.1767 26.7797 9.2538 28.7448C8.79807 29.7293 8.37261 30.7297 7.99343 31.7498C7.61781 32.7716 7.27246 33.8059 6.97338 34.858C6.37309 36.969 5.94211 39.1245 5.68453 41.304C5.55992 42.3971 5.46023 43.499 5.42462 44.608C5.40326 45.1581 5.39436 45.7207 5.39792 46.2654L5.41394 47.1074L5.44243 47.9477L5.44955 48.131L5.45133 48.1186C5.43365 48.6038 5.48398 49.0892 5.60086 49.5605C5.65961 49.8632 5.72369 50.1943 5.7682 50.5592C5.81172 50.9195 5.82244 51.2829 5.80024 51.6451C6.07884 53.5261 6.50139 55.383 7.06417 57.1993C8.28182 59.2643 9.77896 60.5781 11.1497 62.6467C11.4241 62.9222 11.671 63.2239 11.8867 63.5474C12.1252 63.9017 12.3015 64.2257 12.4528 64.4909C12.5707 64.7084 12.7003 64.9193 12.8409 65.1229C12.9249 65.2465 13.0262 65.3574 13.1417 65.4522L13.2254 65.5217L13.366 65.6926C14.2134 66.7215 15.0447 67.6917 15.9562 68.6138C16.8505 69.5458 17.791 70.4323 18.7742 71.2699C19.7498 72.1155 20.7787 72.9023 21.8308 73.6553C22.3577 74.0309 22.8989 74.3888 23.4454 74.7395C23.716 74.9139 23.992 75.0866 24.2697 75.2557L24.6969 75.5138L25.0814 75.7399C25.3769 75.8699 25.6796 76.0123 25.9769 76.1743C26.3115 76.3576 26.6231 76.5517 26.9079 76.735C28.4127 77.4941 29.9619 78.1617 31.5471 78.7342C31.5791 78.6897 31.5987 78.6363 31.6289 78.5918ZM79.8684 42.3686C79.7771 40.1822 79.5014 38.0074 79.0442 35.8673C78.8128 34.801 78.5368 33.7436 78.2146 32.7022C78.0544 32.1841 77.8799 31.659 77.7001 31.157C77.5987 30.8757 77.5079 30.6354 77.4135 30.3861L77.1964 29.8378C77.0379 29.5904 76.883 29.3376 76.7406 29.083C76.559 28.7555 76.3988 28.4404 76.235 28.0844L76.1318 27.8583L76.0179 27.5877C75.9467 27.4168 75.8808 27.2441 75.8149 27.0714C75.7224 26.8187 75.6387 26.5623 75.5586 26.306C74.8051 24.8957 73.9619 23.5352 73.0343 22.2329C72.9275 22.3255 72.8313 22.4145 72.7121 22.5053C72.5674 22.616 72.4165 22.7183 72.2599 22.8115L71.838 23.05C71.8042 23.0714 71.7739 23.0927 71.7401 23.1141C71.911 23.358 72.1121 23.5823 72.2759 23.8315C73.727 26.0203 74.9262 28.366 75.8505 30.8241C76.082 31.4382 76.2974 32.056 76.4932 32.6844C76.5911 32.9959 76.6872 33.3092 76.778 33.6296L76.9062 34.0978L77.0308 34.5749C77.1127 34.8936 77.1892 35.2104 77.2604 35.5362L77.3637 36.0115L77.3886 36.129L77.41 36.2252L77.4652 36.4566L77.5773 36.9123L77.6361 37.1437L77.645 37.174L77.6628 37.2488L77.6734 37.3057L77.6966 37.4214C77.7571 37.7276 77.8248 38.0338 77.896 38.3418L77.9191 38.445L77.9155 38.5483C77.9164 38.7541 77.9475 38.9587 78.0081 39.1553L78.2395 39.9689C78.3257 40.2804 78.387 40.5983 78.4229 40.9195C78.459 41.2643 78.4524 41.6123 78.4033 41.9556L78.4122 41.831C78.4158 42.041 78.4122 42.2511 78.398 42.4629C78.3873 42.6676 78.3642 42.8955 78.3374 43.0949C78.2817 43.4734 78.1972 43.8472 78.0847 44.2128C78.0281 46.1555 77.8101 48.0901 77.4331 49.9967C77.2444 50.9633 77.0112 51.9193 76.7335 52.8645C76.5982 53.3345 76.4469 53.808 76.292 54.2745L76.0499 54.9687C75.968 55.2001 75.8808 55.428 75.7936 55.6594C75.701 55.8926 75.612 56.1223 75.523 56.343L75.2702 57.0106C75.0886 57.477 74.8892 57.9345 74.6756 58.3849C74.4335 58.8887 74.1433 59.3604 73.8727 59.8446L73.8674 59.8625L73.8158 59.9977L73.7659 60.1081C73.725 60.2007 73.6894 60.2755 73.6502 60.3573C73.5701 60.5193 73.4847 60.6742 73.3939 60.8255C73.1762 61.1729 72.9397 61.5081 72.6854 61.8296C72.3382 62.3636 71.9947 62.9048 71.6315 63.4228L70.7806 64.6191C70.4739 65 70.147 65.3643 69.8015 65.7104C69.2532 66.3815 68.7636 67.1665 68.1583 67.9213C67.8501 68.3103 67.5082 68.6713 67.1365 69.0001C66.7497 69.3398 66.3178 69.6244 65.853 69.8457L65.9242 69.8066C65.7818 69.8991 65.6696 70.0006 65.5397 70.0985C65.1534 70.4332 64.7974 70.7981 64.3986 71.1168C62.3432 72.7517 60.1112 74.1514 57.7443 75.2895C57.1532 75.5726 56.5545 75.8402 55.9481 76.0924C55.6472 76.2135 55.3428 76.3381 55.0313 76.4556L54.5773 76.6247L54.1109 76.7902C53.8012 76.9006 53.4932 77.0039 53.1745 77.1035L52.7099 77.246L52.596 77.2833L52.5016 77.3118L52.2755 77.3884L51.8323 77.5379L51.6044 77.618L51.5759 77.6287L51.5029 77.6536L51.4477 77.6696L51.3356 77.7017C51.0347 77.7907 50.7351 77.8833 50.4366 77.9794L50.3316 78.015L50.2319 78.0186C50.027 78.0377 49.8261 78.0869 49.6355 78.1645L48.8433 78.4654C48.5405 78.5782 48.2292 78.6669 47.9123 78.7306C47.5724 78.7968 47.2255 78.8202 46.8798 78.8001L47.0026 78.7983C46.7961 78.8196 46.5843 78.8357 46.3742 78.841C46.1659 78.8463 45.9363 78.8446 45.7369 78.8357C45.3567 78.8134 44.9787 78.7617 44.6065 78.6808C43.8464 78.7235 43.0844 78.7271 42.3207 78.7199C42.0995 78.75 41.8764 78.7648 41.6532 78.7645C41.4376 78.7503 41.223 78.7235 41.0105 78.6843C40.2664 78.6505 39.5241 78.6167 38.7835 78.5366C37.8044 78.4333 36.8307 78.282 35.8658 78.0898C35.3869 77.9954 34.9009 77.8886 34.4221 77.7711L33.71 77.5931C33.4892 77.5343 33.2703 77.472 33.0513 77.4115C32.957 77.5878 32.8555 77.7587 32.7487 77.9278C32.5333 78.2696 32.3036 78.59 32.106 78.914L32.0954 78.9371C32.4122 79.0475 32.7184 79.181 33.0371 79.2843C35.2099 79.9798 37.4413 80.4767 39.7039 80.7689C41.986 81.0581 44.2903 81.1302 46.5861 80.9843C47.7343 80.9114 48.8896 80.7725 50.02 80.5874L50.8781 80.4307L51.7255 80.258L52.5746 80.0622C52.7028 80.032 52.831 79.9981 52.9591 79.9643C53.8322 79.4837 54.7314 79.0522 55.6525 78.6719C55.9786 78.4594 56.3244 78.2788 56.6851 78.1325C57.0803 77.9723 57.431 77.8655 57.7247 77.7747C58.0166 77.6803 58.2481 77.602 58.4207 77.5255C58.5584 77.4667 58.6876 77.3901 58.8053 77.2976L58.8925 77.2299L59.0865 77.1249C60.2668 76.5054 61.3847 75.8912 62.476 75.1898C63.5761 74.5063 64.6282 73.7586 65.6518 72.9735C66.6808 72.1902 67.6617 71.3446 68.6141 70.4706C69.0876 70.0291 69.5487 69.5734 70.0044 69.1105C70.2305 68.8809 70.4566 68.6441 70.6791 68.4091L71.0173 68.0424L71.3182 67.7131C71.5069 67.4514 71.7063 67.1843 71.9252 66.9262C72.1744 66.6343 72.4272 66.3708 72.6658 66.1269C73.5452 65.0392 74.3481 63.8946 75.1171 62.725C75.1723 62.6235 75.2399 62.531 75.2951 62.4295C75.5799 61.9061 75.8505 61.3738 76.1069 60.8416L76.908 59.17L76.9133 59.1593L76.9987 59.0275C77.6187 57.977 78.0337 56.8184 78.2217 55.6131L78.2182 55.6238L78.2484 55.5081L78.6757 53.8241C78.7505 53.5357 78.8092 53.2971 78.8751 53.0194C78.9374 52.7506 78.9979 52.4782 79.0549 52.2112C79.2792 51.1253 79.4607 50.0394 79.6049 48.9464C79.8766 46.765 79.9647 44.5647 79.8684 42.3686Z" fill="#4FA600"/>
</svg>
