<svg width="78" height="80" viewBox="0 0 78 80" fill="none" xmlns="http://www.w3.org/2000/svg">
<path d="M3.59874 79.9489V69.2284C6.80375 66.0357 10.3266 63.1789 14.1124 60.7024C14.3075 60.5782 14.4757 60.416 14.6068 60.2255C14.7379 60.035 14.8293 59.8201 14.8756 59.5935C14.9219 59.3669 14.9221 59.1333 14.8762 58.9066C14.8303 58.68 14.7393 58.4648 14.6085 58.2741C14.3361 57.8856 13.9237 57.6179 13.4579 57.5273C12.9922 57.4367 12.5095 57.5301 12.1113 57.7881C9.1096 59.7506 6.26366 61.9416 3.59874 64.3415V54.1137C3.60836 53.5082 3.85774 52.9313 4.29217 52.5095C4.72659 52.0877 5.31059 51.8554 5.91606 51.8636H13.1102C13.3443 51.87 13.5774 51.8294 13.7956 51.7443C14.0138 51.6591 14.2127 51.531 14.3806 51.3677C14.5484 51.2043 14.6819 51.009 14.773 50.7932C14.8641 50.5774 14.9111 50.3456 14.9111 50.1113C14.9111 49.8771 14.8641 49.6452 14.773 49.4295C14.6819 49.2137 14.5484 49.0183 14.3806 48.855C14.2127 48.6916 14.0138 48.5636 13.7956 48.4784C13.5774 48.3932 13.3443 48.3526 13.1102 48.3591H5.91606C4.36893 48.3393 2.87716 48.9342 1.76806 50.013C0.658957 51.0918 0.0231002 52.5666 0 54.1137L0 79.9489L3.59874 79.9489Z" fill="#4FA600"/>
<path d="M25.07 51.8636H47.7588C43.3217 55.1944 38.4038 57.8311 33.1739 59.6833C33.1616 59.6864 33.1501 59.6922 33.1402 59.7001C33.127 59.7043 33.1135 59.7076 33.0999 59.7102C22.7592 63.8496 13.8268 70.8749 7.36719 79.9489H11.7983C17.7299 72.3857 25.5523 66.5217 34.4755 62.9491C41.4208 60.4811 47.8356 56.7196 53.3806 51.8636H71.9747C72.4142 51.8623 72.8452 51.9856 73.2176 52.2193C73.5899 52.4529 73.8884 52.7873 74.0784 53.1837C68.4491 56.9208 61.8393 58.9074 55.0824 58.8929C54.8483 58.8865 54.6152 58.9271 54.397 59.0123C54.1789 59.0974 53.9799 59.2255 53.8121 59.3888C53.6442 59.5522 53.5107 59.7475 53.4196 59.9633C53.3285 60.1791 53.2816 60.4109 53.2816 60.6452C53.2816 60.8794 53.3285 61.1113 53.4196 61.3271C53.5107 61.5429 53.6442 61.7382 53.8121 61.9015C53.9799 62.0649 54.1789 62.1929 54.397 62.2781C54.6152 62.3633 54.8483 62.4039 55.0824 62.3975C61.8313 62.4138 68.462 60.6268 74.2886 57.2213V72.7497C66.2871 68.8941 57.3153 67.5195 48.5264 68.8023C39.7375 70.0852 31.533 73.967 24.9674 79.9489H30.4714C36.7106 75.2965 44.1481 72.5216 51.91 71.9503C59.6718 71.3789 67.4354 73.0349 74.2886 76.7235V79.9489H77.8907V54.1136C77.8907 54.0514 77.8806 53.9926 77.8806 53.932C77.8806 53.9203 77.8756 53.9034 77.8756 53.89C77.7956 52.3848 77.1369 50.9688 76.0372 49.9381C74.9374 48.9073 73.4818 48.3415 71.9747 48.359H25.07C24.8359 48.3528 24.603 48.3935 24.385 48.4787C24.1669 48.564 23.9681 48.6921 23.8004 48.8554C23.6327 49.0187 23.4993 49.214 23.4083 49.4297C23.3173 49.6454 23.2704 49.8772 23.2704 50.1113C23.2704 50.3454 23.3173 50.5772 23.4083 50.7929C23.4993 51.0086 23.6327 51.2039 23.8004 51.3672C23.9681 51.5305 24.1669 51.6586 24.385 51.7439C24.603 51.8291 24.8359 51.8698 25.07 51.8636Z" fill="#4FA600"/>
<path d="M18.419 51.8636H19.6348C19.8683 51.8689 20.1005 51.8275 20.3177 51.7418C20.535 51.6562 20.7329 51.5279 20.8999 51.3647C21.0669 51.2015 21.1996 51.0065 21.2902 50.7912C21.3808 50.576 21.4275 50.3448 21.4275 50.1113C21.4275 49.8778 21.3808 49.6466 21.2902 49.4314C21.1996 49.2161 21.0669 49.0211 20.8999 48.8579C20.7329 48.6947 20.535 48.5664 20.3177 48.4808C20.1005 48.3951 19.8683 48.3537 19.6348 48.359H18.419C18.1849 48.3528 17.952 48.3935 17.734 48.4787C17.5159 48.564 17.3172 48.6921 17.1494 48.8554C16.9817 49.0187 16.8484 49.214 16.7573 49.4297C16.6663 49.6454 16.6194 49.8772 16.6194 50.1113C16.6194 50.3454 16.6663 50.5772 16.7573 50.7929C16.8484 51.0086 16.9817 51.2039 17.1494 51.3672C17.3172 51.5305 17.5159 51.6586 17.734 51.7439C17.952 51.8291 18.1849 51.8698 18.419 51.8636Z" fill="#4FA600"/>
<path d="M14.7605 25.4632C18.5089 26.4537 21.5527 26.7497 24.7243 29.1343C24.9112 29.2723 25.0842 29.4283 25.2406 29.6001L26.2159 30.7117C26.6924 31.3064 27.0804 31.9668 27.3679 32.6725C28.2612 34.7548 28.896 36.9387 29.258 39.1754L29.7289 41.8056C29.7979 42.2226 29.7508 42.4463 30.0013 42.6565C30.3835 39.7697 31.0154 36.9215 31.8898 34.1439C32.5726 31.7342 34.1307 29.6663 36.2588 28.3456C38.5344 27.1378 40.9824 26.2876 43.5168 25.8248C44.1003 25.6936 44.62 25.6045 45.1514 25.4632C44.9277 25.3052 41.2331 24.4576 40.6159 24.2844C40.1098 24.1398 39.5582 23.9464 39.0907 23.8018C37.2064 23.2333 35.496 22.1986 34.118 20.7933C33.4949 20.0192 32.9559 19.1809 32.5104 18.2927C31.4383 15.6473 30.6918 12.8814 30.2872 10.0559C30.1514 9.43209 30.056 8.80016 30.0013 8.16406C29.7508 8.37427 29.7995 8.53907 29.7474 8.92922C29.3353 12.0977 28.5478 15.2059 27.4015 18.1884C26.9765 19.088 26.4373 19.929 25.7972 20.6907C23.4429 23.3578 18.9293 24.5434 15.5425 25.1942C15.5122 25.1975 15.196 25.2631 15.1506 25.2732L14.7605 25.4632Z" fill="#4FA600"/>
<path d="M49.021 32.1954C50.1932 32.4041 51.3311 32.7731 52.4028 33.2918C52.7107 33.4864 52.9937 33.7179 53.2453 33.9813C53.4813 34.2761 53.6843 34.5958 53.8507 34.9348C54.0155 35.3157 54.1542 35.7073 54.2661 36.1069C54.5419 37.1327 54.5671 37.575 54.7403 38.478C54.8025 38.7942 54.6865 38.6193 54.8715 38.774C55.0125 37.4509 55.331 36.1528 55.8182 34.9146L56.3278 34.1041C56.849 33.4899 57.539 33.042 58.3121 32.8159L60.0661 32.34C60.6429 32.2122 60.4815 32.3299 60.611 32.1332C59.8244 31.9909 59.0489 31.7931 58.2903 31.5412C56.2033 30.7693 55.5391 29.493 55.1069 26.9957C55.0006 26.5424 54.922 26.083 54.8715 25.6201C54.6932 25.7681 54.6108 26.619 54.5604 26.9099C53.844 31.0266 52.46 31.2503 49.6331 32.0087L49.021 32.1954Z" fill="#4FA600"/>
<path d="M41.1414 9.72429C42.7357 10.0019 44.2829 10.5029 45.7373 11.2126C46.1547 11.4771 46.5387 11.791 46.8808 12.1476C47.2052 12.5482 47.4823 12.985 47.7065 13.4492C47.9342 13.9652 48.1231 14.4975 48.2716 15.0417C48.6483 16.4341 48.6802 17.0328 48.9173 18.2637C49.0014 18.6942 48.8433 18.4538 49.0939 18.664C49.2867 16.866 49.7194 15.102 50.3804 13.4189L51.0732 12.3157C51.7836 11.4806 52.7231 10.872 53.7756 10.5651L56.1585 9.91768C56.9422 9.74447 56.7252 9.90422 56.8968 9.63516C55.8285 9.44169 54.7749 9.17423 53.7437 8.83469C50.9084 7.78702 50.0037 6.04315 49.4168 2.65293C49.2715 2.03611 49.1637 1.41108 49.0939 0.78125C48.8534 0.981367 48.7408 2.14003 48.6718 2.53858C47.6981 8.13176 45.8147 8.43278 41.9738 9.46531L41.1414 9.72429Z" fill="#4FA600"/>
</svg>
