<svg width="81" height="43" viewBox="0 0 81 43" fill="none" xmlns="http://www.w3.org/2000/svg">
<path d="M59.3194 0.882813C53.9689 0.936554 48.8415 3.03454 44.988 6.74684C43.081 8.82514 41.3103 11.0246 39.6872 13.3315L33.5826 21.7271L33.5896 21.7379L29.537 27.3196C29.128 27.8856 28.6053 28.5631 28.399 28.8071C27.4361 29.8445 26.2681 30.6704 24.9692 31.2327C23.6702 31.7949 22.2686 32.0811 20.8532 32.0731C19.1666 32.073 17.5057 31.6602 16.0153 30.8707C14.525 30.0812 13.2504 28.9391 12.3029 27.5438C11.3553 26.1486 10.7636 24.5427 10.5793 22.8662C10.3949 21.1897 10.6237 19.4936 11.2454 17.9259C11.8672 16.3581 12.8632 14.9663 14.1464 13.8718C15.4297 12.7774 16.9613 12.0136 18.6075 11.6471C20.2538 11.2806 21.9647 11.3224 23.5911 11.7691C25.2175 12.2157 26.7098 13.0535 27.938 14.2094C29.4789 15.6959 30.7848 17.4082 31.8109 19.2874L38.3087 10.3334L37.888 9.75159C37.0501 8.60065 36.1211 7.51885 35.1099 6.51664C32.628 4.192 29.6153 2.50956 26.3342 1.61593C23.0531 0.722311 19.6033 0.644613 16.2853 1.38961C12.9674 2.13461 9.88192 3.67971 7.29785 5.89026C4.71378 8.10081 2.7095 10.9097 1.45964 14.0723C0.209785 17.2349 -0.247717 20.6551 0.126999 24.035C0.501714 27.4149 1.69728 30.6518 3.60951 33.4638C5.52175 36.2758 8.09263 38.5775 11.0982 40.1684C14.1037 41.7592 17.4526 42.5909 20.8532 42.5911C23.6509 42.6014 26.4217 42.0437 28.9975 40.9518C31.5734 39.8599 33.9009 38.2565 35.8389 36.2387C36.6414 35.3773 37.3816 34.4599 38.0539 33.4935L50.7327 16.0227C51.1729 15.424 51.6428 14.8478 52.1407 14.2962C53.049 13.3131 54.1639 12.5435 55.4052 12.0428C56.6464 11.542 57.9832 11.3225 59.3194 11.4001C61.0279 11.4003 62.7097 11.824 64.2144 12.6332C65.7191 13.4425 66.9997 14.6121 67.9417 16.0375C68.8837 17.4628 69.4577 19.0994 69.6124 20.8009C69.7671 22.5024 69.4976 24.2157 68.828 25.7875C68.1584 27.3594 67.1097 28.7407 65.7756 29.808C64.4415 30.8754 62.8636 31.5953 61.1832 31.9036C59.5027 32.2118 57.772 32.0987 56.146 31.5743C54.5199 31.05 53.0492 30.1308 51.8654 28.8989L51.7789 28.8071C50.5366 27.3429 49.3934 25.7975 48.3568 24.1811L41.8605 33.1332L42.1168 33.4866C42.7887 34.4561 43.5296 35.3758 44.3337 36.2387C46.7287 38.7134 49.6992 40.5565 52.9801 41.6033C56.261 42.6501 59.75 42.8681 63.1357 42.2378C66.5213 41.6075 69.6982 40.1485 72.3825 37.9911C75.0669 35.8338 77.1751 33.0452 78.5191 29.8744C79.863 26.7037 80.4008 23.2494 80.0843 19.8202C79.7679 16.3909 78.6071 13.0934 76.7056 10.2221C74.8041 7.35087 72.2211 4.99521 69.1872 3.36553C66.1534 1.73585 62.7632 0.88289 59.3194 0.882813Z" fill="#4FA600"/>
</svg>
