<svg width="68" height="68" viewBox="0 0 68 68" fill="none" xmlns="http://www.w3.org/2000/svg">
<path d="M26.9804 34.1703C26.9817 32.6952 27.4079 31.2516 28.2081 30.0124C22.9125 29.3993 19.6557 23.0116 17.4024 20.278C14.0016 16.1631 8.93996 19.143 6.98421 23.8213C5.02709 28.5204 3.83953 37.8437 6.45272 42.0099C9.08529 46.1968 13.1795 46.0681 17.1477 44.5704C19.9865 43.4978 25.6669 40.5593 28.6759 38.9717C27.5783 37.6123 26.9798 35.9176 26.9804 34.1703Z" fill="#4FA600"/>
<path d="M29.7635 28.2428C30.9201 27.2712 32.339 26.6646 33.8405 26.5C35.3421 26.3354 36.8587 26.6202 38.1983 27.3183C38.5028 21.7638 45.1769 18.388 47.9839 16.071C52.0781 12.673 49.1175 7.60997 44.4198 5.65284C39.7402 3.69572 30.4182 2.50815 26.2313 5.14211C22.0651 7.7553 22.1911 11.8481 23.6901 15.8163C24.8693 18.9721 28.3753 25.6407 29.7635 28.2428Z" fill="#4FA600"/>
<path d="M63.12 24.9193C60.4874 20.7351 56.3932 20.8805 52.425 22.3587C49.2388 23.5698 42.3999 27.1602 39.8809 28.5C40.6697 29.2194 41.3001 30.095 41.7322 31.0713C42.1642 32.0476 42.3883 33.1031 42.3902 34.1707C42.3893 35.1321 42.2056 36.0847 41.8491 36.9776C46.8623 37.9105 49.9835 44.02 52.1703 46.6539C55.5697 50.7661 60.6341 47.7861 62.5885 43.1078C64.5636 38.4088 65.7346 29.1062 63.12 24.9193Z" fill="#4FA600"/>
<path d="M40.2327 39.4883C39.0871 40.6903 37.582 41.4878 35.944 41.7606C34.306 42.0335 32.6237 41.7669 31.1502 41.0011C29.9364 45.7389 24.1563 48.7438 21.6068 50.8587C17.4946 54.2595 20.4539 59.3225 25.1529 61.2796C29.8506 63.234 39.1545 64.4216 43.3414 61.7904C47.527 59.1772 47.3816 55.0816 45.8827 51.1148C44.8114 48.2441 41.812 42.4683 40.2327 39.4883Z" fill="#4FA600"/>
<path fill-rule="evenodd" clip-rule="evenodd" d="M34.6765 39.7822C35.7891 39.784 36.8772 39.4555 37.8031 38.8385C38.7289 38.2215 39.4508 37.3436 39.8774 36.3161C40.304 35.2885 40.4161 34.1574 40.1995 33.0661C39.9829 31.9748 39.4473 30.9723 38.6606 30.1856C37.8738 29.3988 36.8713 28.8633 35.78 28.6466C34.6887 28.43 33.5577 28.5421 32.5301 28.9687C31.5025 29.3953 30.6246 30.1172 30.0076 31.0431C29.3906 31.9689 29.0622 33.057 29.064 34.1696C29.0684 35.6568 29.6612 37.0818 30.7128 38.1334C31.7644 39.185 33.1894 39.7777 34.6765 39.7822Z" fill="#4FA600"/>
<path fill-rule="evenodd" clip-rule="evenodd" d="M33.5793 0.773473C35.2624 0.771 36.9431 0.899184 38.6063 1.15687C37.3029 0.993865 35.9904 0.914348 34.6769 0.918804C25.8793 0.920148 17.4411 4.40931 11.2118 10.6215C4.98242 16.8338 1.47004 25.2623 1.44448 34.0598H0.0742188C0.134215 25.2124 3.6904 16.7476 9.96708 10.5119C16.2438 4.27621 24.7316 0.775531 33.5793 0.773473Z" fill="#4FA600"/>
<path fill-rule="evenodd" clip-rule="evenodd" d="M34.4197 67.4024C32.7378 67.4002 31.0583 67.2772 29.394 67.0342C30.6987 67.1817 32.0106 67.2551 33.3235 67.2543C42.1211 67.2532 50.5594 63.7641 56.7889 57.5518C63.0183 51.3395 66.5306 42.9109 66.5559 34.1133H67.9262C67.8667 42.9614 64.3106 51.4269 58.0335 57.6632C51.7565 63.8995 43.268 67.4005 34.4197 67.4024Z" fill="#4FA600"/>
<path fill-rule="evenodd" clip-rule="evenodd" d="M50.6172 6.47456L51.2746 5.36035C57.0491 8.73117 61.6738 13.7639 64.5454 19.8021C61.6308 14.6214 57.3746 10.3213 52.2241 7.35346C51.694 7.04204 51.1653 6.74999 50.6172 6.47456Z" fill="#4FA600"/>
<path fill-rule="evenodd" clip-rule="evenodd" d="M18.7553 61.8443L18.0964 62.9765C12.3206 59.5951 7.6916 54.5592 4.80762 48.5195C7.73558 53.6963 11.9962 57.9947 17.1469 60.9682C17.677 61.2796 18.2071 61.5716 18.7553 61.8443Z" fill="#4FA600"/>
</svg>
