<svg width="68" height="70" viewBox="0 0 68 70" fill="none" xmlns="http://www.w3.org/2000/svg">
<path d="M0.601562 54.2807C0.601562 60.1821 1.84651 64.8823 7.1602 67.5294C11.2667 69.5751 17.5337 69.9467 23.6437 69.9467H37.8835C43.8302 69.9467 50.3148 69.569 54.2793 67.5732C56.3635 66.6298 58.0861 65.037 59.1896 63.0331C61.3335 59.4417 61.4347 52.8197 59.8363 48.6406C59.2312 47.0507 58.4411 45.5375 57.4823 44.1322C57.262 43.7972 57.0229 43.4748 56.7662 43.1668C55.5381 41.6033 54.1685 40.1563 52.6748 38.8442C52.06 38.2847 51.4062 37.7697 50.7182 37.3031C48.0386 35.3001 45.1026 33.6654 41.9885 32.4427C38.4248 30.9514 34.6242 30.1062 30.7643 29.9468C27.8482 30.0397 24.9608 30.5536 22.1917 31.4727C15.8037 33.4334 10.0703 37.0969 5.60703 42.0699C3.94435 43.9853 2.63063 46.1775 1.72564 48.5469C1.03125 50.3814 0.651228 52.3198 0.601562 54.2807ZM55.4215 53.7488C56.0955 55.0655 56.3304 56.5634 56.0919 58.0232C55.8534 59.483 55.154 60.8282 54.0961 61.862C53.0381 62.8958 51.6772 63.5639 50.2122 63.7686C48.7473 63.9734 47.2553 63.704 45.9545 62.9998C48.3181 62.6825 50.5162 61.6108 52.2219 59.944C53.9276 58.2773 55.0498 56.1045 55.4215 53.7488Z" fill="#4FA600"/>
<path d="M18.4639 13.7643C18.386 14.3398 18.423 14.9251 18.5726 15.4862C18.7223 16.0474 18.9816 16.5734 19.3356 17.0338C21.1335 19.2456 21.3949 17.8572 21.8542 19.3076C22.2169 20.4979 22.7308 21.6368 23.3832 22.6964C20.6981 23.4408 18.0846 24.4227 15.5736 25.6305C13.2166 26.7666 10.9691 28.1169 8.85934 29.6645C6.73205 31.1134 4.65916 32.9476 2.72677 34.2696C1.94566 34.8075 -0.577476 35.4859 0.306376 38.1329C0.490963 38.6388 0.832766 39.0722 1.28167 39.3697C1.73058 39.6671 2.26297 39.813 2.8008 39.7858C5.01119 39.7858 8.52544 36.3365 10.4412 34.9933C13.8519 32.3676 17.6295 30.2566 21.6533 28.7278C27.5273 26.5257 34.0002 26.5257 39.8742 28.7278C43.8593 30.2628 47.6044 32.36 50.9957 34.9555C51.5184 35.3499 51.9671 35.6566 52.4718 36.0706C53.4055 36.832 54.2969 37.4666 55.2668 38.1918C56.6493 39.2313 58.8672 40.7028 60.6108 39.0802C60.9207 38.7813 61.1517 38.4102 61.2831 38.0001C61.4144 37.5901 61.442 37.1538 61.3634 36.7305C61.2849 36.3071 61.1025 35.9099 60.8327 35.5743C60.5629 35.2387 60.2141 34.9752 59.8176 34.8075C58.9333 34.403 58.1157 33.8666 57.3926 33.2165L52.7331 29.7234C50.605 28.2097 48.3678 26.8553 46.04 25.6713C44.6741 24.9929 39.8575 22.8626 38.1412 22.8234C38.6921 21.7452 39.1833 20.6376 39.6128 19.5055C40.0358 18.1488 39.788 19.0356 41.2898 17.9448C44.7693 15.4217 42.778 9.61997 38.7894 9.61997C38.094 9.54983 37.3917 9.6385 36.7356 9.87928C36.0795 10.1201 35.4866 10.5067 35.0016 11.01C34.5439 11.4969 34.1955 12.0759 33.9797 12.7083C33.7638 13.3408 33.6856 14.012 33.7501 14.6771C33.8146 15.3423 34.0204 15.9859 34.3537 16.5651C34.6871 17.1443 35.1403 17.6456 35.683 18.0355C35.4443 18.528 35.2872 19.1051 35.0379 19.5931C33.4983 22.6224 31.9089 21.7884 30.7637 21.7884C29.5943 21.7884 28.097 22.6254 26.5303 19.6778C26.2356 19.1218 26.1012 18.5703 25.8428 18.0355C26.3856 17.6457 26.8389 17.1445 27.1724 16.5653C27.5059 15.9862 27.7118 15.3426 27.7765 14.6775C27.8411 14.0124 27.763 13.3411 27.5473 12.7086C27.3316 12.0761 26.9833 11.497 26.5257 11.01C25.9088 10.3577 25.1175 9.89656 24.2459 9.6814C23.3743 9.46624 22.4592 9.50616 21.6097 9.7964C20.7601 10.0866 20.0119 10.615 19.4542 11.3184C18.8964 12.0219 18.5527 12.8709 18.4639 13.7643ZM41.8322 13.1765C42.0928 13.6844 42.1838 14.2624 42.0921 14.8258C42.0003 15.3892 41.7306 15.9085 41.3223 16.3074C40.914 16.7064 40.3887 16.9642 39.8234 17.0429C39.258 17.1217 38.6823 17.0174 38.1805 16.7452C39.092 16.6222 39.9396 16.2086 40.5975 15.5657C41.2553 14.9229 41.6883 14.085 41.8322 13.1765Z" fill="#4FA600"/>
<path d="M61.2242 0.916992C62.7933 0.917065 64.3126 1.46765 65.5175 2.47281C66.7223 3.47797 67.5363 4.874 67.8177 6.41765C68.099 7.96131 67.8298 9.55475 67.0571 10.9203C66.2843 12.2859 65.0569 13.3371 63.5887 13.8907C63.1682 11.8167 62.0468 9.95054 60.4129 8.60573C58.7789 7.26091 56.7319 6.51937 54.6157 6.50566C54.8788 4.94323 55.687 3.52456 56.8968 2.50145C58.1066 1.47834 59.6398 0.916975 61.2242 0.916992Z" fill="#4FA600"/>
<path d="M54.2363 8.52295C55.774 8.52295 57.2771 8.9789 58.5556 9.83315C59.8342 10.6874 60.8307 11.9016 61.4192 13.3222C62.0077 14.7427 62.1618 16.3059 61.8619 17.8141C61.562 19.3222 60.8217 20.7076 59.7345 21.795C58.6473 22.8824 57.2621 23.623 55.754 23.9231C54.2459 24.2233 52.6827 24.0695 51.262 23.4813C49.8413 22.8931 48.627 21.8968 47.7725 20.6184C46.918 19.34 46.4617 17.837 46.4614 16.2993C46.4613 15.2782 46.6623 14.2671 47.053 13.3237C47.4437 12.3802 48.0163 11.523 48.7383 10.8009C49.4603 10.0788 50.3174 9.50596 51.2607 9.11511C52.2041 8.72426 53.2152 8.52304 54.2363 8.52295Z" fill="#4FA600"/>
</svg>
