<svg width="76" height="77" viewBox="0 0 76 77" fill="none" xmlns="http://www.w3.org/2000/svg">
<path d="M0.240234 0.607422V18.0686H4.38036V20.5426H0.240234V27.3086H4.38036V29.7827H0.240234V36.547H4.38036V39.021H0.240234V45.7853H4.38036V48.2593H0.240234V55.0236H4.38036V57.4976H0.240234V64.2654H4.38036V66.7394H0.240234V76.126H75.7588L0.240234 0.607422ZM13.5242 32.6894L43.6793 62.8434H13.5242V32.6894Z" fill="#4FA600"/>
<path fill-rule="evenodd" clip-rule="evenodd" d="M68.6559 40.9568L29.0342 1.33594L20.5603 9.80831L59.9831 49.26L60.1489 49.4275L72.8711 53.6427L68.6559 40.9568ZM31.0924 16.6162L24.3178 9.80833L29.0336 5.09234L35.8414 11.8654L31.0924 16.6162ZM61.2167 47.6967L61.1432 47.6231C61.2957 47.3649 61.4752 47.1235 61.6786 46.9031C62.1266 46.4634 62.6768 46.142 63.2798 45.9678C63.8828 45.7936 64.5197 45.772 65.1331 45.9051C64.997 45.297 65.017 44.6645 65.1912 44.0662C65.3653 43.468 65.6881 42.9236 66.1293 42.4837C66.3383 42.2682 66.577 42.0837 66.8382 41.9358L66.9252 42.0228L69.2608 49.0532L68.2768 50.0366L61.2167 47.6967Z" fill="#4FA600"/>
</svg>
