<svg width="88" height="75" viewBox="0 0 88 75" fill="none" xmlns="http://www.w3.org/2000/svg">
<path d="M15.9784 64.4166H8.11409V68.4674L0.248047 60.364L8.11409 52.2607V56.3133H15.9784V64.4166Z" fill="#4FA600"/>
<path d="M74.6329 39.7329C74.4558 39.5862 74.3731 39.4625 74.2043 39.3147L71.5017 36.9412C71.3266 36.7934 71.2403 36.6707 71.0732 36.5208L69.2622 34.948C68.4223 34.275 66.5337 32.4129 65.6491 31.707C65.2809 31.4124 65.0609 31.1782 64.6938 30.8861L47.9987 16.0163C47.836 15.9001 47.6856 15.7675 47.55 15.6206L46.596 14.7959C46.2864 15.0024 45.9642 15.3241 45.6664 15.5569C43.6786 17.1021 40.9781 19.5931 38.9448 21.1905C37.1804 22.5755 34.9378 24.6392 33.1907 26.0129L31.2574 27.6363C30.6311 28.194 30.0041 28.6604 29.3585 29.2057L24.5323 33.2627C24.2019 33.5573 23.8853 33.7792 23.5599 34.0682L16.8446 39.709C16.5712 39.9239 15.9634 40.3628 15.9634 40.6038V72.8423C15.9634 73.9592 16.7347 74.3883 17.7189 74.5361L50.5902 74.4807V52.2587H64.307V74.4614L73.0855 74.4516C73.3843 74.4902 73.6878 74.4642 73.9756 74.3751C74.2634 74.286 74.5286 74.1361 74.7532 73.9354C74.9779 73.7347 75.1567 73.4881 75.2776 73.2121C75.3984 72.9362 75.4585 72.6375 75.4536 72.3363V40.6038C75.4536 40.2996 74.8499 39.9151 74.6329 39.7329ZM23.8455 68.4658V64.4148H15.9802V56.3103H23.8455V52.2587L31.7115 60.3623L23.8455 68.4658Z" fill="#4FA600"/>
<path d="M69.6958 18.6955C69.6854 19.6338 69.8401 19.4496 71.033 20.4894L77.3969 25.8855C77.605 26.0506 77.6467 26.1556 77.9063 26.2248V9.38379H69.6133V12.5168C69.6133 13.646 69.6993 14.4785 69.6993 15.5616C69.6993 16.6063 69.7096 17.6523 69.6958 18.6955Z" fill="#4FA600"/>
<path d="M80.0687 30.9979C79.1664 30.2986 78.3628 29.4121 77.5022 28.6565L74.328 25.822C74.1235 25.6029 73.9049 25.3974 73.6736 25.2069L67.9401 20.0244C67.728 19.8125 67.5039 19.6132 67.2687 19.4273C66.0159 18.3808 64.1031 16.4189 62.8311 15.4032L61.5504 14.2275C61.3024 13.9714 61.1595 13.9036 60.9151 13.6768L55.8307 9.03132C55.6103 8.85942 55.402 8.67255 55.2072 8.47204L50.7199 4.40965C50.4807 4.17066 50.3257 4.10353 50.083 3.86239L46.8484 0.920898C46.41 1.30121 45.9986 1.67626 45.5577 2.08617C45.3236 2.30456 45.1739 2.3926 44.924 2.63517C44.3112 3.23265 43.5508 3.76779 42.9329 4.36848L35.0232 11.3514C34.7841 11.586 34.6344 11.6492 34.3864 11.8992L32.7772 13.3347C31.8784 14.0898 30.5563 15.3704 29.7543 15.9832L27.4493 17.9934C27.3099 18.1171 27.2534 18.2036 27.1066 18.3277L21.824 22.9472C20.9394 23.6925 20.0944 24.5875 19.1769 25.2914C18.7483 25.6185 18.3197 26.0832 17.8804 26.45L13.9079 29.9232C13.6585 30.1662 13.5087 30.254 13.2726 30.4725L12.6016 31.0699C11.2328 32.2196 10.0261 33.4243 8.65745 34.5746L6.67329 36.3144C6.43219 36.5502 6.2564 36.6532 5.99732 36.9066C5.74743 37.149 5.5818 37.2333 5.31882 37.497C5.13626 37.6841 4.70605 37.8597 4.70605 38.1529C5.06069 38.7683 5.56432 39.2847 6.17064 39.6545C6.77697 40.0244 7.46654 40.236 8.17598 40.2697C9.67697 40.1971 11.1165 39.6513 12.2884 38.7106L13.5068 37.7292C15.0218 36.5589 17.9716 33.9836 19.3266 32.803C21.2628 31.1161 23.2941 29.5515 25.2049 27.849L31.6167 22.4152C31.8454 22.2364 31.98 22.0832 32.2072 21.906L37.4763 17.443C37.6672 17.264 37.8238 17.1584 38.0286 16.9802L40.9603 14.4961C41.4042 14.148 41.7208 13.8349 42.1583 13.4926C42.5765 13.1657 42.9005 12.854 43.3065 12.527L46.8484 9.55254L52.3982 14.4961C53.1489 15.0765 53.8891 15.875 54.6137 16.5118L55.7551 17.4858C55.9495 17.6581 56.0629 17.8197 56.2662 17.9885L64.6677 25.4966C65.2479 25.9424 65.6923 26.4843 66.2755 26.9355L67.9794 28.4484C68.1832 28.6169 68.2946 28.7769 68.4929 28.9506C68.73 29.1628 68.8454 29.2143 69.0831 29.4568C70.1291 30.529 71.3811 31.3934 72.426 32.4637C72.5976 32.6314 72.7798 32.7878 72.9716 32.932C73.2004 33.1215 73.2916 33.2713 73.5395 33.4642L78.0133 37.4533C79.9087 39.2953 83.5837 41.0424 86.1639 39.473C86.8212 39.1334 87.3414 38.5778 87.6372 37.8996L80.0687 30.9979Z" fill="#4FA600"/>
</svg>
