<svg width="163" height="115" viewBox="0 0 163 115" fill="none" xmlns="http://www.w3.org/2000/svg">
<path d="M12.5386 93.8488V26.9868L61.363 1.3916L109.905 26.9868V93.8488" stroke="#4FA600" stroke-width="2" stroke-miterlimit="10"/>
<path d="M21.3232 93.8488V39.2559H100.312V93.8488" stroke="#4FA600" stroke-width="2" stroke-miterlimit="10"/>
<path d="M0.0180664 93.8496H123.683" stroke="#4FA600" stroke-width="2" stroke-miterlimit="10"/>
<path d="M60.2174 76.8252H36.8477V89.8741H60.2174V76.8252Z" stroke="#4FA600" stroke-width="2" stroke-miterlimit="10"/>
<path d="M86.8531 76.8252H63.4834V89.8741H86.8531V76.8252Z" stroke="#4FA600" stroke-width="2" stroke-miterlimit="10"/>
<path d="M74.7649 60.8477H48.5322V73.8966H74.7649V60.8477Z" stroke="#4FA600" stroke-width="2" stroke-miterlimit="10"/>
<path d="M52.8438 18.2227V29.4207" stroke="#4FA600" stroke-width="2" stroke-miterlimit="10"/>
<path d="M60.2173 18.2227V29.4207" stroke="#4FA600" stroke-width="2" stroke-miterlimit="10"/>
<path d="M52.8438 23.8223H60.2178" stroke="#4FA600" stroke-width="2" stroke-miterlimit="10"/>
<path d="M63.4829 23.8213L67.6922 18.2227H69.4784V29.42" stroke="#4FA600" stroke-width="2" stroke-miterlimit="10"/>
<path d="M139.803 92.1659C150.693 92.1659 159.521 83.3378 159.521 72.4477C159.521 61.5576 150.693 52.7295 139.803 52.7295C128.913 52.7295 120.085 61.5576 120.085 72.4477C120.085 83.3378 128.913 92.1659 139.803 92.1659Z" stroke="#4FA600" stroke-width="2" stroke-miterlimit="10"/>
<path d="M139.803 88.6904C148.773 88.6904 156.045 81.4185 156.045 72.4482C156.045 63.4779 148.773 56.2061 139.803 56.2061C130.832 56.2061 123.561 63.4779 123.561 72.4482C123.561 81.4185 130.832 88.6904 139.803 88.6904Z" stroke="#4FA600" stroke-width="2" stroke-miterlimit="10"/>
<path d="M148.001 67.2168L138.354 76.8637L131.606 70.1157L128.715 73.0073L135.461 79.7553L138.354 82.6468L141.246 79.7553L150.893 70.1084L148.001 67.2168Z" stroke="#4FA600" stroke-width="2" stroke-miterlimit="10"/>
<path d="M126.857 87.3154L117.983 105.845L125.126 103.327L128.044 111.608L137.556 91.7414" stroke="#4FA600" stroke-width="2" stroke-miterlimit="10"/>
<path d="M151.807 87.3154L160.679 105.845L153.536 103.327L150.619 111.608L141.105 91.7414" stroke="#4FA600" stroke-width="2" stroke-miterlimit="10"/>
</svg>
