<svg width="87" height="105" viewBox="0 0 87 105" fill="none" xmlns="http://www.w3.org/2000/svg">
<path d="M38.6408 97.5446H1.01807V1.17676H71.451V80.0165" stroke="#4FA600" stroke-width="2" stroke-miterlimit="10"/>
<path d="M22.7502 17.666H13.2969V27.1193H22.7502V17.666Z" stroke="#4FA600" stroke-width="2" stroke-miterlimit="10"/>
<path d="M28.7026 22.3916H60.3537" stroke="#4FA600" stroke-width="2" stroke-miterlimit="10"/>
<path d="M22.7502 34.0869H13.2969V43.5402H22.7502V34.0869Z" stroke="#4FA600" stroke-width="2" stroke-miterlimit="10"/>
<path d="M28.7026 38.8145H60.3537" stroke="#4FA600" stroke-width="2" stroke-miterlimit="10"/>
<path d="M22.7502 50.5068H13.2969V59.9602H22.7502V50.5068Z" stroke="#4FA600" stroke-width="2" stroke-miterlimit="10"/>
<path d="M28.7026 55.2334H60.3537" stroke="#4FA600" stroke-width="2" stroke-miterlimit="10"/>
<path d="M22.7502 66.9277H13.2969V76.3811H22.7502V66.9277Z" stroke="#4FA600" stroke-width="2" stroke-miterlimit="10"/>
<path d="M28.7026 71.6543H60.3537" stroke="#4FA600" stroke-width="2" stroke-miterlimit="10"/>
<path d="M52.4399 94.8322H56.2091C56.9254 94.8322 57.6124 94.5476 58.1189 94.0412C58.6254 93.5347 58.9099 92.8477 58.9099 92.1314V92.1314C58.9099 91.4151 58.6254 90.7282 58.1189 90.2217C57.6124 89.7152 56.9254 89.4307 56.2091 89.4307H52.4399V98.0732" stroke="#4FA600" stroke-width="2" stroke-miterlimit="10"/>
<path d="M77.8951 89.4307H71.9131V98.0732" stroke="#4FA600" stroke-width="2" stroke-miterlimit="10"/>
<path d="M71.9131 93.752H77.8951" stroke="#4FA600" stroke-width="2" stroke-miterlimit="10"/>
<path d="M61.8765 97.6312H64.6565C65.744 97.6312 66.7869 97.1992 67.5559 96.4303C68.3248 95.6613 68.7568 94.6184 68.7568 93.5309C68.7568 92.4435 68.3248 91.4006 67.5559 90.6316C66.7869 89.8627 65.744 89.4307 64.6565 89.4307H61.8765V97.6312Z" stroke="#4FA600" stroke-width="2" stroke-miterlimit="10"/>
<path d="M85.1481 83.5635H43.8369V103.251H85.1481V83.5635Z" stroke="#4FA600" stroke-width="2" stroke-miterlimit="10"/>
</svg>
