<svg width="146" height="93" viewBox="0 0 146 93" fill="none" xmlns="http://www.w3.org/2000/svg">
<path d="M17.0181 55.606V56.994L43.0657 71.9467L52.531 66.6408V65.1328L26.0181 50L17.0181 55.606Z" stroke="#4FA600" stroke-width="2" stroke-miterlimit="10"/>
<path d="M25.7405 50.1299L21.521 47.7171V46.2706L30.0181 41.5L57.094 55.7974V57.364L48.0181 62.5" stroke="#4FA600" stroke-width="2" stroke-miterlimit="10"/>
<path d="M29.7311 41.5693L25.3184 39.0936V37.647L34.7852 32.0996L60.7112 47.0523V48.5604L52.7803 53.304" stroke="#4FA600" stroke-width="2" stroke-miterlimit="10"/>
<path d="M124.477 77.694V83.9943C124.477 85.0196 124.275 86.0348 123.882 86.982C123.49 87.9293 122.915 88.7899 122.19 89.5149C121.465 90.2399 120.604 90.8149 119.657 91.2073C118.71 91.5996 117.695 91.8016 116.669 91.8015H8.82526C6.75466 91.8015 4.76887 90.979 3.30474 89.5149C1.84061 88.0507 1.01807 86.0649 1.01807 83.9943V9.37556C1.01807 7.30496 1.84061 5.31917 3.30474 3.85503C4.76887 2.3909 6.75466 1.56836 8.82526 1.56836H116.669C118.74 1.56836 120.726 2.3909 122.19 3.85503C123.654 5.31917 124.477 7.30496 124.477 9.37556V39.1687" stroke="#4FA600" stroke-width="2" stroke-miterlimit="10"/>
<path d="M139.322 39.1689H89.3169C86.5482 39.1689 84.3037 41.4134 84.3037 44.1821V72.6811C84.3037 75.4498 86.5482 77.6943 89.3169 77.6943H139.322C142.091 77.6943 144.335 75.4498 144.335 72.6811V44.1821C144.335 41.4134 142.091 39.1689 139.322 39.1689Z" stroke="#4FA600" stroke-width="2" stroke-miterlimit="10"/>
<path d="M1.01807 14.877H79.0355" stroke="#4FA600" stroke-width="2" stroke-miterlimit="10"/>
<path d="M97.8608 14.877H124.476" stroke="#4FA600" stroke-width="2" stroke-miterlimit="10"/>
<path d="M82.6055 14.877H93.3166" stroke="#4FA600" stroke-width="2" stroke-miterlimit="10"/>
<path d="M12.0094 10.4933C13.2642 10.4933 14.2814 9.4761 14.2814 8.22128C14.2814 6.96646 13.2642 5.94922 12.0094 5.94922C10.7545 5.94922 9.7373 6.96646 9.7373 8.22128C9.7373 9.4761 10.7545 10.4933 12.0094 10.4933Z" stroke="#4FA600" stroke-width="2" stroke-miterlimit="10"/>
<path d="M20.7735 10.4933C22.0284 10.4933 23.0456 9.4761 23.0456 8.22128C23.0456 6.96646 22.0284 5.94922 20.7735 5.94922C19.5187 5.94922 18.5015 6.96646 18.5015 8.22128C18.5015 9.4761 19.5187 10.4933 20.7735 10.4933Z" stroke="#4FA600" stroke-width="2" stroke-miterlimit="10"/>
<path d="M30.0182 10.4933C31.273 10.4933 32.2902 9.4761 32.2902 8.22128C32.2902 6.96646 31.273 5.94922 30.0182 5.94922C28.7633 5.94922 27.7461 6.96646 27.7461 8.22128C27.7461 9.4761 28.7633 10.4933 30.0182 10.4933Z" stroke="#4FA600" stroke-width="2" stroke-miterlimit="10"/>
<path d="M105.327 47.458H92.019V60.7658H105.327V47.458Z" stroke="#4FA600" stroke-width="2" stroke-miterlimit="10"/>
<path d="M91.0454 68.0029H99.8091" stroke="#4FA600" stroke-width="2" stroke-miterlimit="10"/>
<path d="M91.0454 71.1641H105.327" stroke="#4FA600" stroke-width="2" stroke-miterlimit="10"/>
<path d="M103.217 68.0029H111.98" stroke="#4FA600" stroke-width="2" stroke-miterlimit="10"/>
<path d="M116.038 68.0029H124.801" stroke="#4FA600" stroke-width="2" stroke-miterlimit="10"/>
<path d="M128.209 68.0029H136.973" stroke="#4FA600" stroke-width="2" stroke-miterlimit="10"/>
<path d="M62.2974 24.6953H17.3196C14.7492 24.6953 12.6655 26.779 12.6655 29.3494V74.3272C12.6655 76.8976 14.7492 78.9813 17.3196 78.9813H62.2974C64.8678 78.9813 66.9515 76.8976 66.9515 74.3272V29.3494C66.9515 26.779 64.8678 24.6953 62.2974 24.6953Z" stroke="#4FA600" stroke-width="2" stroke-miterlimit="10"/>
</svg>
