<svg width="101" height="124" viewBox="0 0 101 124" fill="none" xmlns="http://www.w3.org/2000/svg">
<path d="M53.3114 117.175H19.9771V20.5791H76.9726V98.5126" stroke="#4FA600" stroke-width="2" stroke-miterlimit="10"/>
<path d="M20.1771 118.058L1.01807 99.5977V3L20.1771 21.4607" stroke="#4FA600" stroke-width="2" stroke-miterlimit="10"/>
<path d="M39.3688 37.2979H29.9155V46.7512H39.3688V37.2979Z" stroke="#4FA600" stroke-width="2" stroke-miterlimit="10"/>
<path d="M45.3213 42.0244H66.619" stroke="#4FA600" stroke-width="2" stroke-miterlimit="10"/>
<path d="M39.3688 53.7168H29.9155V63.1701H39.3688V53.7168Z" stroke="#4FA600" stroke-width="2" stroke-miterlimit="10"/>
<path d="M45.3213 58.4434H66.619" stroke="#4FA600" stroke-width="2" stroke-miterlimit="10"/>
<path d="M39.3688 70.1396H29.9155V79.593H39.3688V70.1396Z" stroke="#4FA600" stroke-width="2" stroke-miterlimit="10"/>
<path d="M45.3213 74.8652H66.619" stroke="#4FA600" stroke-width="2" stroke-miterlimit="10"/>
<path d="M39.3688 86.5586H29.9155V96.0119H39.3688V86.5586Z" stroke="#4FA600" stroke-width="2" stroke-miterlimit="10"/>
<path d="M45.3213 91.2861H66.619" stroke="#4FA600" stroke-width="2" stroke-miterlimit="10"/>
<path d="M66.3833 114.464H70.1525C70.8688 114.464 71.5557 114.179 72.0622 113.673C72.5687 113.166 72.8532 112.48 72.8532 111.763V111.763C72.8532 111.047 72.5687 110.36 72.0622 109.854C71.5557 109.347 70.8687 109.062 70.1525 109.062H66.3833V117.705" stroke="#4FA600" stroke-width="2" stroke-miterlimit="10"/>
<path d="M91.839 109.062H85.8569V117.705" stroke="#4FA600" stroke-width="2" stroke-miterlimit="10"/>
<path d="M85.8569 113.383H91.839" stroke="#4FA600" stroke-width="2" stroke-miterlimit="10"/>
<path d="M75.8198 117.263H78.5999C79.6874 117.263 80.7303 116.831 81.4992 116.062C82.2682 115.293 82.7002 114.25 82.7002 113.163V113.163C82.7002 112.075 82.2682 111.032 81.4992 110.263C80.7303 109.494 79.6874 109.063 78.5999 109.062H75.8198V117.263Z" stroke="#4FA600" stroke-width="2" stroke-miterlimit="10"/>
<path d="M99.0925 103.194H57.7812V122.882H99.0925V103.194Z" stroke="#4FA600" stroke-width="2" stroke-miterlimit="10"/>
</svg>
