<svg width="28" height="28" viewBox="0 0 28 28" fill="none" xmlns="http://www.w3.org/2000/svg">
<path d="M9.81787 1.01562H4.07743C2.37781 1.01562 1 2.39344 1 4.09306V9.8335C1 11.5331 2.37781 12.9109 4.07743 12.9109H9.81787C11.5175 12.9109 12.8953 11.5331 12.8953 9.8335V4.09306C12.8953 2.39344 11.5175 1.01562 9.81787 1.01562Z" stroke="#707070" stroke-miterlimit="10"/>
<path d="M23.8594 1.01562H18.1189C16.4193 1.01562 15.0415 2.39344 15.0415 4.09306V9.8335C15.0415 11.5331 16.4193 12.9109 18.1189 12.9109H23.8594C25.559 12.9109 26.9368 11.5331 26.9368 9.8335V4.09306C26.9368 2.39344 25.559 1.01562 23.8594 1.01562Z" stroke="#707070" stroke-miterlimit="10"/>
<path d="M9.81787 14.8145H4.07743C2.37781 14.8145 1 16.1923 1 17.8919V23.6323C1 25.3319 2.37781 26.7098 4.07743 26.7098H9.81787C11.5175 26.7098 12.8953 25.3319 12.8953 23.6323V17.8919C12.8953 16.1923 11.5175 14.8145 9.81787 14.8145Z" stroke="#707070" stroke-miterlimit="10"/>
<path d="M23.8594 14.8145H18.1189C16.4193 14.8145 15.0415 16.1923 15.0415 17.8919V23.6323C15.0415 25.3319 16.4193 26.7098 18.1189 26.7098H23.8594C25.559 26.7098 26.9368 25.3319 26.9368 23.6323V17.8919C26.9368 16.1923 25.559 14.8145 23.8594 14.8145Z" stroke="#707070" stroke-miterlimit="10"/>
<path d="M4.43018 6.96289H9.3816" stroke="#707070" stroke-miterlimit="10"/>
<path d="M6.90674 9.43873V4.4873" stroke="#707070" stroke-miterlimit="10"/>
<path d="M5.15674 22.5129L8.65793 19.0117" stroke="#707070" stroke-miterlimit="10"/>
<path d="M8.65793 22.5129L5.15674 19.0117" stroke="#707070" stroke-miterlimit="10"/>
<path d="M18.5142 6.96289H23.4656" stroke="#707070" stroke-miterlimit="10"/>
<path d="M18.5142 19.9365H23.4656" stroke="#707070" stroke-miterlimit="10"/>
<path d="M18.5142 21.5869H23.4656" stroke="#707070" stroke-miterlimit="10"/>
</svg>
