<svg width="53" height="43" viewBox="0 0 53 43" fill="none" xmlns="http://www.w3.org/2000/svg">
<path d="M1 11.2381L1 37.7553C1 40.1185 2.91572 42.0342 5.27887 42.0342H42.8884C45.2516 42.0342 47.1673 40.1185 47.1673 37.7553V11.2381C47.1673 8.87497 45.2516 6.95925 42.8884 6.95925H5.27887C2.91572 6.95925 1 8.87497 1 11.2381Z" stroke="#707070" stroke-miterlimit="10"/>
<path d="M6.05078 6.95935V5.27887C6.05078 4.14404 6.50159 3.0557 7.30403 2.25325C8.10648 1.45081 9.19482 1 10.3297 1H47.9392C48.5011 0.999999 49.0575 1.11067 49.5767 1.32571C50.0958 1.54074 50.5675 1.85592 50.9648 2.25325C51.3622 2.65058 51.6773 3.12228 51.8924 3.64142C52.1074 4.16055 52.2181 4.71696 52.2181 5.27887V31.7961C52.2181 32.358 52.1074 32.9144 51.8924 33.4335C51.6773 33.9527 51.3622 34.4243 50.9648 34.8217C50.5675 35.219 50.0958 35.5342 49.5767 35.7492C49.0575 35.9643 48.5011 36.0749 47.9392 36.0749H47.1668" stroke="#707070" stroke-miterlimit="10"/>
<path d="M11.5596 25.9162V27.9132L27.7386 37.0752L33.2746 33.8762V31.8832L17.1576 22.5332L11.5596 25.9162Z" stroke="#707070" stroke-miterlimit="10"/>
<path d="M11.5596 25.916L27.7686 35.144L33.2746 31.883" stroke="#707070" stroke-miterlimit="10"/>
<path d="M27.7695 35.1436V37.075" stroke="#707070" stroke-miterlimit="10"/>
<path d="M16.9121 17.6613V19.6573L33.0901 28.8193L38.6261 25.6203V23.6273L22.5101 14.2773L16.9121 17.6613Z" stroke="#707070" stroke-miterlimit="10"/>
<path d="M16.9121 17.6611L33.1211 26.8881L38.6261 23.6271" stroke="#707070" stroke-miterlimit="10"/>
<path d="M33.1211 26.8877V28.8192" stroke="#707070" stroke-miterlimit="10"/>
<path d="M11.3494 12.0068H5.90137V17.4548H11.3494V12.0068Z" stroke="#707070" stroke-miterlimit="10"/>
</svg>
