<svg width="58" height="43" viewBox="0 0 58 43" fill="none" xmlns="http://www.w3.org/2000/svg">
<path d="M37.3247 5.15039L29.2393 16.0588" stroke="#707070" stroke-miterlimit="10"/>
<path d="M29.931 9.32481C31.0837 9.32481 32.0182 8.39034 32.0182 7.2376C32.0182 6.08487 31.0837 5.15039 29.931 5.15039C28.7782 5.15039 27.8438 6.08487 27.8438 7.2376C27.8438 8.39034 28.7782 9.32481 29.931 9.32481Z" stroke="#707070" stroke-miterlimit="10"/>
<path d="M36.8851 16.0582C38.0378 16.0582 38.9723 15.1237 38.9723 13.971C38.9723 12.8183 38.0378 11.8838 36.8851 11.8838C35.7323 11.8838 34.7979 12.8183 34.7979 13.971C34.7979 15.1237 35.7323 16.0582 36.8851 16.0582Z" stroke="#707070" stroke-miterlimit="10"/>
<path d="M33.5651 20.3256C38.9017 20.3256 43.2279 15.9994 43.2279 10.6628C43.2279 5.32618 38.9017 1 33.5651 1C28.2285 1 23.9023 5.32618 23.9023 10.6628C23.9023 15.9994 28.2285 20.3256 33.5651 20.3256Z" stroke="#707070" stroke-miterlimit="10"/>
<path d="M24.1859 6.90459L15.6159 1.93359L1.17188 10.6636V17.8156L42.9179 41.4566L57.2029 33.2026V26.0596L44.2489 18.5446" stroke="#707070" stroke-miterlimit="10"/>
<path d="M1.17188 10.6631L42.9969 34.4721L57.2029 26.0591" stroke="#707070" stroke-miterlimit="10"/>
<path d="M42.9971 34.4727V41.4567" stroke="#707070" stroke-miterlimit="10"/>
<path d="M1 14.834L22.2825 26.6937" stroke="#707070" stroke-miterlimit="10"/>
<path d="M29.1875 30.6621L42.9969 38.6469" stroke="#707070" stroke-miterlimit="10"/>
<path d="M47.0036 32.084L43.0918 38.6478" stroke="#707070" stroke-miterlimit="10"/>
<path d="M52.7182 28.8018L46.2451 39.6634" stroke="#707070" stroke-miterlimit="10"/>
<path d="M57.2029 28.5664L52.8955 35.7941" stroke="#707070" stroke-miterlimit="10"/>
</svg>
