<svg width="54" height="45" viewBox="0 0 54 45" fill="none" xmlns="http://www.w3.org/2000/svg">
<path d="M0 44.4082H53.7385" stroke="#707070" stroke-miterlimit="10"/>
<path d="M49.4152 44.4075V31.9375H17.1592V34.7635" stroke="#707070" stroke-miterlimit="10"/>
<path d="M21.3574 44.4077V35.9277H4.02441V44.4077" stroke="#707070" stroke-miterlimit="10"/>
<path d="M32.1455 35.9277V41.2484" stroke="#707070" stroke-miterlimit="10"/>
<path d="M37.6514 35.9277V41.2484" stroke="#707070" stroke-miterlimit="10"/>
<path d="M43.0029 35.9277V41.2484" stroke="#707070" stroke-miterlimit="10"/>
<path d="M7.16797 40.168H12.6906" stroke="#707070" stroke-miterlimit="10"/>
<path d="M6.35059 33.933V23.458H22.8116L26.5866 27.232V31.938" stroke="#707070" stroke-miterlimit="10"/>
<path d="M24.1416 21.3803V11.9023H30.7926V30.2753" stroke="#707070" stroke-miterlimit="10"/>
<path d="M36.1973 31.6048L37.6513 19.7998H42.5153L44.4273 31.9378" stroke="#707070" stroke-miterlimit="10"/>
<path d="M40.3125 14.6455V19.7999" stroke="#707070" stroke-miterlimit="10"/>
<path d="M27.4676 8.99249C27.5026 8.43401 27.4156 7.8746 27.2125 7.35316C27.0094 6.83172 26.6952 6.36078 26.2917 5.97308C25.8882 5.58539 25.405 5.29025 24.8759 5.10819C24.3467 4.92613 23.7843 4.86153 23.2277 4.91887C19.4312 4.91887 19.3203 0.512695 19.3203 0.512695" stroke="#707070" stroke-miterlimit="10"/>
<path d="M40.2693 13.2318C40.3044 12.6733 40.2173 12.1139 40.0142 11.5924C39.8112 11.071 39.497 10.6 39.0934 10.2123C38.6899 9.82465 38.2068 9.52951 37.6777 9.34745C37.1485 9.16539 36.5861 9.10079 36.0294 9.15812C32.2329 9.15812 32.1221 4.75195 32.1221 4.75195" stroke="#707070" stroke-miterlimit="10"/>
<path d="M26.0547 14.6455H30.7934" stroke="#707070" stroke-miterlimit="10"/>
<path d="M26.0547 16.8066H30.7934" stroke="#707070" stroke-miterlimit="10"/>
<path d="M39.1064 22.585H42.9537" stroke="#707070" stroke-miterlimit="10"/>
</svg>
