<svg width="43" height="45" viewBox="0 0 43 45" fill="none" xmlns="http://www.w3.org/2000/svg">
<path d="M32.9855 19.5141C32.9845 18.6388 32.7614 17.778 32.3369 17.0125C31.9124 16.247 31.3005 15.6018 30.5585 15.1374C31.0845 14.4053 31.4091 13.548 31.4999 12.6511C31.5907 11.7542 31.4445 10.8492 31.0759 10.0266C30.7073 9.20389 30.1293 8.49238 29.3995 7.96314C28.6698 7.4339 27.8139 7.10547 26.9174 7.01069C26.9678 6.7362 26.9959 6.45807 27.0013 6.17904C26.9994 4.80481 26.4521 3.48752 25.4797 2.51647C24.5073 1.54542 23.1893 1 21.815 1C20.4408 1 19.1227 1.54542 18.1503 2.51647C17.1779 3.48752 16.6307 4.80481 16.6288 6.17904C16.6351 6.44114 16.6614 6.70237 16.7075 6.96046C16.6808 6.96006 16.6558 6.95246 16.6288 6.95246C15.6412 6.94734 14.6729 7.22576 13.8389 7.75467C13.0048 8.28357 12.3401 9.04074 11.9237 9.93624C11.5072 10.8317 11.3565 11.828 11.4895 12.8066C11.6225 13.7852 12.0335 14.7051 12.6738 15.457C11.8038 15.8452 11.0584 16.4668 10.5202 17.2529C9.98193 18.039 9.67194 18.9587 9.62455 19.9102C9.57716 20.8617 9.79424 21.8077 10.2517 22.6434C10.7092 23.479 11.3892 24.1716 12.2162 24.6444C11.7308 25.4279 11.4641 26.3271 11.4438 27.2486C11.4234 28.1701 11.6502 29.0802 12.1006 29.8844C12.551 30.6886 13.2084 31.3575 14.0048 31.8216C14.8011 32.2858 15.7071 32.5282 16.6288 32.5237H27.0012C28.016 32.5259 29.009 32.2297 29.8567 31.672C30.7045 31.1143 31.3695 30.3196 31.7692 29.3869C32.1689 28.4542 32.2855 27.4245 32.1046 26.426C31.9236 25.4275 31.4531 24.5043 30.7516 23.7711C31.4406 23.2952 32.0038 22.6592 32.3929 21.9177C32.782 21.1763 32.9853 20.3515 32.9855 19.5141Z" stroke="#707070" stroke-miterlimit="10"/>
<path d="M17.2594 3.70085C16.6473 2.79322 15.76 2.10609 14.7281 1.74058C13.6961 1.37508 12.5741 1.35052 11.5272 1.67052C10.4802 1.99052 9.5637 2.63818 8.91245 3.51815C8.2612 4.39813 7.90966 5.46393 7.90958 6.55868C7.9158 6.817 7.94174 7.07447 7.9872 7.32883C7.9608 7.32843 7.9362 7.32098 7.90958 7.32098C6.93624 7.31593 5.98189 7.59033 5.15988 8.1116C4.33788 8.63288 3.68275 9.37912 3.2723 10.2617C2.86185 11.1443 2.71333 12.1261 2.84437 13.0906C2.97542 14.0551 3.38053 14.9617 4.01158 15.7028C3.15416 16.0855 2.41948 16.6981 1.88901 17.4728C1.35853 18.2475 1.053 19.154 1.00629 20.0918C0.959587 21.0296 1.17353 21.9619 1.62439 22.7855C2.07526 23.6091 2.74543 24.2917 3.56058 24.7577C3.08219 25.5299 2.81932 26.4162 2.79928 27.3244C2.77924 28.2325 3.00276 29.1295 3.44662 29.9221C3.89048 30.7147 4.53849 31.3739 5.32331 31.8314C6.10813 32.2888 7.00113 32.5278 7.90952 32.5234H18.1324" stroke="#707070" stroke-miterlimit="10"/>
<path d="M21.8154 12.7246V44.5909" stroke="#707070" stroke-miterlimit="10"/>
<path d="M12.2939 32.5234V44.5912" stroke="#707070" stroke-miterlimit="10"/>
<path d="M31.207 32.5234V44.5912" stroke="#707070" stroke-miterlimit="10"/>
<path d="M5.0918 44.2871H38.0794" stroke="#707070" stroke-miterlimit="10"/>
<path d="M17.1592 15.9717L21.8152 19.0362" stroke="#707070" stroke-miterlimit="10"/>
<path d="M6.83496 16.3652L10.2962 18.6434" stroke="#707070" stroke-miterlimit="10"/>
<path d="M6.83496 25.3301L11.6691 28.5118" stroke="#707070" stroke-miterlimit="10"/>
<path d="M26.1151 2.77513C26.848 2.10945 27.7584 1.67093 28.7357 1.51284C29.7131 1.35476 30.7153 1.48393 31.6207 1.88464C32.526 2.28536 33.2955 2.94038 33.8356 3.77013C34.3758 4.59987 34.6633 5.56862 34.6633 6.55868C34.6571 6.817 34.6312 7.07447 34.5857 7.32884C34.6121 7.32844 34.6367 7.32098 34.6633 7.32098C35.6367 7.31593 36.591 7.59033 37.413 8.11161C38.235 8.63288 38.8902 9.37912 39.3006 10.2617C39.7111 11.1443 39.8596 12.1261 39.7285 13.0906C39.5975 14.0551 39.1924 14.9617 38.5613 15.7028C39.4187 16.0855 40.1534 16.6981 40.6839 17.4728C41.2143 18.2476 41.5199 19.1541 41.5666 20.0918C41.6133 21.0296 41.3993 21.962 40.9485 22.7855C40.4976 23.6091 39.8274 24.2918 39.0123 24.7577C39.4907 25.5299 39.7535 26.4162 39.7736 27.3244C39.7936 28.2325 39.5701 29.1295 39.1262 29.9221C38.6824 30.7147 38.0344 31.3739 37.2495 31.8314C36.4647 32.2888 35.5717 32.5278 34.6633 32.5234H24.4404" stroke="#707070" stroke-miterlimit="10"/>
<path d="M36.1243 18.6426L32.6631 20.9207" stroke="#707070" stroke-miterlimit="10"/>
<path d="M35.3437 26.4414L31.9766 28.6576" stroke="#707070" stroke-miterlimit="10"/>
<path d="M17.1592 26.0752L21.8152 29.1397" stroke="#707070" stroke-miterlimit="10"/>
<path d="M26.4714 21.3467L21.8154 24.4112" stroke="#707070" stroke-miterlimit="10"/>
</svg>
