<svg width="98" height="130" viewBox="0 0 98 130" fill="none" xmlns="http://www.w3.org/2000/svg">
<ellipse cx="48.9836" cy="121.412" rx="10.4282" ry="8.11079" fill="#95DB00"/>
<rect x="46.6662" y="64.6357" width="4.63474" height="57.9342" rx="2.31737" fill="#95DB00"/>
<g filter="url(#filter0_d_328_1164)">
<circle cx="48.9836" cy="39.1448" r="34.7605" fill="url(#paint0_linear_328_1164)"/>
<circle cx="48.9836" cy="39.1448" r="36.7605" stroke="white" stroke-width="4"/>
</g>
<path d="M42.7194 44.4111V35.379H39.3122V33.0113H50.871L56.3544 40.5465V30.7761L63.0483 24.082H41.032L35.0793 30.0342V52.0504L35.0799 52.051V52.0504L42.7194 44.4111Z" fill="white"/>
<path d="M58.6507 31.5873V44.675H56.4735L50.99 37.1399V44.675H48.4553V35.1399H45.0494V45.1883L36.6349 53.6029H36.6331L36.6349 53.6047L58.6507 53.6029L64.6021 47.652V25.6357L58.6507 31.5873Z" fill="white"/>
<defs>
<filter id="filter0_d_328_1164" x="0.223022" y="0.384277" width="97.5211" height="112.521" filterUnits="userSpaceOnUse" color-interpolation-filters="sRGB">
<feFlood flood-opacity="0" result="BackgroundImageFix"/>
<feColorMatrix in="SourceAlpha" type="matrix" values="0 0 0 0 0 0 0 0 0 0 0 0 0 0 0 0 0 0 127 0" result="hardAlpha"/>
<feOffset dy="25"/>
<feGaussianBlur stdDeviation="5"/>
<feComposite in2="hardAlpha" operator="out"/>
<feColorMatrix type="matrix" values="0 0 0 0 0 0 0 0 0 0 0 0 0 0 0 0 0 0 0.2 0"/>
<feBlend mode="normal" in2="BackgroundImageFix" result="effect1_dropShadow_328_1164"/>
<feBlend mode="normal" in="SourceGraphic" in2="effect1_dropShadow_328_1164" result="shape"/>
</filter>
<linearGradient id="paint0_linear_328_1164" x1="48.9836" y1="4.38428" x2="48.9836" y2="73.9054" gradientUnits="userSpaceOnUse">
<stop stop-color="#95DB00"/>
<stop offset="1" stop-color="#4FA600"/>
</linearGradient>
</defs>
</svg>
