<svg width="79" height="78" viewBox="0 0 79 78" fill="none" xmlns="http://www.w3.org/2000/svg">
<path d="M28.2451 0.776367H9.01709C4.58937 0.776367 1 4.36574 1 8.79346V28.0215C1 32.4492 4.58937 36.0386 9.01709 36.0386H28.2451C32.6728 36.0386 36.2622 32.4492 36.2622 28.0215V8.79346C36.2622 4.36574 32.6728 0.776367 28.2451 0.776367Z" stroke="#707070" stroke-width="1.5" stroke-miterlimit="10"/>
<path d="M69.87 0.776367H50.642C46.2143 0.776367 42.6249 4.36574 42.6249 8.79346V28.0215C42.6249 32.4492 46.2143 36.0386 50.642 36.0386H69.87C74.2977 36.0386 77.8871 32.4492 77.8871 28.0215V8.79346C77.8871 4.36574 74.2977 0.776367 69.87 0.776367Z" stroke="#707070" stroke-width="1.5" stroke-miterlimit="10"/>
<path d="M28.2451 41.0371H9.01709C4.58937 41.0371 1 44.6265 1 49.0542V68.2822C1 72.7099 4.58937 76.2993 9.01709 76.2993H28.2451C32.6728 76.2993 36.2622 72.7099 36.2622 68.2822V49.0542C36.2622 44.6265 32.6728 41.0371 28.2451 41.0371Z" stroke="#707070" stroke-width="1.5" stroke-miterlimit="10"/>
<path d="M69.87 41.0371H50.642C46.2143 41.0371 42.6249 44.6265 42.6249 49.0542V68.2822C42.6249 72.7099 46.2143 76.2993 50.642 76.2993H69.87C74.2977 76.2993 77.8871 72.7099 77.8871 68.2822V49.0542C77.8871 44.6265 74.2977 41.0371 69.87 41.0371Z" stroke="#707070" stroke-width="1.5" stroke-miterlimit="10"/>
<path d="M26.0496 54.9074C26.0496 57.9288 21.8044 66.305 19.7367 69.1086C19.608 69.2803 19.4411 69.4196 19.2492 69.5156C19.0573 69.6116 18.8456 69.6616 18.6311 69.6616C18.4165 69.6616 18.2049 69.6116 18.013 69.5156C17.8211 69.4196 17.6542 69.2803 17.5255 69.1086C15.4578 66.305 11.2125 57.9288 11.2125 54.9074C11.2376 52.9647 12.0332 51.1115 13.4244 49.7553C14.8155 48.3991 16.6884 47.651 18.6311 47.6754C20.5738 47.651 22.4466 48.3991 23.8378 49.7553C25.229 51.1115 26.0246 52.9647 26.0496 54.9074V54.9074Z" stroke="#707070" stroke-width="1.5" stroke-miterlimit="10"/>
<path d="M18.631 57.8815C20.2398 57.8815 21.5439 56.5773 21.5439 54.9686C21.5439 53.3598 20.2398 52.0557 18.631 52.0557C17.0223 52.0557 15.7181 53.3598 15.7181 54.9686C15.7181 56.5773 17.0223 57.8815 18.631 57.8815Z" stroke="#707070" stroke-width="1.5" stroke-miterlimit="10"/>
<path d="M18.7443 17.7333C21.201 17.7333 23.1925 15.7418 23.1925 13.2851C23.1925 10.8284 21.201 8.83691 18.7443 8.83691C16.2877 8.83691 14.2961 10.8284 14.2961 13.2851C14.2961 15.7418 16.2877 17.7333 18.7443 17.7333Z" stroke="#707070" stroke-width="1.5" stroke-miterlimit="10"/>
<path d="M55.808 53.9677C55.808 53.0879 56.0689 52.2279 56.5577 51.4964C57.0465 50.7649 57.7412 50.1948 58.554 49.8581C59.3668 49.5215 60.2612 49.4334 61.124 49.605C61.9869 49.7766 62.7795 50.2003 63.4016 50.8224C64.0237 51.4445 64.4473 52.2371 64.6189 53.0999C64.7906 53.9628 64.7025 54.8572 64.3658 55.67C64.0291 56.4828 63.459 57.1775 62.7275 57.6662C61.996 58.155 61.136 58.4159 60.2562 58.4159V62.5125" stroke="#707070" stroke-width="1.5" stroke-miterlimit="10"/>
<path d="M26.0495 26.9191H11.4392C11.4392 21.846 14.7098 17.7334 18.7443 17.7334C22.7789 17.7334 26.0495 21.846 26.0495 26.9191Z" stroke="#707070" stroke-width="1.5" stroke-miterlimit="10"/>
<path d="M60.256 64.8271V67.8167" stroke="#707070" stroke-width="1.5" stroke-miterlimit="10"/>
<path d="M66.1537 10.1523H54.3586C53.3523 10.1524 52.3872 10.5521 51.6756 11.2637C50.964 11.9753 50.5642 12.9404 50.5642 13.9468V19.9161C50.5642 20.9224 50.964 21.8876 51.6756 22.5991C52.3872 23.3107 53.3523 23.7105 54.3586 23.7105H55.2063V26.6631L58.159 23.7105H66.1537C66.652 23.7105 67.1454 23.6124 67.6058 23.4217C68.0661 23.231 68.4844 22.9515 68.8368 22.5992C69.1891 22.2468 69.4686 21.8285 69.6593 21.3682C69.85 20.9078 69.9481 20.4144 69.9481 19.9161V13.9468C69.9481 12.9404 69.5484 11.9753 68.8368 11.2637C68.1252 10.5521 67.1601 10.1523 66.1537 10.1523V10.1523Z" stroke="#707070" stroke-width="1.5" stroke-miterlimit="10"/>
<path d="M60.256 20.9881V19.5195" stroke="#707070" stroke-width="1.5" stroke-miterlimit="10"/>
<path d="M60.256 18.5411V12.791" stroke="#707070" stroke-width="1.5" stroke-miterlimit="10"/>
</svg>
