<svg width="87" height="78" viewBox="0 0 87 78" fill="none" xmlns="http://www.w3.org/2000/svg">
<path d="M63.3158 17.9102H24.3311V60.1842H63.3158V17.9102Z" stroke="#707070" stroke-width="1.5" stroke-miterlimit="10"/>
<path d="M60.8183 20.6689H26.8289V57.425H60.8183V20.6689Z" stroke="#707070" stroke-width="1.5" stroke-miterlimit="10"/>
<path d="M0 17.9102H24.3314" stroke="#707070" stroke-width="1.5" stroke-miterlimit="10"/>
<path d="M0 9.45508H87" stroke="#707070" stroke-width="1.5" stroke-miterlimit="10"/>
<path d="M0 1H87" stroke="#707070" stroke-width="1.5" stroke-miterlimit="10"/>
<path d="M0 43.2744H24.3314" stroke="#707070" stroke-width="1.5" stroke-miterlimit="10"/>
<path d="M0 34.8193H24.3314" stroke="#707070" stroke-width="1.5" stroke-miterlimit="10"/>
<path d="M0 26.3643H24.3314" stroke="#707070" stroke-width="1.5" stroke-miterlimit="10"/>
<path d="M0 68.6387H87" stroke="#707070" stroke-width="1.5" stroke-miterlimit="10"/>
<path d="M0 60.1836H24.3314" stroke="#707070" stroke-width="1.5" stroke-miterlimit="10"/>
<path d="M0 51.7285H24.3314" stroke="#707070" stroke-width="1.5" stroke-miterlimit="10"/>
<path d="M63.3161 17.9102H87" stroke="#707070" stroke-width="1.5" stroke-miterlimit="10"/>
<path d="M63.3161 43.2744H87" stroke="#707070" stroke-width="1.5" stroke-miterlimit="10"/>
<path d="M63.3161 34.8193H87" stroke="#707070" stroke-width="1.5" stroke-miterlimit="10"/>
<path d="M63.3161 26.3643H87" stroke="#707070" stroke-width="1.5" stroke-miterlimit="10"/>
<path d="M63.3161 60.1836H87" stroke="#707070" stroke-width="1.5" stroke-miterlimit="10"/>
<path d="M63.3161 51.7285H87" stroke="#707070" stroke-width="1.5" stroke-miterlimit="10"/>
<path d="M0 77.0928H87" stroke="#707070" stroke-width="1.5" stroke-miterlimit="10"/>
<path d="M43.8236 9.45508V14.5119" stroke="#707070" stroke-width="1.5" stroke-miterlimit="10"/>
<path d="M43.8236 63.457V68.2737" stroke="#707070" stroke-width="1.5" stroke-miterlimit="10"/>
<path d="M7.09261 9.45508V17.7847" stroke="#707070" stroke-width="1.5" stroke-miterlimit="10"/>
<path d="M79.8041 9.45508V17.7847" stroke="#707070" stroke-width="1.5" stroke-miterlimit="10"/>
<path d="M69.0006 1.125V9.45459" stroke="#707070" stroke-width="1.5" stroke-miterlimit="10"/>
<path d="M19.222 1.125V9.45459" stroke="#707070" stroke-width="1.5" stroke-miterlimit="10"/>
<path d="M69.0006 68.7637V77.0933" stroke="#707070" stroke-width="1.5" stroke-miterlimit="10"/>
<path d="M19.222 68.7637V77.0933" stroke="#707070" stroke-width="1.5" stroke-miterlimit="10"/>
<path d="M7.09261 26.3643V34.6939" stroke="#707070" stroke-width="1.5" stroke-miterlimit="10"/>
<path d="M44.7372 20.6689V57.425" stroke="#707070" stroke-width="1.5" stroke-miterlimit="10"/>
<path d="M42.91 20.6689V57.425" stroke="#707070" stroke-width="1.5" stroke-miterlimit="10"/>
<path d="M79.8041 26.3643V34.6939" stroke="#707070" stroke-width="1.5" stroke-miterlimit="10"/>
<path d="M7.09261 43.2744V51.604" stroke="#707070" stroke-width="1.5" stroke-miterlimit="10"/>
<path d="M79.8041 43.2744V51.604" stroke="#707070" stroke-width="1.5" stroke-miterlimit="10"/>
<path d="M7.09261 59.9434V68.273" stroke="#707070" stroke-width="1.5" stroke-miterlimit="10"/>
<path d="M79.8041 59.9434V68.273" stroke="#707070" stroke-width="1.5" stroke-miterlimit="10"/>
<path d="M18.1803 60.1836V63.4569H69.0007V60.1836" stroke="#707070" stroke-width="1.5" stroke-miterlimit="10"/>
<path d="M18.1803 17.785V14.5117H69.0007V17.785" stroke="#707070" stroke-width="1.5" stroke-miterlimit="10"/>
</svg>
