<svg width="72" height="77" viewBox="0 0 72 77" fill="none" xmlns="http://www.w3.org/2000/svg">
<path d="M56.2455 32.9774C56.2439 31.4656 55.8584 29.9789 55.1252 28.6567C54.392 27.3345 53.3351 26.2202 52.0536 25.4181C52.9621 24.1536 53.5228 22.6728 53.6796 21.1237C53.8364 19.5746 53.5839 18.0115 52.9473 16.5906C52.3107 15.1697 51.3123 13.9408 50.0518 13.0267C48.7914 12.1126 47.3131 11.5453 45.7648 11.3816C45.8518 10.9075 45.9003 10.4271 45.9096 9.9452C45.9063 7.57165 44.9611 5.29643 43.2816 3.61924C41.602 1.94204 39.3255 1 36.952 1C34.5784 1 32.3019 1.94204 30.6223 3.61924C28.9428 5.29643 27.9976 7.57165 27.9943 9.9452C28.0052 10.3979 28.0507 10.8491 28.1304 11.2949C28.0841 11.2942 28.0411 11.281 27.9943 11.281C26.2886 11.2722 24.6161 11.7531 23.1756 12.6666C21.735 13.5801 20.587 14.8879 19.8677 16.4346C19.1484 17.9813 18.8881 19.702 19.1178 21.3922C19.3474 23.0825 20.0574 24.6713 21.1633 25.97C19.6607 26.6406 18.3732 27.7142 17.4435 29.0719C16.5139 30.4296 15.9785 32.0182 15.8966 33.6616C15.8148 35.305 16.1897 36.939 16.9799 38.3823C17.77 39.8256 18.9445 41.0219 20.373 41.8384C19.5346 43.1917 19.0739 44.7449 19.0388 46.3364C19.0037 47.928 19.3954 49.4999 20.1733 50.8889C20.9511 52.2779 22.0867 53.4332 23.4621 54.2349C24.8375 55.0365 26.4024 55.4553 27.9944 55.4476H45.9095C47.6622 55.4514 49.3773 54.9398 50.8415 53.9765C52.3058 53.0132 53.4545 51.6407 54.1447 50.0297C54.835 48.4187 55.0365 46.6403 54.724 44.9157C54.4115 43.1911 53.5988 41.5964 52.3871 40.3301C53.5771 39.5081 54.5499 38.4096 55.222 37.129C55.894 35.8483 56.2452 34.4237 56.2455 32.9774Z" stroke="#707070" stroke-width="1.5" stroke-miterlimit="10"/>
<path d="M29.0832 5.66582C28.026 4.09817 26.4934 2.91135 24.711 2.28006C22.9287 1.64876 20.9907 1.60634 19.1825 2.15905C17.3742 2.71175 15.7912 3.83038 14.6663 5.35026C13.5415 6.87015 12.9343 8.711 12.9342 10.6018C12.9449 11.048 12.9897 11.4927 13.0682 11.932C13.0226 11.9313 12.9802 11.9185 12.9342 11.9185C11.253 11.9097 9.60469 12.3837 8.18493 13.284C6.76516 14.1844 5.63362 15.4733 4.9247 16.9977C4.21578 18.5221 3.95925 20.2179 4.18559 21.8838C4.41193 23.5496 5.11163 25.1155 6.20158 26.3955C4.72065 27.0564 3.45171 28.1146 2.53548 29.4527C1.61926 30.7907 1.09154 32.3565 1.01087 33.9762C0.930199 35.5958 1.29972 37.2062 2.07845 38.6287C2.85718 40.0512 4.01469 41.2303 5.42262 42.0351C4.59634 43.3688 4.14231 44.8996 4.1077 46.4682C4.07309 48.0368 4.45915 49.586 5.22579 50.955C5.99242 52.3239 7.11165 53.4626 8.46719 54.2527C9.82273 55.0428 11.3651 55.4555 12.9341 55.4479H30.591" stroke="#707070" stroke-width="1.5" stroke-miterlimit="10"/>
<path d="M36.952 21.252V76.2912" stroke="#707070" stroke-width="1.5" stroke-miterlimit="10"/>
<path d="M20.5072 55.4473V76.2907" stroke="#707070" stroke-width="1.5" stroke-miterlimit="10"/>
<path d="M53.1733 55.4473V76.2907" stroke="#707070" stroke-width="1.5" stroke-miterlimit="10"/>
<path d="M8.06683 75.7646H65.0429" stroke="#707070" stroke-width="1.5" stroke-miterlimit="10"/>
<path d="M28.9104 26.8584L36.9522 32.1514" stroke="#707070" stroke-width="1.5" stroke-miterlimit="10"/>
<path d="M11.0784 27.5381L17.0566 31.4729" stroke="#707070" stroke-width="1.5" stroke-miterlimit="10"/>
<path d="M11.0784 43.0215L19.4278 48.517" stroke="#707070" stroke-width="1.5" stroke-miterlimit="10"/>
<path d="M44.3789 4.06692C45.6447 2.91716 47.2171 2.15974 48.9052 1.88671C50.5933 1.61367 52.3244 1.83676 53.8881 2.52888C55.4518 3.22099 56.7808 4.35234 57.7137 5.78547C58.6467 7.2186 59.1433 8.89182 59.1433 10.6018C59.1326 11.048 59.0877 11.4927 59.0092 11.932C59.0548 11.9314 59.0973 11.9185 59.1433 11.9185C60.8245 11.9098 62.4728 12.3837 63.8926 13.284C65.3123 14.1844 66.4439 15.4733 67.1528 16.9977C67.8617 18.5221 68.1182 20.2179 67.8919 21.8838C67.6656 23.5496 66.9659 25.1155 65.8759 26.3955C67.3568 27.0564 68.6258 28.1146 69.542 29.4527C70.4582 30.7908 70.9859 32.3565 71.0666 33.9762C71.1472 35.5959 70.7777 37.2063 69.999 38.6288C69.2202 40.0513 68.0627 41.2303 66.6548 42.0351C67.481 43.3688 67.9351 44.8996 67.9697 46.4682C68.0043 48.0368 67.6182 49.586 66.8516 50.955C66.085 52.3239 64.9657 53.4626 63.6102 54.2527C62.2547 55.0428 60.7123 55.4555 59.1433 55.4479H41.4864" stroke="#707070" stroke-width="1.5" stroke-miterlimit="10"/>
<path d="M61.6665 31.4727L55.6883 35.4074" stroke="#707070" stroke-width="1.5" stroke-miterlimit="10"/>
<path d="M60.3185 44.9434L54.5028 48.7711" stroke="#707070" stroke-width="1.5" stroke-miterlimit="10"/>
<path d="M28.9104 44.3096L36.9522 49.6026" stroke="#707070" stroke-width="1.5" stroke-miterlimit="10"/>
<path d="M44.9938 36.1426L36.952 41.4356" stroke="#707070" stroke-width="1.5" stroke-miterlimit="10"/>
</svg>
