<svg width="78" height="89" viewBox="0 0 78 89" fill="none" xmlns="http://www.w3.org/2000/svg">
<path d="M47.7041 24.5V8.6545L40.0986 1H9V49.7534H36" stroke="#707070" stroke-width="1.5" stroke-miterlimit="10"/>
<path d="M40.0404 1.40625V8.85943H47.7039" stroke="#707070" stroke-width="1.5" stroke-miterlimit="10"/>
<path d="M30.8652 14.8984H41.3103" stroke="#707070" stroke-width="1.5" stroke-miterlimit="10"/>
<path d="M30.6735 20.7842H41.3103" stroke="#707070" stroke-width="1.5" stroke-miterlimit="10"/>
<path d="M31 27H35" stroke="#707070" stroke-width="1.5" stroke-miterlimit="10"/>
<path d="M16 33H35" stroke="#707070" stroke-width="1.5" stroke-miterlimit="10"/>
<path d="M16 39H35" stroke="#707070" stroke-width="1.5" stroke-miterlimit="10"/>
<path d="M27.2712 14.8984H15.7692V26.6708H27.2712V14.8984Z" stroke="#707070" stroke-width="1.5" stroke-miterlimit="10"/>
<path d="M76.7041 75.3472H38V26.5938H69.0986L76.7041 34.2482V75.3472Z" stroke="#707070" stroke-width="1.5" stroke-miterlimit="10"/>
<path d="M68.0404 26V33.4532H75.7039" stroke="#707070" stroke-width="1.5" stroke-miterlimit="10"/>
<path d="M46 56.7916V58.4396L59.4111 66L64 63.3602V61.7156L50.6403 54L46 56.7916Z" stroke="#707070" stroke-miterlimit="10"/>
<path d="M46 57L59.436 64L64 61.5263" stroke="#707070" stroke-miterlimit="10"/>
<path d="M59 64V66" stroke="#707070" stroke-miterlimit="10"/>
<path d="M51 49.7925V51.4396L64.4109 59L69 56.3602V54.7156L55.6405 47L51 49.7925Z" stroke="#707070" stroke-miterlimit="10"/>
<path d="M51 50L64.4366 57L69 54.5261" stroke="#707070" stroke-miterlimit="10"/>
<path d="M64 57V59" stroke="#707070" stroke-miterlimit="10"/>
<path d="M69 52.5V45.75V39" stroke="#707070"/>
<path d="M46 52.5V45.75V39" stroke="#707070"/>
<path d="M67 42L62 39.1132L62 44.8868L67 42ZM48 42L53 44.8868L53 39.1132L48 42ZM62.5 41.5L57.5 41.5L57.5 42.5L62.5 42.5L62.5 41.5ZM57.5 41.5L52.5 41.5L52.5 42.5L57.5 42.5L57.5 41.5Z" fill="#707070"/>
<path d="M24.1793 58H7.82069C4.05373 58 1 61.0537 1 64.8207V81.1793C1 84.9463 4.05373 88 7.82069 88H24.1793C27.9463 88 31 84.9463 31 81.1793V64.8207C31 61.0537 27.9463 58 24.1793 58Z" stroke="#707070" stroke-width="1.5" stroke-miterlimit="10"/>
<path d="M11 68.4482C11 67.5684 11.2609 66.7084 11.7497 65.9769C12.2384 65.2454 12.9331 64.6753 13.7459 64.3386C14.5587 64.0019 15.4531 63.9138 16.316 64.0855C17.1788 64.2571 17.9714 64.6808 18.5935 65.3028C19.2156 65.9249 19.6393 66.7175 19.8109 67.5804C19.9825 68.4433 19.8944 69.3376 19.5578 70.1504C19.2211 70.9632 18.6509 71.6579 17.9194 72.1467C17.1879 72.6355 16.3279 72.8964 15.4482 72.8964V76.9929" stroke="#707070" stroke-width="1.5" stroke-miterlimit="10"/>
<path d="M15.448 79.3076V82.2972" stroke="#707070" stroke-width="1.5" stroke-miterlimit="10"/>
</svg>
