<svg width="52" height="50" viewBox="0 0 52 50" fill="none" xmlns="http://www.w3.org/2000/svg">
<path d="M18.7522 33.1137C23.6544 33.1137 27.6284 29.1397 27.6284 24.2375C27.6284 19.3353 23.6544 15.3613 18.7522 15.3613C13.85 15.3613 9.87598 19.3353 9.87598 24.2375C9.87598 29.1397 13.85 33.1137 18.7522 33.1137Z" stroke="#707070" stroke-miterlimit="10"/>
<path d="M18.7521 30.0169C21.9443 30.0169 24.532 27.4291 24.532 24.237C24.532 21.0448 21.9443 18.457 18.7521 18.457C15.5599 18.457 12.9722 21.0448 12.9722 24.237C12.9722 27.4291 15.5599 30.0169 18.7521 30.0169Z" stroke="#707070" stroke-miterlimit="10"/>
<path d="M21.0473 24.2368C21.0473 24.6908 20.9127 25.1346 20.6605 25.5121C20.4083 25.8895 20.0498 26.1837 19.6303 26.3575C19.2109 26.5312 18.7494 26.5767 18.3041 26.4881C17.8589 26.3995 17.4499 26.1809 17.1288 25.8599C16.8078 25.5389 16.5892 25.1299 16.5006 24.6846C16.4121 24.2393 16.4575 23.7778 16.6313 23.3584C16.805 22.939 17.0992 22.5805 17.4767 22.3283C17.8542 22.076 18.298 21.9414 18.7519 21.9414" stroke="#707070" stroke-miterlimit="10"/>
<path d="M12.9722 17.5031L27.3047 3.59978C28.9693 1.93517 31.227 1 33.5811 1C35.9352 1 38.1929 1.93517 39.8575 3.59978C41.5221 5.26439 42.4573 7.52208 42.4573 9.8762C42.4573 12.2303 41.5221 14.488 39.8575 16.1526L24.7731 30.7582" stroke="#707070" stroke-miterlimit="10"/>
<path d="M29.51 8.12305L21.856 15.7136" stroke="#707070" stroke-miterlimit="10"/>
<path d="M37.5457 6.30469L25.5361 18.2297" stroke="#707070" stroke-miterlimit="10"/>
<path d="M35.3042 15.5444L42.3443 8.45801" stroke="#707070" stroke-miterlimit="10"/>
<path d="M27.7698 49.0834C32.6719 49.0834 36.6459 45.1094 36.6459 40.2073C36.6459 35.3051 32.6719 31.3311 27.7698 31.3311C22.8676 31.3311 18.8936 35.3051 18.8936 40.2073C18.8936 45.1094 22.8676 49.0834 27.7698 49.0834Z" stroke="#707070" stroke-miterlimit="10"/>
<path d="M27.7702 45.9876C30.9623 45.9876 33.5501 43.3998 33.5501 40.2077C33.5501 37.0155 30.9623 34.4277 27.7702 34.4277C24.578 34.4277 21.9902 37.0155 21.9902 40.2077C21.9902 43.3998 24.578 45.9876 27.7702 45.9876Z" stroke="#707070" stroke-miterlimit="10"/>
<path d="M30.0654 40.2075C30.0654 40.6615 29.9308 41.1053 29.6786 41.4828C29.4263 41.8602 29.0678 42.1544 28.6484 42.3282C28.229 42.5019 27.7675 42.5474 27.3222 42.4588C26.8769 42.3702 26.4679 42.1516 26.1469 41.8306C25.8259 41.5096 25.6073 41.1006 25.5187 40.6553C25.4301 40.21 25.4756 39.7485 25.6493 39.3291C25.8231 38.9097 26.1173 38.5512 26.4948 38.299C26.8722 38.0467 27.316 37.9121 27.77 37.9121" stroke="#707070" stroke-miterlimit="10"/>
<path d="M9.8762 49.0834C14.7784 49.0834 18.7524 45.1094 18.7524 40.2073C18.7524 35.3051 14.7784 31.3311 9.8762 31.3311C4.97401 31.3311 1 35.3051 1 40.2073C1 45.1094 4.97401 49.0834 9.8762 49.0834Z" stroke="#707070" stroke-miterlimit="10"/>
<path d="M9.87662 45.9876C13.0688 45.9876 15.6566 43.3998 15.6566 40.2077C15.6566 37.0155 13.0688 34.4277 9.87662 34.4277C6.68445 34.4277 4.09668 37.0155 4.09668 40.2077C4.09668 43.3998 6.68445 45.9876 9.87662 45.9876Z" stroke="#707070" stroke-miterlimit="10"/>
<path d="M12.1718 40.2075C12.1718 40.6615 12.0372 41.1053 11.785 41.4828C11.5328 41.8602 11.1743 42.1544 10.7549 42.3282C10.3354 42.5019 9.8739 42.5474 9.42864 42.4588C8.98338 42.3702 8.57438 42.1516 8.25336 41.8306C7.93234 41.5096 7.71373 41.1006 7.62516 40.6553C7.53659 40.21 7.58205 39.7485 7.75578 39.3291C7.92952 38.9097 8.22372 38.5512 8.6012 38.299C8.97868 38.0467 9.42247 37.9121 9.87645 37.9121" stroke="#707070" stroke-miterlimit="10"/>
<path d="M36.3231 19.5715C37.9877 17.9068 40.2454 16.9717 42.5995 16.9717C43.7651 16.9717 44.9194 17.2013 45.9963 17.6473C47.0732 18.0934 48.0517 18.7472 48.8759 19.5715C49.7002 20.3957 50.354 21.3742 50.8 22.4511C51.2461 23.528 51.4757 24.6822 51.4757 25.8479C51.4757 27.0135 51.2461 28.1677 50.8 29.2446C50.354 30.3216 49.7002 31.3001 48.8759 32.1243L33.7915 46.7299" stroke="#707070" stroke-miterlimit="10"/>
<path d="M38.528 24.0947L30.874 31.6853" stroke="#707070" stroke-miterlimit="10"/>
<path d="M46.5618 22.2754L34.5522 34.2004" stroke="#707070" stroke-miterlimit="10"/>
<path d="M44.3218 31.5151L51.3619 24.4287" stroke="#707070" stroke-miterlimit="10"/>
<path d="M3.67969 33.8538L10.538 27.6035" stroke="#707070" stroke-miterlimit="10"/>
</svg>
