<svg width="157" height="82" viewBox="0 0 157 82" fill="none" xmlns="http://www.w3.org/2000/svg">
<path d="M25.8968 56.2393H1V81.1361H25.8968V56.2393Z" stroke="#707070" stroke-width="1.5" stroke-miterlimit="10"/>
<path d="M1 56.2396L58.7141 1.47168H83.3643V25.6291L25.8969 81.1364" stroke="#707070" stroke-width="1.5" stroke-miterlimit="10"/>
<path d="M83.3645 1.47168L25.7737 56.1162" stroke="#707070" stroke-width="1.5" stroke-miterlimit="10"/>
<path d="M28.9785 40.2168L12.8942 56.3011" stroke="#707070" stroke-width="1.5" stroke-miterlimit="10"/>
<path d="M38.838 51.9258L25.8966 64.8672" stroke="#707070" stroke-width="1.5" stroke-miterlimit="10"/>
<path d="M48.441 51.9257L83.3644 19.6357" stroke="#707070" stroke-width="1.5" stroke-miterlimit="10"/>
<path d="M1 56.5479C7.52133 56.5479 13.7756 59.1384 18.3868 63.7497C22.9981 68.361 25.5887 74.6152 25.5887 81.1365" stroke="#707070" stroke-width="1.5" stroke-miterlimit="10"/>
<path d="M1.20267 64.8672C5.51753 64.8672 9.65566 66.5813 12.7067 69.6323C15.7578 72.6834 17.4719 76.8215 17.4719 81.1364" stroke="#707070" stroke-width="1.5" stroke-miterlimit="10"/>
<path d="M1.20267 73.002C3.3601 73.002 5.42916 73.859 6.9547 75.3845C8.48023 76.9101 9.33727 78.9791 9.33727 81.1366" stroke="#707070" stroke-width="1.5" stroke-miterlimit="10"/>
<path d="M86.8204 69.5928H53.8699V80.2367H86.8204V69.5928Z" stroke="#707070" stroke-width="1.5" stroke-miterlimit="10"/>
<path d="M53.8699 69.593L123.126 1H155.75V10.6648L86.8203 80.2366" stroke="#707070" stroke-width="1.5" stroke-miterlimit="10"/>
<path d="M155.75 1L86.6569 69.43" stroke="#707070" stroke-width="1.5" stroke-miterlimit="10"/>
<path d="M90.898 48.3867L69.6107 69.6741" stroke="#707070" stroke-width="1.5" stroke-miterlimit="10"/>
<path d="M62.7942 69.6748L56.6505 80.2372" stroke="#707070" stroke-width="1.5" stroke-miterlimit="10"/>
<path d="M70.7173 69.6748L64.5736 80.2372" stroke="#707070" stroke-width="1.5" stroke-miterlimit="10"/>
<path d="M86.8204 74.0901L103.308 58.0947" stroke="#707070" stroke-width="1.5" stroke-miterlimit="10"/>
<path d="M155.75 5.96387L114.246 46.7265" stroke="#707070" stroke-width="1.5" stroke-miterlimit="10"/>
</svg>
