<svg width="132" height="77" viewBox="0 0 132 77" fill="none" xmlns="http://www.w3.org/2000/svg">
<path d="M84.5782 69.6966H1.78079L47.2899 0.779297H130.087L84.5782 69.6966Z" stroke="#707070" stroke-width="1.5" stroke-miterlimit="10"/>
<path d="M61.1027 0.779297L15.5936 69.6966V75.6224" stroke="#707070" stroke-width="1.5" stroke-miterlimit="10"/>
<path d="M74.754 0.779297L29.2457 69.6966V75.6224" stroke="#707070" stroke-width="1.5" stroke-miterlimit="10"/>
<path d="M88.4076 0.779297L42.8993 69.6966V75.6224" stroke="#707070" stroke-width="1.5" stroke-miterlimit="10"/>
<path d="M102.038 0.779297L56.5297 69.6966V75.6224" stroke="#707070" stroke-width="1.5" stroke-miterlimit="10"/>
<path d="M116.231 0.779297L70.7217 69.6966V75.6224" stroke="#707070" stroke-width="1.5" stroke-miterlimit="10"/>
<path d="M1 70.4349V75.6221H85.4147L130.923 6.70477V0" stroke="#707070" stroke-width="1.5" stroke-miterlimit="10"/>
<path d="M84.5777 69.6963V75.6224" stroke="#707070" stroke-width="1.5" stroke-miterlimit="10"/>
<path d="M64.4917 16.3213H50.8394" stroke="#707070" stroke-width="1.5" stroke-miterlimit="10"/>
<path d="M91.4043 16.3213H77.752" stroke="#707070" stroke-width="1.5" stroke-miterlimit="10"/>
<path d="M119.587 16.3213H105.934" stroke="#707070" stroke-width="1.5" stroke-miterlimit="10"/>
<path d="M56.9949 47.8301H43.3426" stroke="#707070" stroke-width="1.5" stroke-miterlimit="10"/>
<path d="M85.4412 47.8301H70.9256" stroke="#707070" stroke-width="1.5" stroke-miterlimit="10"/>
<path d="M30.0761 47.8301H16.4238" stroke="#707070" stroke-width="1.5" stroke-miterlimit="10"/>
</svg>
