<svg width="17" height="31" viewBox="0 0 17 31" fill="none" xmlns="http://www.w3.org/2000/svg">
<path d="M8.64158 17.3091L9.43414 16.6679L10.4282 17.6162L8.64158 19.0612V22.1147H13.4732L8.01542 4.61675L2.55772 22.1147H7.16994V21.3499L5.20493 20.0432L6.09066 19.0207L7.16994 19.7376V12.9096H8.64158V17.3091ZM8.64158 24.0488V31H7.16994V24.0488H1.11712V24.0454C1.01942 24.0454 0.922148 24.0342 0.827805 24.0119C0.54665 23.9445 0.307524 23.782 0.162939 23.5601C0.0183547 23.3382 -0.0198683 23.0751 0.0566641 22.8285L6.95127 0.723475C7.01166 0.517606 7.14802 0.335025 7.33911 0.204173C7.5302 0.0733203 7.76529 0.00154417 8.00776 2.46324e-05C8.25023 -0.0014949 8.48646 0.0673275 8.67967 0.195771C8.87287 0.324215 9.01219 0.505069 9.07593 0.71016L15.9468 22.741C15.9941 22.8496 16.0182 22.9649 16.0181 23.0812C16.0181 23.2082 15.9896 23.3341 15.9341 23.4515C15.8787 23.5689 15.7974 23.6755 15.6949 23.7654C15.5924 23.8553 15.4707 23.9265 15.3368 23.9752C15.2029 24.0238 15.0593 24.0488 14.9144 24.0488H8.64158Z" fill="black"/>
</svg>
