<svg width="24" height="31" viewBox="0 0 24 31" fill="none" xmlns="http://www.w3.org/2000/svg">
<path d="M12.9822 2.31244C12.3158 2.82675 11.6019 3.29775 10.9724 3.7131C10.7671 3.84874 10.5739 3.96034 10.4003 4.05494C10.9996 4.16708 11.2516 4.49873 11.2307 5.01494C11.2043 5.68623 10.4647 5.98369 9.53308 6.35804C8.71338 6.68805 7.63818 7.11996 7.51101 7.33789C7.37175 7.5606 7.19515 7.7601 6.98821 7.92848L7.14875 7.91084C7.56276 7.78012 8.00154 7.73606 8.43507 7.78168C9.23079 7.84943 9.55165 8.16879 9.4918 8.76895C9.41585 9.54805 8.9555 9.56518 8.23088 9.60473C7.60965 9.63883 6.10704 9.18707 6.12076 9.45356C6.17597 10.5739 5.71681 10.7859 5.08131 11.0801C4.75622 11.2307 4.28226 11.4507 4.09059 13.5514C3.94301 15.1529 2.95758 16.1216 2.23977 16.7405C2.73935 16.3939 3.34597 16.2158 3.96376 16.2342C4.07655 16.2363 3.96818 16.1893 4.11177 16.137C4.81749 15.8823 5.80377 15.5224 6.44358 16.0328C7.05616 16.522 7.01349 17.4832 5.35962 19.3607C4.72975 20.0752 4.36814 20.1398 4.43708 20.1942C4.50049 20.2455 4.79879 20.3154 5.13642 20.3956C5.58889 20.4892 6.03121 20.6227 6.45763 20.7945L6.46097 20.7955L6.46206 20.7945C6.66991 20.8732 6.88438 20.935 7.10316 20.9792C7.97244 21.1826 8.96566 21.4171 10.0867 22.6886C10.4462 23.0977 10.9436 23.2861 11.509 23.3603C11.7536 23.391 12.0002 23.406 12.2469 23.4051V18.1011L10.31 16.6859L11.0609 15.7499L12.2469 16.6161V13.7058H13.4875V20.2775L14.4503 19.4286L15.2889 20.2904L13.4875 21.8795V23.3426L13.7843 23.3166L14.4431 23.2552C15.7044 23.136 18.1704 22.9033 19.8196 22.8723C19.7164 22.3585 19.4254 22.1177 19.1361 21.8774C18.5954 21.4299 18.0542 20.9814 17.849 19.9349C17.8361 19.8727 17.7912 19.6582 17.7547 19.4804C17.6124 18.7979 17.5619 18.5453 18.0004 18.1833C18.2678 17.9621 18.4642 17.9007 18.656 17.9227C17.9887 17.4906 17.3711 17.0272 17.3089 16.4499C17.2364 15.7813 17.5927 15.3366 18.5965 15.2356C18.5965 15.2356 18.6897 15.1875 18.8984 15.0819L18.9033 15.0792C18.4321 14.3849 18.5736 13.8718 19.0822 13.474C19.3512 13.2822 19.6747 13.172 20.0104 13.1579C18.8597 12.3408 15.7124 10.0292 15.7733 8.77913C15.8109 8.00271 16.3313 7.54884 17.5523 7.60217C17.5663 7.60325 17.5797 7.60541 17.5927 7.60752C17.1732 7.24125 16.4771 6.68584 15.7824 6.13162C14.3342 4.97549 12.8901 3.82363 12.9446 2.83853C12.9559 2.61741 12.9699 2.45667 12.9822 2.31244ZM13.4875 25.1146V31H12.2469V25.1721C11.9152 25.1735 11.5837 25.1531 11.2549 25.1112C10.2629 24.9799 9.36443 24.6221 8.66174 23.8237C7.93086 22.9941 7.25226 22.8344 6.65955 22.6954C6.33038 22.6279 6.00857 22.5312 5.69833 22.4066L5.6994 22.4055C5.37335 22.2807 5.03685 22.1823 4.69346 22.1112C4.13035 21.9788 3.63467 21.8619 3.24465 21.5512C2.42495 20.8964 2.38217 19.9887 3.93502 18.2261C4.01361 18.1366 4.09851 18.0524 4.18913 17.9739C4.10313 17.9916 4.01533 18.0002 3.92735 17.9995C0.937565 17.9381 -0.00453543 17.7224 0.0184761 16.758C0.0302584 16.2507 0.35146 15.9784 0.803061 15.5966C1.30922 15.1689 2.13897 14.4667 2.23642 13.3987C2.51894 10.3133 3.55266 9.82364 4.26605 9.49208C4.26161 9.04932 4.51616 8.72892 4.90478 8.49448C4.78987 8.31622 4.74166 8.10619 4.768 7.89854C4.81618 7.37791 5.17239 7.08961 5.55939 6.77559C5.67999 6.6878 5.79083 6.5885 5.8902 6.47922C6.21141 5.93024 7.05616 5.47961 7.90794 5.1069C7.77682 4.91303 7.71564 4.68373 7.73368 4.45377C7.76448 3.68064 8.71111 3.05734 9.9178 2.26013C10.5555 1.8399 11.2846 1.35872 11.9532 0.827483C13.2407 -0.196147 14.018 -0.194083 14.557 0.419497C14.9748 0.896354 14.9142 1.57068 14.8453 2.34875C14.8255 2.56725 14.8049 2.79465 14.7983 2.92818C14.7925 3.03445 15.8812 3.90269 16.9747 4.77525C18.4299 5.93673 19.892 7.10242 19.8426 8.0977C19.8068 8.84806 19.2783 9.31684 18.0278 9.36977C18.8741 10.1638 20.8127 11.5276 21.3552 11.9089L21.455 11.9788C23.0364 13.0997 23.2687 13.8589 22.8083 14.4486C22.3911 14.981 21.6642 14.9515 20.9038 14.9206H20.9016C20.9944 15.3745 20.8325 15.7605 20.5374 16.0847C20.3473 16.2837 20.1242 16.4516 19.877 16.5818C19.9184 16.6027 19.9586 16.6257 19.9974 16.6507C20.4468 16.9353 20.8808 17.2098 21.1372 17.473C21.631 17.982 21.7091 18.4807 21.1544 18.9693C20.6064 19.4506 20.1309 19.6975 19.7298 19.8081C19.8551 20.1264 20.1068 20.3353 20.3568 20.542C21.1062 21.1629 21.8571 21.7855 21.7023 23.7079H21.7012C21.688 23.8781 21.6232 24.041 21.5148 24.1769C21.4064 24.3128 21.2589 24.4159 21.0903 24.4738C20.9216 24.5316 20.739 24.5417 20.5645 24.5028C20.39 24.4639 20.231 24.3777 20.1068 24.2547C19.8865 24.0346 16.2786 24.8561 14.6249 25.0124C14.3523 25.0375 14.1382 25.0584 13.9586 25.0749C13.8009 25.0882 13.645 25.1022 13.4875 25.1146M9.66672 4.43289C9.61616 4.46499 9.5871 4.4922 9.58591 4.51627C9.58029 4.66785 9.60785 4.57609 9.66672 4.43289ZM1.923 16.8008L1.87352 16.7473C1.87243 16.7591 1.87243 16.7734 1.87136 16.7922C1.86909 16.9188 1.90106 16.9428 1.9768 16.9081C1.95327 16.8751 1.93513 16.8389 1.923 16.8008ZM1.923 16.8008C1.89664 16.7298 1.87914 16.6673 1.87352 16.7473L1.923 16.8008ZM5.25126 17.3902C5.14474 17.3048 5.09536 17.4009 5.02751 17.5227C5.23397 17.4635 5.33661 17.458 5.25126 17.3902ZM21.1876 13.3822C21.2148 13.4564 21.238 13.498 21.3177 13.3966C21.4045 13.2861 21.3332 13.3229 21.1876 13.3822ZM17.8578 7.85153C17.9477 8.01017 17.9829 8.16345 17.9897 8.02137C17.9913 7.99577 17.9443 7.93702 17.8578 7.85153ZM13.1363 1.67597C13.1533 1.62253 13.1582 1.58411 13.1329 1.55474C13.036 1.44523 13.0822 1.53283 13.1363 1.67597Z" fill="black"/>
</svg>
