<svg width="20" height="31" viewBox="0 0 20 31" fill="none" xmlns="http://www.w3.org/2000/svg">
<path d="M9.51815 0C12.2151 0 14.6305 1.41616 16.3532 3.7053C17.9992 5.89246 19.0181 8.89558 19.0181 12.1935C19.0181 15.4918 17.9992 18.4949 16.3532 20.6831C14.7785 22.7753 12.6251 24.137 10.2076 24.3563V31H8.8287V24.3563C6.4111 24.137 4.25891 22.7753 2.68409 20.6831C1.03703 18.4949 0.0180664 15.4918 0.0180664 12.1935C0.0180664 8.89558 1.03703 5.89246 2.68409 3.7053C4.40706 1.41616 6.82055 0 9.51815 0ZM10.2076 12.5283V17.1466L11.2766 16.2399L12.2081 17.1605L10.2076 18.857V22.4507C11.9165 22.2275 13.4732 21.184 14.6577 19.6115C16.0745 17.728 16.9517 15.1068 16.9517 12.1935C16.9517 9.28108 16.0745 6.65977 14.6577 4.77699C13.3168 2.99453 11.4971 1.8929 9.51815 1.8929C7.53979 1.8929 5.72058 2.99453 4.37908 4.77699C2.96118 6.65977 2.08459 9.28108 2.08459 12.1935C2.08459 15.1068 2.96118 17.728 4.37908 19.6115C5.56311 21.184 7.11921 22.2275 8.8287 22.4507V20.7803L6.67763 19.2692L7.51119 18.2695L8.8287 19.195V14.5065L6.67763 12.9955L7.51119 11.9948L8.8287 12.9196V12.5283H10.2076Z" fill="black"/>
</svg>
