<svg width="360" height="126" viewBox="0 0 360 126" fill="none" xmlns="http://www.w3.org/2000/svg">
<path d="M191.885 107.184C192.631 107.184 193.171 107.044 193.505 106.764C193.851 106.471 194.025 106.111 194.025 105.684V105.544C194.025 105.037 193.858 104.631 193.525 104.324C193.205 104.017 192.745 103.864 192.145 103.864C191.585 103.864 191.058 104.011 190.565 104.304C190.071 104.584 189.651 104.991 189.305 105.524L187.425 103.764C187.691 103.417 187.978 103.104 188.285 102.824C188.591 102.531 188.938 102.284 189.325 102.084C189.711 101.871 190.145 101.711 190.625 101.604C191.105 101.484 191.645 101.424 192.245 101.424C192.991 101.424 193.665 101.511 194.265 101.684C194.878 101.857 195.398 102.111 195.825 102.444C196.265 102.764 196.598 103.151 196.825 103.604C197.065 104.057 197.185 104.564 197.185 105.124C197.185 105.564 197.111 105.964 196.965 106.324C196.831 106.684 196.638 106.997 196.385 107.264C196.145 107.531 195.865 107.751 195.545 107.924C195.225 108.084 194.885 108.197 194.525 108.264V108.384C194.938 108.464 195.318 108.597 195.665 108.784C196.025 108.957 196.331 109.184 196.585 109.464C196.851 109.744 197.058 110.077 197.205 110.464C197.351 110.837 197.425 111.264 197.425 111.744C197.425 112.371 197.298 112.937 197.045 113.444C196.791 113.951 196.431 114.384 195.965 114.744C195.498 115.104 194.938 115.384 194.285 115.584C193.631 115.771 192.911 115.864 192.125 115.864C191.418 115.864 190.791 115.791 190.245 115.644C189.698 115.497 189.218 115.304 188.805 115.064C188.405 114.811 188.051 114.524 187.745 114.204C187.451 113.884 187.191 113.544 186.965 113.184L189.185 111.464C189.491 112.037 189.865 112.511 190.305 112.884C190.758 113.244 191.365 113.424 192.125 113.424C192.805 113.424 193.331 113.257 193.705 112.924C194.091 112.577 194.285 112.111 194.285 111.524V111.404C194.285 110.831 194.065 110.404 193.625 110.124C193.198 109.831 192.605 109.684 191.845 109.684H190.585V107.184H191.885Z" fill="black"/>
<path d="M22.7369 92.7084L1.74609 37.8126C136.422 -8.15324 213.919 -10.0142 355.7 29.1896C357.494 34.0316 357.853 34.4021 358.75 37.8144L337.402 88.4029C207.45 58.8599 140.017 57.1169 34.5772 95.22C29.7335 94.323 27.5807 93.9642 22.7369 92.7084Z" fill="#EBD5BD"/>
<path d="M358.715 37.9745L355.722 29.661C355.722 29.661 265.936 1.0625 182.801 1.0625C99.6655 1.0625 1.89844 37.9745 1.89844 37.9745L22.516 92.1787L34.1549 95.5042C34.1549 95.5042 121.613 60.5874 201.091 66.9056C280.568 73.2239 337.432 88.5208 337.432 88.5208L358.715 37.9745Z" stroke="black" stroke-width="2" stroke-miterlimit="10"/>
<path d="M1.89844 37.9727L11.5421 41.2981C11.5421 41.2981 93.0147 7.37891 187.623 7.37891C282.231 7.37891 358.715 37.9727 358.715 37.9727" stroke="black" stroke-width="2" stroke-miterlimit="10"/>
<path d="M11.5391 41.3008L34.1519 95.505" stroke="black" stroke-width="2" stroke-miterlimit="10"/>
<path d="M29.1133 83.4213C29.1133 83.4213 56.3892 81.6477 66.6095 77.6573C76.8299 73.6668 163.956 43.5164 198.983 48.2828C234.011 53.0492 292.751 56.3945 340.974 80.1058" stroke="black" stroke-width="2" stroke-miterlimit="10"/>
<path d="M320.774 84.5498C320.774 84.5498 288.546 65.6875 271.476 63.2488C254.405 60.8102 224.255 62.1404 215.165 61.4753C206.076 60.8102 176.812 61.4753 176.812 61.4753C176.812 61.4753 163.412 61.0316 153.152 67.4609" stroke="black" stroke-width="2" stroke-miterlimit="10"/>
<path d="M26.1932 76.4214C26.1932 76.4214 38.6989 68.6794 45.7931 68.4022C52.8873 68.1251 51.8092 67.9034 57.3364 66.5732C62.8636 65.243 76.6086 56.8187 84.3679 55.7102C92.1272 54.6018 109.863 51.0546 120.726 48.2835C131.589 45.5123 134.471 40.635 142.23 41.3001C149.989 41.9652 161.517 40.8567 166.616 37.753C171.715 34.6493 181.137 30.8161 187.622 31.6242C194.106 32.4324 211.842 31.6242 211.842 31.6242C211.842 31.6242 219.823 31.7673 220.71 28.2202C221.596 24.6731 209.182 24.3405 209.182 24.3405C209.182 24.3405 183.909 22.6778 176.814 24.3405C169.72 26.0032 161.517 29.5503 150.876 29.772C140.235 29.9937 110.971 28.2202 110.306 27.9985C109.641 27.7768 95.4526 26.3822 79.2689 31.6242C63.0853 36.8663 66.189 39.5266 47.1233 43.7388C36.333 46.2234 25.313 47.5758 14.2422 47.7741" stroke="black" stroke-width="2" stroke-miterlimit="10"/>
<path d="M18.9414 59.0446C18.9414 59.0446 22.7591 55.0442 30.1733 54.8225C37.5874 54.6008 76.6056 45.2897 80.8178 43.5161C85.03 41.7425 101.657 39.0823 105.204 39.5256C108.751 39.969 111.633 39.969 110.303 42.186C108.973 44.4029 108.53 44.6246 102.322 45.9548C96.1147 47.2849 83.2564 47.4155 77.3815 50.0106C71.5066 52.6056 64.5828 57.0593 55.519 59.0446C46.4552 61.0299 22.8448 68.4013 22.8448 68.4013" stroke="black" stroke-width="2" stroke-miterlimit="10"/>
<path d="M22.8477 37.0243C22.8477 37.0243 46.6798 34.6486 54.4391 33.0968C62.1983 31.5449 94.2331 20.0168 103.101 20.4602C111.969 20.9036 126.046 21.7904 140.678 21.347C155.31 20.9036 186.569 13.1443 200.757 14.2528C214.946 15.3613 242.214 20.0907 251.968 23.6009C261.723 27.111 279.902 28.4412 292.538 29.5497C305.175 30.6581 343.04 36.1118 356.586 43.0287" stroke="black" stroke-width="2" stroke-miterlimit="10"/>
<path d="M344.26 72.3015C344.26 72.3015 316.48 56.8199 308.278 56.5982C300.075 56.3765 285.887 52.1643 269.703 48.2847C253.519 44.405 244.873 41.3013 244.873 41.3013C244.873 41.3013 236.671 38.4193 239.109 34.8722C241.548 31.3251 252.633 34.3963 261.057 36.0753C269.481 37.7542 287.439 39.873 296.085 39.4787C304.731 39.0844 346.905 41.7447 354.195 48.2847" stroke="black" stroke-width="2" stroke-miterlimit="10"/>
<path d="M352.893 51.7996C352.893 51.7996 332.443 45.733 324.019 45.9547C315.595 46.1764 306.505 46.8415 299.411 45.9547C292.317 45.0679 287.107 40.8557 284.059 44.1812C281.01 47.5066 295.864 48.9674 298.524 50.0105C301.185 51.0537 317.368 51.0601 323.576 53.9389C329.783 56.8177 347.083 65.5971 347.083 65.5971" stroke="black" stroke-width="2" stroke-miterlimit="10"/>
<path d="M5.81641 48.2815C7.75824 46.6059 11.539 43.0273 11.539 43.0273" stroke="black" stroke-width="2" stroke-miterlimit="10"/>
<path d="M8.51953 53.9417C10.4614 52.2661 14.2421 48.6875 14.2421 48.6875" stroke="black" stroke-width="2" stroke-miterlimit="10"/>
<path d="M10.4922 59.5979C12.434 57.9223 16.2147 54.3438 16.2147 54.3438" stroke="black" stroke-width="2" stroke-miterlimit="10"/>
<path d="M12.875 64.8518C14.8168 63.1762 18.5976 59.5977 18.5976 59.5977" stroke="black" stroke-width="2" stroke-miterlimit="10"/>
<path d="M15.0352 70.8534C17.2533 68.9394 21.572 64.8516 21.572 64.8516" stroke="black" stroke-width="2" stroke-miterlimit="10"/>
<path d="M17.1367 77.744C19.3549 75.83 23.6736 71.7422 23.6736 71.7422" stroke="black" stroke-width="2" stroke-miterlimit="10"/>
<path d="M20.4062 84.6385C22.6244 82.7245 26.9431 78.6367 26.9431 78.6367" stroke="black" stroke-width="2" stroke-miterlimit="10"/>
<path d="M22.793 91.5291C25.0111 89.6151 29.3298 85.5273 29.3298 85.5273" stroke="black" stroke-width="2" stroke-miterlimit="10"/>
</svg>
