<svg width="364" height="111" viewBox="0 0 364 111" fill="none" xmlns="http://www.w3.org/2000/svg">
<path d="M196.099 100.671V98.2509H199.859V88.8909H199.679L196.839 92.6109L194.919 91.1109L198.259 86.7109H202.859V98.2509H205.819V100.671H196.099Z" fill="black"/>
<path d="M71.9844 94.7832L1.30469 65.2285V54.7516C35.1055 42.0016 110.855 5.98826 194.232 2.61414C218.683 1.62463 280.474 4.80546 307.488 7.64832L361.98 38.3633L360.194 45.1235C307.065 37.8824 330.355 42.1133 288.294 40.2471C246.233 38.381 158.73 49.3633 71.9844 94.7832Z" fill="#EBD5BD"/>
<path d="M1.45312 54.9658V64.942L71.2867 94.5382C71.2867 94.5382 179.056 35.0618 295.419 40.334C349.58 42.7879 360.265 45.3221 360.265 45.3221L362.26 38.3388L308.056 7.74498C308.056 7.74498 246.536 2.75688 222.925 2.09178C199.315 1.42668 122.498 0.0965424 1.45312 54.9658Z" stroke="black" stroke-width="2" stroke-miterlimit="10"/>
<path d="M1.45312 54.9648L71.6191 84.5608L71.2871 94.5368" stroke="black" stroke-width="2" stroke-miterlimit="10"/>
<path d="M362.262 38.3404C362.262 38.3404 217.939 10.0744 71.6211 84.5636" stroke="black" stroke-width="2" stroke-miterlimit="10"/>
<path d="M5.77734 65.8294L11.9672 59.4008C11.9672 59.4008 65.404 30.42 117.844 27.0329C141.044 25.5345 161.296 14.8398 173.046 12.4011C184.795 9.96251 215.832 6.4154 242.657 8.41064C269.482 10.4059 289.003 6.25781 289.003 6.25781" stroke="black" stroke-width="2" stroke-miterlimit="10"/>
<path d="M319.48 14.1923C319.48 14.1923 255.515 12.6221 235.341 17.2776C215.167 21.9332 194.992 19.4946 191.002 19.4946C187.011 19.4946 168.832 19.0512 156.196 22.5983C143.559 26.1454 114.517 38.4584 96.7819 40.8371C79.0463 43.2158 45.7773 54.9656 29.0469 66.6046" stroke="black" stroke-width="2" stroke-miterlimit="10"/>
<path d="M47.082 74.2131C63.8784 70.0732 80.228 64.2953 95.896 56.9625C119.839 45.4344 135.579 34.4666 157.305 33.078C179.031 31.6894 200.536 28.7797 205.856 27.2417C211.177 25.7037 243.101 22.8217 259.285 23.0433C275.468 23.265 336.432 23.7619 336.432 23.7619" stroke="black" stroke-width="2" stroke-miterlimit="10"/>
<path d="M348.43 30.5332C348.43 30.5332 335.545 30.1362 310.715 28.5843C285.886 27.0325 266.598 26.8108 256.179 28.5843C245.759 30.3579 224.476 32.1314 202.75 34.7918C181.024 37.4521 172.157 38.5606 159.52 42.1077C146.883 45.6548 77.005 71.593 60.8438 80.0173" stroke="black" stroke-width="2" stroke-miterlimit="10"/>
<path d="M15.2852 70.8029C15.2852 70.8029 20.988 65.0209 24.4117 64.6484" stroke="black" stroke-width="2" stroke-miterlimit="10"/>
<path d="M26.4336 75.5284C26.4336 75.5284 30.1625 72.1742 36.5362 74.211C42.9099 76.2479 43.5332 82.7754 43.5332 82.7754" stroke="black" stroke-width="2" stroke-miterlimit="10"/>
<path d="M49.7578 75.3398C49.7578 75.3398 54.2525 80.4571 53.2373 86.8877" stroke="black" stroke-width="2" stroke-miterlimit="10"/>
<path d="M63.4453 81.1133C63.4453 81.1133 66.7658 86.8097 65.7007 92.1699" stroke="black" stroke-width="2" stroke-miterlimit="10"/>
</svg>
