<svg width="364" height="123" viewBox="0 0 364 123" fill="none" xmlns="http://www.w3.org/2000/svg">
<path d="M203.672 112.671H193.792V109.931L198.092 106.251C198.479 105.918 198.806 105.618 199.072 105.351C199.339 105.071 199.552 104.804 199.712 104.551C199.886 104.284 200.006 104.024 200.072 103.771C200.152 103.518 200.192 103.244 200.192 102.951V102.671C200.192 102.404 200.139 102.171 200.032 101.971C199.926 101.771 199.786 101.604 199.612 101.471C199.439 101.338 199.239 101.238 199.012 101.171C198.799 101.104 198.579 101.071 198.352 101.071C198.019 101.071 197.726 101.124 197.472 101.231C197.232 101.338 197.019 101.484 196.832 101.671C196.659 101.844 196.512 102.051 196.392 102.291C196.272 102.518 196.179 102.764 196.112 103.031L193.492 102.031C193.652 101.551 193.872 101.098 194.152 100.671C194.432 100.231 194.779 99.8509 195.192 99.5309C195.619 99.1976 196.119 98.9376 196.692 98.7509C197.266 98.5642 197.912 98.4709 198.632 98.4709C199.392 98.4709 200.066 98.5776 200.652 98.7909C201.239 99.0042 201.732 99.2976 202.132 99.6709C202.546 100.044 202.859 100.491 203.072 101.011C203.286 101.518 203.392 102.071 203.392 102.671C203.392 103.271 203.292 103.818 203.092 104.311C202.892 104.804 202.619 105.271 202.272 105.711C201.939 106.138 201.546 106.544 201.092 106.931C200.639 107.318 200.166 107.711 199.672 108.111L197.072 110.151H203.672V112.671Z" fill="black"/>
<path d="M55.6466 89.8362L1.98438 38.8912L8.4376 31.0636C52.5899 49.742 102.855 59.931 152.781 46.3449C176.394 39.9193 246.181 -6.61952 314.786 2.54538L363.014 42.6272L360.297 49.7595C312.102 41.8432 274.219 40.2237 215.749 71.6416C157.28 103.059 87.7828 108.398 55.6466 89.8362Z" fill="#EBD5BD"/>
<path d="M8.09121 31.3111L2.10547 38.9595L55.312 90.1708C55.312 90.1708 88.5661 102.142 114.837 100.147C141.108 98.1518 188.328 87.843 225.241 67.2255C262.153 46.6079 303.388 43.2825 324.67 44.9452C336.738 45.819 348.736 47.4853 360.585 49.9333L362.58 42.2849L314.694 3.71014C314.694 3.71014 269.136 -11.5868 183.673 33.9714C98.4722 79.3896 8.09121 31.3111 8.09121 31.3111Z" stroke="black" stroke-width="2" stroke-miterlimit="10"/>
<path d="M8.08984 31.3115L59.9658 82.3855L55.3098 90.1715" stroke="black" stroke-width="2" stroke-miterlimit="10"/>
<path d="M362.581 42.2844C362.581 42.2844 336.31 35.9661 308.377 37.2963C280.443 38.6265 254.173 47.6051 207.617 68.5552C161.061 89.5052 103.199 100.87 59.9688 82.3848C59.9688 82.3848 61.1327 78.8639 72.2728 81.0255C83.4129 83.187 91.7264 86.9067 111.18 86.7926C130.634 86.6786 157.902 78.9457 163.223 77.2421C168.543 75.5386 190.921 72.6183 196.849 73.144" stroke="black" stroke-width="2" stroke-miterlimit="10"/>
<path d="M7.1875 43.8518C7.1875 43.8518 8.66006 36.8264 16.634 39.7226" stroke="black" stroke-width="2" stroke-miterlimit="10"/>
<path d="M15.5195 50.9008C15.5195 50.9008 16.6405 47.6911 23.6176 46.5948C23.6176 46.5948 33.4768 46.8285 59.9692 52.8143C86.4616 58.8 127.918 60.1302 137.895 58.3566C147.871 56.5831 199.747 37.1776 220.808 25.4868C241.869 13.7961 291.429 3.72142 320.964 8.75876" stroke="black" stroke-width="2" stroke-miterlimit="10"/>
<path d="M24.7344 60.7392C24.7344 60.7392 30.3703 58.5777 34.0282 61.6814C37.6862 64.7851 36.6261 72.185 36.6261 72.185" stroke="black" stroke-width="2" stroke-miterlimit="10"/>
<path d="M51.8047 86.7926C55.5005 80.4221 52.8577 75.3829 52.8577 75.3829C52.8577 75.3829 62.7407 72.1839 87.127 77.2421C111.513 82.3002 134.791 77.7263 136.786 77.2421C138.782 76.7578 154.3 71.6588 164.277 70.3287C174.253 68.9985 205.068 62.3477 219.922 54.5884C234.775 46.8291 261.6 34.3165 275.789 33.2569C289.977 32.1973 296.406 34.0948 305.496 33.2569C314.585 32.419 320.349 32.7675 329.66 32.9258C338.971 33.0841 354.722 35.953 354.722 35.953" stroke="black" stroke-width="2" stroke-miterlimit="10"/>
<path d="M34.8047 57.6123C34.8047 57.6123 68.5022 61.7794 86.016 63.8375C103.53 65.8955 123.926 67.6304 128.803 66.0979C133.68 64.5654 134.999 68.0778 132.35 69.6643C128.138 72.187 122.928 74.6578 98.5418 72.187C74.1554 69.7161 54.3406 62.0926 45.9028 68.5388C45.9028 68.5388 47.9329 72.9309 44.9159 80.1654" stroke="black" stroke-width="2" stroke-miterlimit="10"/>
<path d="M339.19 23.4425C339.19 23.4425 319.681 27.3188 289.087 27.0971C258.493 26.8754 232.777 39.9554 232.777 39.9554C232.777 39.9554 203.513 57.8018 186.221 60.7392C168.929 63.6766 154.075 66.0959 154.075 66.0959C154.075 66.0959 146.76 66.6785 146.538 64.4016C146.316 62.1248 147.646 60.9191 155.406 59.0833C163.165 57.2475 189.768 51.4593 199.523 46.5941C209.277 41.729 244.97 19.5595 258.272 18.2294C271.573 16.8992 323.376 15.2853 326.037 12.8467" stroke="black" stroke-width="2" stroke-miterlimit="10"/>
<path d="M333.885 19.1709C333.885 19.1709 334.811 21.0024 314.693 22.0001C294.574 22.9977 274.455 20.5036 267.638 22.6651C260.821 24.8267 227.864 31.5054 215.762 43.2827" stroke="black" stroke-width="2" stroke-miterlimit="10"/>
</svg>
