<svg width="355" height="91" viewBox="0 0 355 91" fill="none" xmlns="http://www.w3.org/2000/svg">
<path d="M195.471 68.7332H189.131L188.831 73.1532H188.991C189.125 72.8199 189.271 72.5199 189.431 72.2532C189.605 71.9732 189.805 71.7399 190.031 71.5532C190.258 71.3532 190.531 71.1999 190.851 71.0932C191.171 70.9866 191.551 70.9332 191.991 70.9332C192.591 70.9332 193.151 71.0332 193.671 71.2332C194.191 71.4332 194.645 71.7266 195.031 72.1132C195.418 72.4866 195.725 72.9532 195.951 73.5132C196.178 74.0599 196.291 74.6799 196.291 75.3732C196.291 76.0799 196.171 76.7399 195.931 77.3532C195.705 77.9532 195.358 78.4732 194.891 78.9132C194.438 79.3532 193.878 79.6999 193.211 79.9532C192.545 80.1932 191.785 80.3132 190.931 80.3132C190.251 80.3132 189.651 80.2399 189.131 80.0932C188.611 79.9466 188.151 79.7532 187.751 79.5132C187.351 79.2599 187.005 78.9732 186.711 78.6532C186.418 78.3332 186.165 77.9932 185.951 77.6332L188.131 75.9132C188.438 76.4599 188.805 76.9266 189.231 77.3132C189.658 77.6866 190.231 77.8732 190.951 77.8732C191.671 77.8732 192.211 77.6666 192.571 77.2532C192.945 76.8399 193.131 76.2932 193.131 75.6132V75.4532C193.131 74.8132 192.945 74.3066 192.571 73.9332C192.198 73.5599 191.685 73.3732 191.031 73.3732C190.485 73.3732 190.031 73.4866 189.671 73.7132C189.325 73.9266 189.058 74.1399 188.871 74.3532L186.411 74.0132L186.931 66.1132H195.471V68.7332Z" fill="black"/>
<path d="M39.834 71.426L1.38672 32.769L6.23171 24.1108C37.3392 28.2169 59.7733 34.1508 93.3969 29.1627C120.105 25.2005 185.379 23.3864 189.663 27.9418C189.663 27.9418 260.543 -6.73163 351.233 1.97068L353.14 9.45502L315.866 51.6377C267.672 43.7214 207.42 30.1465 192.452 34.5489C177.483 38.9514 127.589 68.6378 39.834 71.426Z" fill="#EBD5BD"/>
<path d="M5.57083 24.8935L1.41406 33.2071L39.4901 71.1167C39.4901 71.1167 120.963 71.3229 191.461 34.8697C204.358 28.2011 315.832 51.1643 315.832 51.1643L353.076 9.92917L350.748 2.28073C350.748 2.28073 263.955 -6.36535 190.131 27.8864C120.375 60.2507 43.148 63.1358 43.148 63.1358L5.57083 24.8935Z" stroke="black" stroke-width="2" stroke-miterlimit="10"/>
<path d="M190.131 27.8857C190.131 27.8857 152.887 20.5698 90.3688 29.5484C53.6999 34.8147 5.23828 24.0615 5.23828 24.0615" stroke="black" stroke-width="2" stroke-miterlimit="10"/>
<path d="M353.076 9.93111C353.076 9.93111 287.233 -1.70782 191.461 34.8717" stroke="black" stroke-width="2" stroke-miterlimit="10"/>
<path d="M7.08594 38.6536C7.09138 38.2626 8.81612 27.9912 8.81612 27.9912" stroke="black" stroke-width="2" stroke-miterlimit="10"/>
<path d="M12.3086 43.9856C12.314 43.5946 14.0388 33.3233 14.0388 33.3233C14.0388 33.3233 20.3689 34.8701 32.6729 34.8701C44.9769 34.8701 93.5916 33.3892 110.219 27.1318" stroke="black" stroke-width="2" stroke-miterlimit="10"/>
<path d="M17.3281 49.3176C17.3336 48.9266 19.0583 38.6553 19.0583 38.6553" stroke="black" stroke-width="2" stroke-miterlimit="10"/>
<path d="M22.4375 54.6457C22.4429 54.2547 24.1677 43.9834 24.1677 43.9834" stroke="black" stroke-width="2" stroke-miterlimit="10"/>
<path d="M27.5039 59.1849C27.5093 58.7939 29.2341 49.3154 29.2341 49.3154" stroke="black" stroke-width="2" stroke-miterlimit="10"/>
<path d="M33.543 65.3098C33.5484 64.9188 35.2731 54.6475 35.2731 54.6475" stroke="black" stroke-width="2" stroke-miterlimit="10"/>
<path d="M39.7578 72.073C39.7633 71.682 43.1449 63.1357 43.1449 63.1357" stroke="black" stroke-width="2" stroke-miterlimit="10"/>
<path d="M20.9766 40.5721C20.9766 40.5721 55.1186 40.356 73.0758 39.5247C91.0331 38.6933 129.94 32.375 143.741 32.5413C157.541 32.7076 177.244 33.3223 177.244 33.3223" stroke="black" stroke-width="2" stroke-miterlimit="10"/>
<path d="M29.9219 49.6751C29.9219 49.6751 33.5445 46.8401 47.4704 47.0064C66.4356 47.2329 74.4062 49.1679 89.7031 47.0064C105 44.8449 141.413 38.6132 142.078 38.653C142.743 38.6929 156.983 37.5346 165.825 37.9475" stroke="black" stroke-width="2" stroke-miterlimit="10"/>
<path d="M37.2109 57.0967C37.2109 57.0967 47.967 59.8105 56.6962 58.5635C65.4254 57.3165 85.2948 50.7488 95.0216 50.0837C104.748 49.4186 126.398 50.0837 126.398 50.0837" stroke="black" stroke-width="2" stroke-miterlimit="10"/>
<path d="M267.348 42.024C267.818 42.1056 290.11 35.9594 324.087 42.024" stroke="black" stroke-width="2" stroke-miterlimit="10"/>
<path d="M329.548 34.4525C329.299 34.4525 309.596 33.7042 303.527 32.5403C297.458 31.3764 293.717 31.3765 278.919 31.4596C264.121 31.5427 254.394 32.2078 248.741 29.7969C243.088 27.386 221.556 30.6282 216.484 34.4525" stroke="black" stroke-width="2" stroke-miterlimit="10"/>
<path d="M242.422 19.4053C242.422 19.4053 244.168 22.315 258.883 23.562C273.598 24.8091 278.17 24.4765 289.227 23.562C300.284 22.6476 302.529 22.7307 308.847 23.8946C315.165 25.0585 324.975 25.5252 329.215 24.3774C333.455 23.2295 340.525 23.8225 340.525 23.8225" stroke="black" stroke-width="2" stroke-miterlimit="10"/>
<path d="M347.007 16.6474C342.505 14.9145 337.694 14.1272 332.874 14.3344C325.475 14.8333 318.159 17.2442 314.584 17.4104C311.01 17.5767 309.43 15.4152 302.364 15.4983C295.297 15.5815 299.62 16.0803 289.145 16.7453C278.67 17.4104 264.617 14.0693 264.617 14.0693" stroke="black" stroke-width="2" stroke-miterlimit="10"/>
</svg>
