<svg width="357" height="106" viewBox="0 0 357 106" fill="none" xmlns="http://www.w3.org/2000/svg">
<path d="M200.303 95.0303V92.3503H194.163V89.7903L199.603 81.0703H203.163V90.0303H204.923V92.3503H203.163V95.0303H200.303ZM196.563 90.0303H200.303V84.1703H200.103L196.563 90.0303Z" fill="black"/>
<path d="M0.558594 44.2211V34.3582L296.857 1.94043C317.143 4.09687 328.377 4.67115 355.647 34.735V42.649L68.4817 76.1893C41.6113 53.8905 26.753 47.2756 0.558594 44.2211Z" fill="#EBD5BD"/>
<path d="M1.16797 34.6416V44.2852C1.16797 44.2852 31.7617 42.9551 69.0063 76.2092C207.011 60.0637 355.657 42.6225 355.657 42.6225V34.6415C355.657 34.6415 329.386 -0.607818 295.134 2.05253C226.935 7.34958 1.16797 34.6416 1.16797 34.6416Z" stroke="black" stroke-width="2" stroke-miterlimit="10"/>
<path d="M1.16797 34.6406C1.16797 34.6406 32.4268 32.3128 71.0016 67.2296C128.199 61.5764 355.657 34.6406 355.657 34.6406" stroke="black" stroke-width="2" stroke-miterlimit="10"/>
<path d="M69.0078 76.2081L71.0031 67.2295" stroke="black" stroke-width="2" stroke-miterlimit="10"/>
<path d="M34.9961 42.9132C34.9961 42.9132 51.3824 36.4645 75.9905 36.2179C100.598 35.9713 104.423 33.9898 116.893 31.572C129.363 29.1542 136.014 31.662 154.803 31.572C173.591 31.482 195.872 28.3229 206.18 27.3252C216.489 26.3276 241.928 17.5152 252.902 17.349C263.876 17.1828 287.985 9.03549 295.966 7.53902C303.947 6.04255 319.481 6.20327 319.481 6.20327" stroke="black" stroke-width="2" stroke-miterlimit="10"/>
<path d="M326.56 9.59668C326.56 9.59668 312.428 15.0214 303.616 16.1853C294.803 17.3491 286.157 14.0237 280.837 16.1853C275.516 18.3468 260.884 20.5083 260.219 20.8408C259.554 21.1734 251.241 21.329 252.405 24.3272C253.568 27.3254 273.185 24.3272 274.02 24.3272C281.003 24.3272 285.659 26.4441 298.295 25.5546C310.932 24.6651 341.403 19.9281 341.403 19.9281" stroke="black" stroke-width="2" stroke-miterlimit="10"/>
<path d="M346.817 24.8545C346.817 24.8545 337.533 27.8238 321.073 28.9877C304.612 30.1515 275.759 29.1539 267.905 29.6527C260.051 30.1516 225.135 30.9829 208.84 33.477C192.545 35.971 172.427 37.3012 150.313 42.4556C128.199 47.61 61.8086 59.477 61.8086 59.477" stroke="black" stroke-width="2" stroke-miterlimit="10"/>
<path d="M68.1094 64.6725C68.1094 64.6725 107.082 56.5905 121.381 55.7591C135.68 54.9278 147.153 54.7615 165.443 52.4337C183.733 50.1059 209.006 39.9864 224.303 39.0604C239.599 38.1344 246.749 39.6309 267.034 38.1344C287.319 36.6379 302.184 35.1415 314.039 33.6451C325.894 32.1487 352.12 30.3975 352.12 30.3975" stroke="black" stroke-width="2" stroke-miterlimit="10"/>
<path d="M50.5705 51.4732C50.5705 51.4732 57.0718 47.9561 68.1109 47.5342C79.15 47.1123 82.1429 49.6063 96.1096 46.2809C110.076 42.9555 118.057 40.2952 118.057 40.2952C118.057 40.2952 122.214 39.2975 121.05 37.8011C119.886 36.3047 115.73 37.3023 108.746 37.8011C101.763 38.2999 96.1096 37.824 88.1286 39.0596C80.1476 40.2951 80.6464 42.4566 72.6654 42.4566C64.6845 42.4566 41.0195 45.8847 41.0195 45.8847" stroke="black" stroke-width="2" stroke-miterlimit="10"/>
<path d="M60.8244 27.533C60.8244 27.533 60.526 31.1373 82.1412 30.3944C103.756 29.6516 118.056 27.3238 129.528 26.4924C141.001 25.6611 159.291 27.3132 170.597 24.3256C181.904 21.338 181.904 21.0055 192.545 20.5067C203.186 20.0079 214.825 21.1779 223.97 17.6831C233.115 14.1884 237.272 14.0221 243.257 14.0221C249.243 14.0221 269.196 8.5352 274.184 4.0459" stroke="black" stroke-width="2" stroke-miterlimit="10"/>
<path d="M10.9922 35.3779L13.1388 46.0136" stroke="black" stroke-width="2" stroke-miterlimit="10"/>
<path d="M20.2539 37.4443L22.4711 48.2069" stroke="black" stroke-width="2" stroke-miterlimit="10"/>
<path d="M28.7383 40.5264L30.9555 51.289" stroke="black" stroke-width="2" stroke-miterlimit="10"/>
<path d="M37.4688 44.2842L39.6859 55.0468" stroke="black" stroke-width="2" stroke-miterlimit="10"/>
<path d="M45.9961 48.9404L48.4484 60.8442" stroke="black" stroke-width="2" stroke-miterlimit="10"/>
<path d="M54.3242 53.4561L55.9345 65.5027" stroke="black" stroke-width="2" stroke-miterlimit="10"/>
<path d="M61.8086 59.8154L64.2609 71.7192" stroke="black" stroke-width="2" stroke-miterlimit="10"/>
</svg>
