<svg width="68" height="73" viewBox="0 0 68 73" fill="none" xmlns="http://www.w3.org/2000/svg">
<path d="M1.01807 5.43641V1.91686L33.3257 1.41406L66.7104 68.7884V72.3079H35.4796L1.01807 5.43641Z" fill="#EBD5BD" stroke="black"/>
<path d="M1.01807 1.46582H33.0162L66.5387 68.9693V72.2345H35.4715L1.01807 5.41778V1.46582Z" stroke="black" stroke-miterlimit="10"/>
<path d="M1.01807 1.46582L35.4715 68.9693H66.5387" stroke="black" stroke-miterlimit="10"/>
<path d="M35.4712 72.2346V68.9697" stroke="black" stroke-miterlimit="10"/>
<path d="M6.09619 1.46582C6.09619 1.46582 11.5139 10.1607 13.5455 16.6423C15.5772 23.1239 17.8628 33.258 19.3865 36.8501C20.9102 40.4422 31.1531 52.5284 33.2693 56.4015C35.3856 60.2747 39.3643 68.9695 39.3643 68.9695V72.2344" stroke="black" stroke-miterlimit="10"/>
<path d="M10.52 1.46582C10.52 1.46582 15.0277 10.2002 16.7419 14.2315C18.4561 18.2627 22.3289 34.7434 25.0589 39.6639C27.7889 44.5844 36.1694 52.7655 37.7567 56.441C39.3439 60.1166 43.2802 68.9695 43.2802 68.9695L42.8357 72.2344" stroke="black" stroke-miterlimit="10"/>
<path d="M15.0278 1.46582C15.0278 1.46582 19.4085 9.78522 20.9323 14.0536C22.456 18.322 27.2014 35.8035 29.3128 39.5454C32.4237 45.0587 40.1059 52.0541 41.5026 55.0182C42.8994 57.9824 48.0419 68.7127 48.0419 68.7127L47.661 71.8547" stroke="black" stroke-miterlimit="10"/>
<path d="M19.4087 1.46582C19.4087 1.46582 23.1545 10.6152 26.0115 13.3422C29.6467 16.7363 32.7271 20.6115 35.1539 24.8431C38.1378 30.0601 38.8997 33.7949 40.36 38.6561C41.8202 43.5173 43.7883 51.6391 45.5026 54.4847C47.2168 57.3303 52.7403 68.9695 52.7403 68.9695V72.2344" stroke="black" stroke-miterlimit="10"/>
<path d="M56.6767 72.2344L56.9307 68.9695C56.9307 68.9695 49.8199 56.1446 48.0423 50.9277C46.2646 45.7108 43.2171 29.8229 38.5824 22.7089C33.9478 15.595 30.3289 12.8087 28.2338 9.72593C26.5332 7.05121 24.9861 4.29395 23.5991 1.46582" stroke="black" stroke-miterlimit="10"/>
<path d="M28.0435 1.46582C28.0435 1.46582 29.8211 6.22823 32.2972 8.89597C34.7733 11.5637 41.2491 17.077 43.2807 23.3611C45.3124 29.6451 48.4868 39.3675 48.9947 41.5017C50.1293 45.4603 51.5505 49.3424 53.2485 53.1212C54.7722 56.3225 61.4385 68.9695 61.4385 68.9695V72.2344" stroke="black" stroke-miterlimit="10"/>
<path d="M39.3657 47.0746C39.3657 47.0746 33.0169 39.0121 31.5355 35.218C30.0541 31.4239 27.3452 22.0967 27.3452 22.0967C27.3452 22.0967 33.0169 27.8669 35.3871 34.5857C37.7574 41.3044 39.3657 47.0746 39.3657 47.0746Z" stroke="black" stroke-miterlimit="10"/>
</svg>
