<svg width="79" height="66" viewBox="0 0 79 66" fill="none" xmlns="http://www.w3.org/2000/svg">
<rect x="16.1719" y="12" width="46.3077" height="41" fill="white"/>
<path d="M78.6334 0.204116L0.0180664 0.500042V14.5H16.1719V12H61.9411V15H57.095V50.5L61.9411 50.5V53H16.1719V50.5H21.5565V15H0.0180664V65H78.6334V0.204116Z" fill="#EBD5BD"/>
<path d="M57.2121 14.8809H21.9971V50.3396H57.2121V14.8809Z" stroke="black" stroke-miterlimit="10"/>
<path d="M54.9557 17.1963H24.2529V48.0266H54.9557V17.1963Z" stroke="black" stroke-miterlimit="10"/>
<path d="M0.0180664 14.8809H21.9967" stroke="black" stroke-miterlimit="10"/>
<path d="M0.0180664 7.79004H78.6055" stroke="black" stroke-miterlimit="10"/>
<path d="M0.0180664 0.698242H78.6055" stroke="black" stroke-miterlimit="10"/>
<path d="M0.0180664 36.1572H21.9967" stroke="black" stroke-miterlimit="10"/>
<path d="M0.0180664 29.0654H21.9967" stroke="black" stroke-miterlimit="10"/>
<path d="M0.0180664 21.9736H21.9967" stroke="black" stroke-miterlimit="10"/>
<path d="M0.0180664 57.4316H78.6055" stroke="black" stroke-miterlimit="10"/>
<path d="M0.0180664 50.3398H21.9967" stroke="black" stroke-miterlimit="10"/>
<path d="M0.0180664 43.249H21.9967" stroke="black" stroke-miterlimit="10"/>
<path d="M57.2119 14.8809H78.6057" stroke="black" stroke-miterlimit="10"/>
<path d="M57.2119 36.1572H78.6057" stroke="black" stroke-miterlimit="10"/>
<path d="M57.2119 29.0654H78.6057" stroke="black" stroke-miterlimit="10"/>
<path d="M57.2119 21.9736H78.6057" stroke="black" stroke-miterlimit="10"/>
<path d="M57.2119 50.3398H78.6057" stroke="black" stroke-miterlimit="10"/>
<path d="M57.2119 43.249H78.6057" stroke="black" stroke-miterlimit="10"/>
<path d="M0.0180664 64.5234H78.6055" stroke="black" stroke-miterlimit="10"/>
<path d="M39.6045 7.79004V12.0316" stroke="black" stroke-miterlimit="10"/>
<path d="M39.6045 53.0859V57.1261" stroke="black" stroke-miterlimit="10"/>
<path d="M6.4248 7.79004V14.7768" stroke="black" stroke-miterlimit="10"/>
<path d="M72.1055 7.79004V14.7768" stroke="black" stroke-miterlimit="10"/>
<path d="M62.3472 0.802734V7.78946" stroke="black" stroke-miterlimit="10"/>
<path d="M17.3813 0.802734V7.78946" stroke="black" stroke-miterlimit="10"/>
<path d="M62.3472 57.5381V64.5248" stroke="black" stroke-miterlimit="10"/>
<path d="M17.3813 57.5381V64.5248" stroke="black" stroke-miterlimit="10"/>
<path d="M6.4248 21.9736V28.9604" stroke="black" stroke-miterlimit="10"/>
<path d="M40.4302 17.1963V48.0266" stroke="black" stroke-miterlimit="10"/>
<path d="M38.7788 17.1963V48.0266" stroke="black" stroke-miterlimit="10"/>
<path d="M72.1055 21.9736V28.9604" stroke="black" stroke-miterlimit="10"/>
<path d="M6.4248 36.1572V43.144" stroke="black" stroke-miterlimit="10"/>
<path d="M72.1055 36.1572V43.144" stroke="black" stroke-miterlimit="10"/>
<path d="M6.4248 50.1396V57.1264" stroke="black" stroke-miterlimit="10"/>
<path d="M72.1055 50.1396V57.1264" stroke="black" stroke-miterlimit="10"/>
<path d="M16.4399 50.3398V53.0856H62.3462V50.3398" stroke="black" stroke-miterlimit="10"/>
<path d="M16.4399 14.7763V12.0312H62.3462V14.7763" stroke="black" stroke-miterlimit="10"/>
</svg>
