<svg width="79" height="97" viewBox="0 0 79 97" fill="none" xmlns="http://www.w3.org/2000/svg">
<path d="M17.7874 88.4998H15.0951C17.249 79.9999 21.5566 62.9 21.5566 62.5C21.5566 62.1 20.4797 61 19.9412 60.5L26.4028 61.5C25.8643 63 24.7874 66.3 24.7874 67.5C24.7874 68.7 26.5822 69.3333 27.4797 69.5L28.0181 68.4998L25.8643 64L26.9412 61.5L15.0951 59.5V58.4998L19.4028 57.4998C17.9669 53.3332 15.5259 44.6 15.0951 43C14.6644 41.4 15.6336 40.6665 16.1721 40.4998C22.8131 40.6664 36.7413 40.8998 39.3259 40.4998C41.9105 40.0998 42.9156 41.6664 43.0951 42.4998L51.7105 65.4998L65.1721 68.4998L63.5567 59.9998L49.0182 57.4998L48.4798 55.9998L72.7105 58.4998L72.7104 60L70.0182 60.4998H67.3259L73.7874 88.4998H72.1721L70.0182 87.9998C69.4797 85.6664 68.4028 80.5998 68.4028 78.9998C68.4028 77.3998 66.608 74.9998 65.7105 73.9998L49.5567 77.4998L43.0951 75.4998L47.9413 95.9998L44.7105 94.9998C43.4541 90.6664 40.8336 81.5998 40.4028 79.9998C39.9721 78.3998 38.0695 77.3331 37.1721 76.9998C33.4028 76.3331 25.4336 74.8998 23.7105 74.4998C21.9874 74.0998 21.5567 74.9998 21.5567 75.4998L17.7874 88.4998Z" fill="white"/>
<path d="M20.4796 65.5L0.0180664 65.5002V1.5H78.6334V65.5H68.9411L67.8642 60.5L70.5565 61L73.2488 60.0002V58.5002L48.4796 56C47.0437 52.6667 44.0642 45.5 43.6334 43.5002C43.2027 41.5003 41.6591 40.6669 40.9411 40.5002C33.4027 40.3335 17.895 40.1002 16.1719 40.5002C14.4488 40.9002 14.736 42.6668 15.095 43.5002L19.4027 58.0002L15.095 58.5002V59.5002L19.9411 60.0002L21.5565 63.0002L20.4796 65.5Z" fill="#EBD5BD"/>
<path d="M49.0181 58.5002L63.5565 60.0002L64.6334 65.0002H51.7104L49.0181 58.5002Z" fill="#EBD5BD"/>
<path d="M0.0180664 15.5254H78.6055" stroke="black" stroke-miterlimit="10"/>
<path d="M0.0180664 8.43457H78.6055" stroke="black" stroke-miterlimit="10"/>
<path d="M0.0180664 1.34277H78.6055" stroke="black" stroke-miterlimit="10"/>
<path d="M0.0180664 36.8018H78.6055" stroke="black" stroke-miterlimit="10"/>
<path d="M0.0180664 29.71H78.6055" stroke="black" stroke-miterlimit="10"/>
<path d="M0.0180664 22.6182H78.6055" stroke="black" stroke-miterlimit="10"/>
<path d="M0.0180664 58.0762H18.8642" stroke="black" stroke-miterlimit="10"/>
<path d="M67.2173 58.0762H78.6059" stroke="black" stroke-miterlimit="10"/>
<path d="M0.0180664 50.9844H17.3811" stroke="black" stroke-miterlimit="10"/>
<path d="M46.022 50.9844H78.6054" stroke="black" stroke-miterlimit="10"/>
<path d="M0.0180664 43.8936H15.483" stroke="black" stroke-miterlimit="10"/>
<path d="M43.3672 43.8936H78.605" stroke="black" stroke-miterlimit="10"/>
<path d="M0.0180664 65.168H20.6891" stroke="black" stroke-miterlimit="10"/>
<path d="M51.1006 65.168H64.6031" stroke="black" stroke-miterlimit="10"/>
<path d="M68.3384 65.168H78.6056" stroke="black" stroke-miterlimit="10"/>
<path d="M39.6045 8.43457V15.4213" stroke="black" stroke-miterlimit="10"/>
<path d="M6.4248 8.43457V15.4213" stroke="black" stroke-miterlimit="10"/>
<path d="M72.1055 8.43457V15.4213" stroke="black" stroke-miterlimit="10"/>
<path d="M62.3472 1.44727V8.43399" stroke="black" stroke-miterlimit="10"/>
<path d="M17.3813 1.44727V8.43399" stroke="black" stroke-miterlimit="10"/>
<path d="M62.3472 59.7402V65.1686" stroke="black" stroke-miterlimit="10"/>
<path d="M17.3813 59.8086V65.1685" stroke="black" stroke-miterlimit="10"/>
<path d="M6.4248 22.6182V29.6049" stroke="black" stroke-miterlimit="10"/>
<path d="M72.1055 22.6182V29.6049" stroke="black" stroke-miterlimit="10"/>
<path d="M39.6045 22.6182V29.6049" stroke="black" stroke-miterlimit="10"/>
<path d="M6.4248 36.8018V43.7885" stroke="black" stroke-miterlimit="10"/>
<path d="M72.1055 36.8018V43.7885" stroke="black" stroke-miterlimit="10"/>
<path d="M39.6045 36.8018V40.6488" stroke="black" stroke-miterlimit="10"/>
<path d="M6.4248 50.7842V57.7709" stroke="black" stroke-miterlimit="10"/>
<path d="M72.1055 50.7842V57.7709" stroke="black" stroke-miterlimit="10"/>
<path d="M21.9587 60.457L15.4829 88.2243L17.7685 88.519L21.1334 76.0798C21.1494 75.8389 21.2198 75.6038 21.3399 75.3898C21.4601 75.1758 21.6274 74.9876 21.831 74.8375C22.0345 74.6874 22.2698 74.5787 22.5215 74.5185C22.7732 74.4583 23.0357 74.4479 23.292 74.488C25.3236 74.6649 36.6246 76.6104 36.6246 76.6104C37.4949 76.8476 38.2822 77.2942 38.9066 77.9051C39.531 78.516 39.9703 79.2693 40.18 80.0887C41.0688 83.0363 44.9417 94.8861 44.9417 94.8861L47.6081 95.9472H48.3065L39.9895 62.9331" stroke="black" stroke-miterlimit="10"/>
<path d="M25.0707 60.8115L23.1026 67.5912C23.1026 67.5912 22.5946 70.7157 25.0707 71.0695C27.5468 71.4232 36.5622 73.8403 36.5622 73.8403C36.5622 73.8403 38.0224 74.194 38.4668 73.4866C38.9112 72.7791 38.4668 71.1874 38.4668 71.1874L36.1177 62.3443" stroke="black" stroke-miterlimit="10"/>
<path d="M26.6489 61L24.8322 66.923C24.8322 66.923 24.3367 69.2838 26.6489 69.6888C28.961 70.0939 38.7876 72 38.7876 72" stroke="black" stroke-miterlimit="10"/>
<path d="M16.8169 58.4328L20.6261 57.5684L46.1063 60.8701L41.6548 61.9118L16.8169 58.4328Z" stroke="black" stroke-miterlimit="10"/>
<path d="M15.293 58.4961V59.5328L41.7468 63.3451L47.5874 62.0091V60.7221" stroke="black" stroke-miterlimit="10"/>
<path d="M41.625 63.0355V61.9111" stroke="black" stroke-miterlimit="10"/>
<path d="M29.2603 68.3276L26.4985 61.3711" stroke="black" stroke-miterlimit="10"/>
<path d="M25.8643 64L28.0181 68.4723L27.5267 70" stroke="black" stroke-miterlimit="10"/>
<path d="M28.1812 68.6811C28.1812 68.6811 28.9154 68.6811 30.8615 67.9442C32.9178 67.2155 35.0933 66.8192 37.2937 66.7725" stroke="black" stroke-miterlimit="10"/>
<path d="M41.0693 66.7727C41.0693 66.7727 48.0848 64.9967 53.6401 65.9989C59.1954 67.0012 65.4172 68.7534 65.4172 68.7534C65.4172 68.7534 68.4012 69.4477 68.3377 71.2164C68.2742 72.985 64.7189 74.0756 64.7189 74.0756L49.6086 77.4065L43.2 75.6753" stroke="black" stroke-miterlimit="10"/>
<path d="M41.1641 67.5947C41.1641 67.5947 48.2113 69.4978 49.3541 72.7884C50.4969 76.0791 49.6081 77.4056 49.6081 77.4056" stroke="black" stroke-miterlimit="10"/>
<path d="M51.7986 65.5271L43.1324 42.3878C42.9161 41.8359 42.5092 41.3661 41.9752 41.0515C41.4411 40.7369 40.81 40.5952 40.1802 40.6486C37.8311 40.7371 16.3719 40.2949 16.3719 40.2949C16.3719 40.2949 14.3086 40.2654 15.4831 44.9228C16.6576 49.5801 19.6232 57.796 19.6232 57.796" stroke="black" stroke-miterlimit="10"/>
<path d="M17.7998 40.4717C17.7998 40.4717 18.3254 41 18.8791 42.5645C19.5457 44.4805 25.0375 57.981 25.0375 57.981" stroke="black" stroke-miterlimit="10"/>
<path d="M20.1177 60.457C20.4063 61.2602 20.7896 62.0312 21.2605 62.7563" stroke="black" stroke-miterlimit="10"/>
<path d="M50.4023 61.3706L51.7991 58.2461" stroke="black" stroke-miterlimit="10"/>
<path d="M48.9728 57.9808C49.0681 58.0102 70.179 60.4568 70.179 60.4568L73.036 59.7399V58.865L48.3071 55.8584" stroke="black" stroke-miterlimit="10"/>
<path d="M63.3853 59.8086L65.4169 68.7532" stroke="black" stroke-miterlimit="10"/>
<path d="M65.7661 73.9279C65.7661 73.9279 67.7343 76.4039 68.1787 77.8188C68.6231 79.2337 70.1151 87.6346 70.1151 87.6346L72.4324 88.4895L73.5117 88.2831L67.3216 60.3096" stroke="black" stroke-miterlimit="10"/>
<path d="M65.9419 59.9658L72.4325 88.4898" stroke="black" stroke-miterlimit="10"/>
</svg>
