<svg width="88" height="74" viewBox="0 0 88 74" fill="none" xmlns="http://www.w3.org/2000/svg">
<path d="M1.55615 4.93264V1.41309H45.71L81.2484 47.1673V49.6812H71.5561L86.6331 70.2958V72.8097H75.8638L69.9408 64.765H60.2485L54.3254 56.2176L44.0946 55.7148L37.6331 47.6701H28.4792L1.55615 4.93264Z" fill="#EBD5BD" stroke="black"/>
<path d="M2.34575 1.48177L37.1352 1.9184L85.5939 69.6341H76.4537L70.874 61.3484L70.6494 61.0149H60.3061L54.8125 52.7333L54.5885 52.3958H44.3803L38.2993 44.2648L38.0713 43.96H28.4001L2.34575 1.48177ZM1.01807 0.751953L27.9574 44.673H37.6732L43.9822 53.1089H54.1632L59.8807 61.728H70.2275L76.0317 70.3472H87.0226L37.547 1.2104L1.01807 0.751953Z" fill="black"/>
<path d="M70.0007 47.344H80.9915L46.0074 1.61769L37.5474 1.53711" stroke="black" stroke-miterlimit="10"/>
<path d="M1.39697 0.751953V4.69464L28.3365 47.6014H37.926L44.3608 55.9453H54.4948L60.1338 64.6564H70.2281L76.1581 72.7251H86.6251V70.3469" stroke="black" stroke-miterlimit="10"/>
<path d="M37.9894 44.4406L9.18896 1.11914" stroke="black" stroke-miterlimit="10"/>
<path d="M54.2989 52.6322L19.0571 1.53711" stroke="black" stroke-miterlimit="10"/>
<path d="M70.4101 61.2563L29.2046 1.76758" stroke="black" stroke-miterlimit="10"/>
<path d="M28.3667 44.2607V47.6017" stroke="black" stroke-miterlimit="10"/>
<path d="M37.9888 44.2607V47.6017" stroke="black" stroke-miterlimit="10"/>
<path d="M44.4243 52.7422V56.0831" stroke="black" stroke-miterlimit="10"/>
<path d="M54.5884 53.0176V56.3585" stroke="black" stroke-miterlimit="10"/>
<path d="M60.1958 61.1777V64.5187" stroke="black" stroke-miterlimit="10"/>
<path d="M70.3218 61.4072V64.7482" stroke="black" stroke-miterlimit="10"/>
<path d="M76.3149 69.6143V72.726" stroke="black" stroke-miterlimit="10"/>
<path d="M19.4038 16.5537H29.5572" stroke="black" stroke-miterlimit="10"/>
<path d="M39.6724 16.5537H48.0583" stroke="black" stroke-miterlimit="10"/>
<path d="M39.6724 31.6328H49.8257" stroke="black" stroke-miterlimit="10"/>
<path d="M71.8462 49.69H81.3059V47.6484" stroke="black" stroke-miterlimit="10"/>
</svg>
